<svg width="22" height="22" viewBox="0 0 22 22" fill="none" xmlns="http://www.w3.org/2000/svg">
<path d="M11 0C4.93477 0 0 4.93435 0 11C0 17.0657 4.93477 22 11 22C17.0652 22 22 17.0657 22 11C22 4.93435 17.0652 0 11 0ZM11 21.1538C5.40142 21.1538 0.846154 16.5986 0.846154 11C0.846154 5.40142 5.40142 0.846154 11 0.846154C16.5986 0.846154 21.1538 5.40142 21.1538 11C21.1538 16.5986 16.5986 21.1538 11 21.1538Z" fill="#939DFF"/>
<path fill-rule="evenodd" clip-rule="evenodd" d="M10.4635 7.5463C10.4635 7.24421 10.7083 7 11.0098 7C11.3112 7 11.5561 7.24421 11.5561 7.5463V10.5556H14.7135C15.0149 10.5556 15.2598 10.7998 15.2598 11.1019C15.2598 11.4039 15.0149 11.6481 14.7135 11.6481H11.5561V14.9537C11.5561 15.2558 11.3112 15.5 11.0098 15.5C10.7083 15.5 10.4635 15.2558 10.4635 14.9537V11.6481H7.30606C7.0046 11.6481 6.75977 11.4039 6.75977 11.1019C6.75977 10.7998 7.0046 10.5556 7.30606 10.5556H10.4635V7.5463Z" fill="#939DFF"/>
</svg>
