<svg width="15" height="15" viewBox="0 0 15 15" fill="none" xmlns="http://www.w3.org/2000/svg">
<circle cx="7.5" cy="7.5" r="7" stroke="#EF3340"/>
<path d="M5.5166 4.425C5.62993 4.325 5.75326 4.23 5.8866 4.14C6.02326 4.05 6.16993 3.97167 6.3266 3.905C6.48326 3.83833 6.65326 3.78667 6.8366 3.75C7.01993 3.71 7.21826 3.69 7.4316 3.69C7.7216 3.69 7.98493 3.73 8.2216 3.81C8.4616 3.89 8.6666 4.005 8.8366 4.155C9.0066 4.30167 9.13826 4.48 9.2316 4.69C9.32493 4.9 9.3716 5.135 9.3716 5.395C9.3716 5.64833 9.33493 5.86833 9.2616 6.055C9.18826 6.23833 9.09493 6.39833 8.9816 6.535C8.8716 6.67167 8.7516 6.79 8.6216 6.89C8.4916 6.99 8.36826 7.085 8.2516 7.175C8.13493 7.26167 8.03326 7.34833 7.9466 7.435C7.86326 7.51833 7.81326 7.61333 7.7966 7.72L7.6816 8.45H6.8366L6.7516 7.635C6.74826 7.61833 6.7466 7.605 6.7466 7.595C6.7466 7.58167 6.7466 7.56667 6.7466 7.55C6.7466 7.40333 6.78326 7.27667 6.8566 7.17C6.92993 7.06 7.0216 6.95833 7.1316 6.865C7.2416 6.76833 7.35993 6.675 7.4866 6.585C7.61326 6.495 7.7316 6.39833 7.8416 6.295C7.9516 6.18833 8.04326 6.06833 8.1166 5.935C8.18993 5.80167 8.2266 5.645 8.2266 5.465C8.2266 5.345 8.20326 5.23833 8.1566 5.145C8.11326 5.04833 8.0516 4.96667 7.9716 4.9C7.8916 4.83 7.79493 4.77667 7.6816 4.74C7.5716 4.70333 7.4516 4.685 7.3216 4.685C7.1316 4.685 6.96993 4.70667 6.8366 4.75C6.7066 4.79 6.59493 4.83667 6.5016 4.89C6.4116 4.94 6.33493 4.98667 6.2716 5.03C6.20826 5.07 6.1516 5.09 6.1016 5.09C5.9816 5.09 5.89493 5.04 5.8416 4.94L5.5166 4.425ZM6.4616 10.32C6.4616 10.2167 6.47993 10.1183 6.5166 10.025C6.5566 9.93167 6.60993 9.85167 6.6766 9.785C6.7466 9.71833 6.82826 9.665 6.9216 9.625C7.01493 9.585 7.11493 9.565 7.2216 9.565C7.32493 9.565 7.42326 9.585 7.5166 9.625C7.60993 9.665 7.68993 9.71833 7.7566 9.785C7.82326 9.85167 7.8766 9.93167 7.9166 10.025C7.9566 10.1183 7.9766 10.2167 7.9766 10.32C7.9766 10.4267 7.9566 10.5267 7.9166 10.62C7.8766 10.71 7.82326 10.7883 7.7566 10.855C7.68993 10.9217 7.60993 10.9733 7.5166 11.01C7.42326 11.05 7.32493 11.07 7.2216 11.07C7.11493 11.07 7.01493 11.05 6.9216 11.01C6.82826 10.9733 6.7466 10.9217 6.6766 10.855C6.60993 10.7883 6.5566 10.71 6.5166 10.62C6.47993 10.5267 6.4616 10.4267 6.4616 10.32Z" fill="#EF3340"/>
</svg>
