<svg width="30" height="20" viewBox="0 0 30 20" fill="none" xmlns="http://www.w3.org/2000/svg">
<rect width="29.9993" height="20" rx="2" fill="#4861B2"/>
<path d="M0 2C0 0.895431 0.89543 0 2 0H11.4734L19.8943 20H2C0.895433 20 0 19.1046 0 18V2Z" fill="#455DAA"/>
<path d="M11.9858 12.9235L12.8463 7.87695H14.2191L13.3587 12.9235H11.9858Z" fill="white"/>
<path d="M18.3465 8.00175C18.0758 7.89541 17.6504 7.78906 17.1187 7.78906C15.7556 7.78906 14.7985 8.47548 14.7985 9.45192C14.7888 10.177 15.4849 10.5831 16.0069 10.8247C16.5387 11.0761 16.7223 11.2308 16.7223 11.4532C16.7223 11.7915 16.297 11.9462 15.9006 11.9462C15.3495 11.9462 15.0595 11.8689 14.6051 11.6852L14.4117 11.5982L14.2184 12.7293C14.5374 12.8743 15.1368 12.9903 15.7556 13C17.2057 13 18.1435 12.3233 18.1532 11.2791C18.1628 10.7087 17.7955 10.264 17.0027 9.90631C16.5193 9.67428 16.2293 9.5196 16.2293 9.2779C16.2293 9.06521 16.4806 8.84285 17.0124 8.84285C17.4668 8.83318 17.7858 8.92986 18.0372 9.03621L18.1628 9.09421L18.3465 8.00175Z" fill="white"/>
<path d="M21.8734 7.88574H20.8099C20.4812 7.88574 20.2298 7.97275 20.0848 8.30146L18.0449 12.9227H19.4854C19.4854 12.9227 19.7174 12.3039 19.7755 12.1686C19.9301 12.1686 21.332 12.1686 21.535 12.1686C21.5737 12.3426 21.6993 12.9227 21.6993 12.9227H22.9755L21.8734 7.88574ZM20.1815 11.1341C20.2975 10.8441 20.7326 9.72262 20.7326 9.72262C20.7229 9.73229 20.8486 9.43259 20.9163 9.23923L21.0129 9.67428C21.0129 9.67428 21.274 10.8828 21.332 11.1341H20.1815Z" fill="white"/>
<path d="M10.8349 7.87695L9.48143 11.3187L9.33641 10.6226C9.09472 9.82018 8.31163 8.94041 7.44153 8.50536L8.66934 12.9235H10.1292L12.2948 7.87695H10.8349Z" fill="white"/>
<path d="M8.23326 7.87695H6.01934L6 7.9833C7.73053 8.39901 8.87133 9.41413 9.34505 10.6226L8.86167 8.30234C8.77466 7.9833 8.53296 7.88662 8.23326 7.87695Z" fill="#F5AB00"/>
</svg>
