<svg width="20" height="16" viewBox="0 0 20 16" fill="none" xmlns="http://www.w3.org/2000/svg">
<path d="M16.8016 16H2.96532C1.17357 16 -0.220009 14.4074 0.0288446 12.6156L1.67128 5.00068C1.87036 3.50756 3.11463 2.4126 4.60776 2.4126H15.1592C16.6523 2.4126 17.8966 3.50756 18.0956 5.00068L19.7381 12.6156C20.0367 14.4074 18.6431 16 16.8016 16Z" fill="white"/>
<path d="M8.40976 9.978H6.8171V8.38534C6.8171 8.2858 6.76733 8.23602 6.66779 8.23602H5.42352C5.32397 8.23602 5.2742 8.2858 5.2742 8.38534V9.978H3.68154C3.582 9.978 3.53223 10.0278 3.53223 10.1273V11.3716C3.53223 11.4711 3.582 11.5209 3.68154 11.5209H5.2742V13.1136C5.2742 13.2131 5.32397 13.2629 5.42352 13.2629H6.71756C6.8171 13.2629 6.86687 13.2131 6.86687 13.1136V11.5209H8.45953C8.55908 11.5209 8.60885 11.4711 8.60885 11.3716V10.1273C8.60885 10.0775 8.50931 9.978 8.40976 9.978Z" fill="#EF3340"/>
<path fill-rule="evenodd" clip-rule="evenodd" d="M6.57331 1.26791C6.57331 0.870927 6.89925 0.54499 7.29623 0.54499H12.5222C12.9191 0.54499 13.2451 0.870927 13.2451 1.26791V3H13.7901V1.26791C13.7901 0.569937 13.2201 0 12.5222 0H7.29623C6.59826 0 6.02832 0.569937 6.02832 1.26791V3H6.57331V1.26791Z" fill="white"/>
</svg>
