<svg width="120" height="334" viewBox="0 0 120 334" fill="none" xmlns="http://www.w3.org/2000/svg">
<path d="M89.8987 137.2C89.8987 137.2 71.6378 134.344 69.2145 134.517C66.7913 134.69 52.4249 139.363 51.8191 144.902C51.2133 150.527 53.9827 169.654 53.9827 169.654C53.9827 169.654 62.1178 168.702 62.3775 167.577C62.7237 166.452 63.3295 149.143 63.1564 147.671C62.9833 146.2 94.4856 150.095 94.4856 150.095L89.8987 137.2Z" fill="#494F66"/>
<path d="M130.921 54.722C130.228 61.2994 125.209 67.271 119.064 72.3771C110.41 79.6468 98.6396 85.0992 88.687 87.609C88.2542 87.6955 87.8215 87.782 87.4753 87.8686C87.3888 87.8686 87.3022 87.8686 87.2157 87.9551C87.1291 87.9551 87.0426 87.9551 86.9561 88.0417C86.783 88.0417 86.6099 88.1282 86.4368 88.1282C84.6194 89.2533 75.5322 92.1958 70.0799 93.9267C63.0697 91.2438 56.752 87.5224 51.04 82.5028C56.752 94.7922 67.1373 95.9172 70.6857 99.4656C43.5106 97.3019 34.3369 68.3095 34.3369 52.818L41.2605 43.5577L83.4078 23.0466L88.687 36.9803C91.5429 43.0385 114.218 45.8944 120.968 30.9222C120.882 30.8357 120.795 30.7491 120.795 30.6626C120.795 30.6626 120.882 30.7491 120.968 30.9222C121.055 31.0087 121.055 31.0953 121.141 31.0953C121.141 31.0953 121.055 31.0087 120.968 30.9222C122.439 35.0763 121.92 39.4901 119.843 43.9904C124.43 42.173 125.295 39.1439 125.988 36.9803C129.19 41.221 131.7 46.4137 130.921 54.722Z" fill="#2B2B31"/>
<path d="M130.921 54.7226C129.709 61.2134 125.209 67.2715 119.064 72.3777C110.409 79.6474 98.6394 85.0997 88.6867 87.6095C88.254 87.6961 87.8213 87.7826 87.4751 87.8692C87.3885 87.8692 87.302 87.8692 87.2154 87.9557C87.1289 87.9557 87.0424 87.9557 86.9558 88.0423C86.7827 88.0423 86.6097 88.1288 86.4366 88.1288C84.0133 89.6866 81.5901 90.7252 79.1668 91.5041C50.2609 78.6954 46.0202 67.7908 44.1162 57.0593L85.2249 38.6252C91.4561 42.6063 97.0815 69.6082 130.921 54.7226Z" fill="#191A1C"/>
<path d="M60.0409 106.13C58.8293 106.822 56.4926 104.139 54.8483 101.37C53.2039 98.6003 52.9442 95.8308 54.1559 95.1385C55.3675 94.4461 57.6177 96.0905 59.1755 98.7734C60.8198 101.543 61.2526 105.437 60.0409 106.13Z" fill="#383064"/>
<path d="M54.9339 105.179C58.6553 101.63 72.8487 95.1396 72.8487 95.1396L71.1178 91.8509L64.6269 89.7739C64.6269 89.7739 51.6452 96.784 48.6162 100.592C44.2024 106.217 38.1442 127.421 38.1442 127.421L37.4519 129.584C34.4228 131.402 34.3363 135.383 34.3363 135.383C31.8265 138.845 32.865 139.451 33.0381 139.537C33.3843 139.797 33.9035 139.364 34.2497 138.585C34.4228 138.152 35.8076 135.816 35.8076 135.816C35.0287 138.412 34.9421 141.528 35.8076 141.441C36.5865 141.354 36.673 139.451 36.8461 138.758C36.9326 138.066 37.7981 136.248 37.7981 136.248C37.7981 136.248 37.7115 141.96 38.9232 141.787C40.1348 141.528 39.2694 139.451 39.2694 139.451C38.9232 138.412 39.8751 136.421 39.8751 136.421C40.654 140.143 41.3464 141.528 41.9522 141.355C42.4715 141.181 42.558 139.797 41.6926 137.806C40.8272 135.816 42.1253 133.565 42.1253 133.825C42.0388 134.085 42.7311 136.508 44.1158 136.768C45.5006 137.027 45.414 135.556 45.0678 135.383C44.7216 135.21 43.9427 134.691 43.6831 133.392C43.4235 132.094 42.1253 130.969 42.1253 130.969L41.1733 130.19C41.0868 130.104 50.0874 109.766 54.9339 105.179Z" fill="#E5BCA5"/>
<path opacity="0.4" d="M64.7139 89.7731C64.7139 89.7731 51.7321 96.7832 48.7031 100.591C44.2893 106.217 38.2312 127.42 38.2312 127.42L37.5389 129.584C34.5098 131.401 34.4232 135.382 34.4232 135.382C31.9134 138.844 32.952 139.45 33.125 139.536C33.125 139.536 33.3847 136.767 35.2021 135.555C35.2021 135.555 35.1156 130.968 38.3177 129.67C38.3177 129.67 39.2697 129.497 39.8755 129.757C39.8755 129.757 39.3563 128.891 38.4043 128.891C38.4043 128.891 45.4144 104.918 49.482 101.284C49.482 101.284 60.9925 91.8501 65.0601 90.6385L64.7139 89.7731Z" fill="#E5BCA5"/>
<path d="M116.295 77.3105C117.42 80.8588 117.247 83.9744 115.949 84.4071C114.65 84.8398 112.573 82.33 111.448 78.8682C110.323 75.3199 110.496 72.2043 111.794 71.7716C113.093 71.3388 115.17 73.8487 116.295 77.3105Z" fill="#383064"/>
<path d="M121.4 69.5219C116.813 71.772 101.235 73.676 101.235 73.676L101.928 77.3974L107.467 81.2919C107.467 81.2919 122.006 78.5225 125.987 75.8396C131.959 71.8586 144.075 53.4246 144.075 53.4246L145.373 51.6071C148.748 50.7417 150.047 47.0203 150.047 47.0203C153.422 44.5105 152.643 43.645 152.556 43.4719C152.297 43.2123 151.691 43.3854 151.172 43.9912C150.825 44.3374 148.835 46.1548 148.835 46.1548C150.306 43.9912 151.345 40.9621 150.566 40.789C149.787 40.616 149.095 42.4334 148.748 43.0392C148.402 43.7316 147.018 45.1163 147.018 45.1163C147.018 45.1163 148.835 39.664 147.623 39.5774C146.412 39.4043 146.585 41.6545 146.585 41.6545C146.585 42.693 145.114 44.4239 145.114 44.4239C145.46 40.616 145.2 39.0582 144.681 39.1447C144.075 39.1447 143.642 40.4429 143.815 42.6065C143.988 44.7701 142.084 46.501 142.258 46.3279C142.431 46.1548 142.431 43.645 141.219 42.9527C140.007 42.2603 139.661 43.7316 139.921 43.9912C140.18 44.2508 140.786 45.0297 140.613 46.3279C140.527 47.6261 141.392 49.0973 141.392 49.0973L141.998 50.1359C142.084 49.9628 127.372 66.6659 121.4 69.5219Z" fill="#E5BCA5"/>
<path opacity="0.4" d="M107.467 81.2919C107.467 81.2919 122.007 78.5225 125.988 75.8396C131.959 71.8586 144.075 53.4246 144.075 53.4246L145.374 51.6071C148.749 50.7417 150.047 47.0202 150.047 47.0202C153.422 44.5105 152.643 43.645 152.557 43.4719C152.557 43.4719 151.432 46.0683 149.355 46.6741C149.355 46.6741 148.056 51.0878 144.595 51.3475C144.595 51.3475 143.643 51.1744 143.123 50.7417C143.123 50.7417 143.383 51.6937 144.249 51.9533C144.249 51.9533 130.315 72.6375 125.295 74.9742C125.295 74.9742 111.535 80.513 107.294 80.4265L107.467 81.2919Z" fill="#E5BCA5"/>
<path d="M77.3487 22.3551C77.3487 22.3551 87.9072 41.3084 89.0323 44.2509C95.9558 61.6464 82.0222 72.9837 78.2142 74.9743C74.6659 76.7917 58.655 84.7538 43.7694 66.5794C40.3941 62.5118 37.7978 50.4821 34.0764 40.9622C34.0764 40.9622 29.5761 29.8845 50.7795 20.1049C63.7612 14.2199 72.935 15.2584 77.3487 22.3551Z" fill="#E5BCA5"/>
<path d="M84.8781 63.1179C89.1188 54.1173 86.4359 44.3377 84.2723 35.0775C80.9836 29.0193 77.3487 22.4419 77.3487 22.4419C72.935 15.3453 63.7612 14.2202 50.7795 20.1918C29.5761 29.8848 34.0764 41.049 34.0764 41.049C37.7978 50.6555 40.3941 62.5987 43.7694 66.6663C44.7213 67.8779 45.6734 68.9164 46.6254 69.8684C61.0783 76.1862 76.4832 79.4749 84.8781 63.1179Z" fill="#E5BCA5"/>
<path opacity="0.4" d="M89.0319 44.2508C88.5992 43.0391 86.5221 39.2312 84.2719 35.077C86.4355 44.3373 89.1184 54.2034 84.8777 63.1175C76.4829 79.4744 61.078 76.1858 46.625 69.7814C60.6452 83.7151 74.8386 76.705 78.2138 74.9741C82.0218 72.9836 95.9555 61.6462 89.0319 44.2508Z" fill="#E5BCA5"/>
<path d="M41.4331 50.742C41.3465 51.2613 41.3465 51.694 41.4331 52.2133C41.5196 51.7806 41.6062 51.2613 41.4331 50.742Z" fill="#E5BCA5"/>
<path d="M52.3369 46.9339C52.4235 46.6742 52.4235 46.5012 52.51 46.2415C52.2504 46.4146 52.2504 46.6742 52.3369 46.9339Z" fill="#E5BCA5"/>
<path d="M41.087 51.78C41.0004 51.3472 41.0004 50.828 41.087 50.3087C41.2601 50.828 41.2601 51.3472 41.087 51.78C41.4332 53.7705 43.5968 55.2417 45.6738 54.2032C48.0971 52.3858 51.9916 45.9815 52.1647 45.8084C52.1647 46.068 52.0781 46.2411 51.9916 46.5007C52.1647 47.1065 52.9436 47.7124 52.9436 47.7124C62.6366 49.0105 67.7428 38.6252 72.8489 31.5285C74.7529 29.1052 77.0895 27.7205 79.6859 26.8551C78.1281 23.9991 77.003 21.922 77.003 21.922C72.5892 14.8254 63.4155 13.7003 50.4338 19.6719C29.2304 29.3649 33.7307 40.5291 33.7307 40.5291C35.375 44.7698 36.7597 49.4432 38.1444 53.6839C39.4426 53.7705 40.7408 52.9916 41.087 51.78Z" fill="#C78D75"/>
<path d="M62.0303 65.4536C62.0303 65.4536 73.7138 64.0689 77.1756 56.8857C77.1756 56.8857 83.8395 69.6943 72.7618 72.4637H72.6753C70.4251 72.3772 66.3575 72.3772 62.0303 65.4536Z" fill="#71465A"/>
<path d="M70.8584 72.4639C72.2431 68.0501 76.3107 67.877 78.3012 68.1367C77.4358 70.733 75.3587 72.8966 70.8584 72.4639Z" fill="#D69487"/>
<path d="M78.6475 57.9244C78.3878 57.6647 78.2147 57.4917 77.9551 57.232C77.6954 57.0589 77.5224 56.7993 77.2627 56.7128C77.0031 56.5397 76.7435 56.4531 76.3973 56.4531C76.1376 56.4531 75.7915 56.5397 75.4453 56.6262C75.7049 56.3666 75.9646 56.1935 76.3973 56.1935C76.7435 56.1935 77.0897 56.28 77.4358 56.4531C77.9551 56.7128 78.3878 57.232 78.6475 57.9244Z" fill="#A56F68"/>
<path d="M77.1755 56.8857C77.1755 56.8857 78.1275 58.7897 78.7333 61.2129C77.6947 63.0304 71.0308 67.7038 64.2803 68.3961C63.5014 67.4441 62.809 66.2325 62.1167 65.367C62.0301 65.4536 73.7137 64.0689 77.1755 56.8857Z" fill="white"/>
<path d="M72.6755 72.4631C74.2333 72.0303 75.7046 71.4245 76.9162 70.2994C78.1278 69.2609 78.8202 67.7031 78.9933 66.1453C79.2529 64.5875 78.9933 62.9431 78.6471 61.4719C78.3009 59.9141 77.6951 58.4428 77.0027 57.0581H77.2624C76.57 58.4428 75.618 59.6544 74.4929 60.693C73.3678 61.7315 72.0697 62.5104 70.685 63.2028C69.3003 63.8951 67.9155 64.4144 66.4443 64.8471C64.973 65.2798 63.5018 65.5395 62.0305 65.7991L62.117 65.626C62.6363 66.578 63.3287 67.53 64.021 68.3089C64.7134 69.1743 65.5788 69.9533 66.4443 70.6456C67.3097 71.338 68.3483 71.8572 69.3868 72.2034C70.4254 72.3765 71.5504 72.5496 72.6755 72.4631ZM72.6755 72.4631C71.5504 72.5496 70.4254 72.4631 69.3868 72.1169C68.3483 71.7707 67.3097 71.2514 66.4443 70.5591C65.5788 69.8667 64.7134 69.0878 63.9345 68.3089C63.1556 67.4435 62.5498 66.578 61.9439 65.626L61.8574 65.5395H62.0305C63.5018 65.2798 64.973 64.9337 66.3578 64.5009C67.7425 64.0682 69.2137 63.549 70.5119 62.8566C71.8101 62.1642 73.1082 61.3853 74.2333 60.4334C75.3584 59.4814 76.3104 58.2697 77.0027 56.9716L77.1758 56.7119L77.3489 56.9716C78.0413 58.4428 78.5606 59.9141 78.9067 61.5584C79.2529 63.1162 79.426 64.7606 79.1664 66.3184C78.9067 67.8762 78.2144 69.434 77.0027 70.4725C75.7911 71.4245 74.2333 72.0303 72.6755 72.4631Z" fill="#A56F68"/>
<g opacity="0.5">
<path opacity="0.5" d="M74.9254 49.4446C75.4446 50.5697 77.7814 50.6562 80.0315 49.5311C82.2817 48.4061 83.6664 46.5886 83.1471 45.4635C82.6279 44.3384 80.2912 44.2519 78.041 45.377C75.7043 46.5021 74.3196 48.3195 74.9254 49.4446Z" fill="#CC7A87"/>
<path opacity="0.5" d="M49.4814 61.3013C49.7411 62.4264 51.7316 62.8591 53.8087 62.3398C55.9723 61.8206 57.4435 60.5224 57.1839 59.3973C56.9242 58.2722 54.9337 57.8395 52.8566 58.3588C50.7796 58.878 49.2218 60.1762 49.4814 61.3013Z" fill="#CC7A87"/>
</g>
<path d="M72.502 43.4719C73.1078 44.4239 74.406 44.6836 75.358 43.9912C76.31 43.3854 76.5697 42.0872 75.8773 41.1352C75.2715 40.1832 73.9733 39.9236 73.0213 40.616C72.1559 41.2218 71.8962 42.5199 72.502 43.4719Z" fill="#151617"/>
<path d="M72.8482 42.2605C73.1079 42.6067 73.5406 42.6933 73.8868 42.4336C74.233 42.174 74.3195 41.7413 74.0598 41.3951C73.8002 41.0489 73.3675 40.9624 73.0213 41.222C72.6751 41.5682 72.5886 42.0009 72.8482 42.2605Z" fill="white"/>
<path d="M50.4331 54.8958C51.039 55.8478 52.3371 56.1074 53.2891 55.4151C54.2411 54.8093 54.5008 53.5111 53.8084 52.5591C53.2026 51.6071 51.9044 51.3475 50.9524 52.0398C50.0005 52.6457 49.7408 53.9438 50.4331 54.8958Z" fill="#151617"/>
<path d="M50.6926 53.6851C50.9522 54.0313 51.385 54.1178 51.7311 53.8582C52.0773 53.5986 52.1639 53.1658 51.9042 52.8196C51.6446 52.4735 51.2119 52.3869 50.8657 52.6466C50.6061 52.9062 50.5195 53.3389 50.6926 53.6851Z" fill="white"/>
<path opacity="0.56" d="M59.1748 47.1934C59.1748 47.1934 64.5406 50.2225 63.9348 57.5788C63.9348 57.5788 68.3485 57.7518 69.9929 54.0304C69.9929 54.0304 65.5791 49.5301 64.0213 43.2123C64.0213 43.2989 62.1173 46.0683 59.1748 47.1934Z" fill="url(#paint0_linear)"/>
<path d="M63.9346 57.5788C63.9346 57.5788 70.3389 61.0406 69.9927 54.0305C69.9927 54.117 67.3964 56.7133 63.9346 57.5788Z" fill="#B88984"/>
<path d="M44.0285 53.5984C44.0285 53.5984 45.067 47.973 50.0001 46.5883C50.4328 46.5017 50.4328 45.8094 49.9136 45.8094C47.1441 45.4632 42.8169 46.1555 44.0285 53.5984Z" fill="#2B2B31"/>
<path d="M79.512 34.9904C79.512 34.9904 74.4924 32.3941 70.4248 35.5097C69.9921 35.7693 69.5593 35.3366 69.7324 34.9039C71.2902 32.4806 74.3193 29.6246 79.512 34.9904Z" fill="#2B2B31"/>
<path d="M68.6944 34.9037C68.6944 34.9037 60.9919 46.5873 55.0203 46.7604C51.6451 46.8469 53.2894 42.26 53.2894 42.26C53.2894 42.26 46.8851 52.8185 44.2022 52.2992C40.9136 51.6934 41.3463 45.8949 43.5965 44.5967C43.5965 44.5967 38.4903 54.9821 35.1151 52.6454C31.5667 50.2222 29.4032 39.1444 31.9129 36.2885C31.9129 36.2885 39.6154 22.5278 40.3943 20.7969C42.0387 16.989 56.5782 10.9309 64.3672 11.8829C69.0406 12.4021 81.6761 16.2966 68.6944 34.9037Z" fill="#2B2B31"/>
<path d="M40.9996 61.5601C40.9996 61.5601 35.7203 56.627 33.2105 58.8772C30.7007 61.1274 38.3167 71.2531 41.9515 70.9935C45.5864 70.7338 44.5479 66.8393 44.5479 66.8393L40.9996 61.5601Z" fill="#C78D75"/>
<path d="M41.8646 69.2628C41.5184 69.0032 41.1722 68.7435 40.826 68.3973C40.7395 68.3108 40.6529 68.2243 40.5664 68.1377C40.4799 68.0512 40.3933 67.9646 40.3933 67.8781C40.3068 67.7915 40.3067 67.705 40.2202 67.5319C40.2202 67.4454 40.1337 67.2723 40.1337 67.1857C40.1337 67.0992 40.0471 66.9261 40.1337 66.8396C40.1337 66.753 40.1337 66.5799 40.2202 66.4934C40.3067 66.4068 40.3068 66.2337 40.3933 66.1472L40.5664 65.8876C40.6529 65.801 40.7395 65.7145 40.826 65.7145C40.9126 65.6279 40.9991 65.6279 41.0856 65.5414L41.6049 65.2817V65.6279C40.9125 64.9356 40.2202 64.1567 39.5278 63.4643C38.8355 62.772 38.0566 62.0796 37.3642 61.3872C37.0181 61.041 36.5853 60.7814 36.2392 60.5218C36.0661 60.4352 35.8064 60.2621 35.6333 60.1756C35.4602 60.0891 35.2006 60.0891 35.114 60.1756C35.0275 60.1756 34.941 60.3487 34.941 60.3487C34.8544 60.4352 34.8544 60.5218 34.7679 60.6083C34.6813 60.7814 34.6813 61.0411 34.6813 61.3007C34.7679 61.7334 35.0275 62.2527 35.2871 62.6854C34.941 62.3392 34.5948 61.9065 34.5083 61.3007C34.4217 61.0411 34.4217 60.7814 34.5083 60.5218C34.5083 60.4352 34.5948 60.2621 34.6813 60.1756C34.7679 60.0891 34.7679 60.0025 34.941 59.916C35.2006 59.7429 35.4602 59.7429 35.7199 59.8294C35.9795 59.916 36.1526 60.0025 36.4122 60.0891C36.8449 60.3487 37.2777 60.6083 37.6239 60.9545C38.4028 61.5603 39.1816 62.2527 39.874 63.0316C40.5664 63.7239 41.2587 64.5028 41.9511 65.2817L42.1242 65.5414L41.8646 65.6279L41.3453 65.801C41.2587 65.8876 41.1722 65.8876 41.0856 65.9741C40.9991 66.0607 40.9125 66.0606 40.9125 66.1472L40.7394 66.3203C40.6529 66.4068 40.6529 66.4934 40.5664 66.5799C40.4799 66.6664 40.4798 66.753 40.4798 66.8396C40.4798 66.9261 40.4798 67.0126 40.4798 67.0992C40.4798 67.1857 40.5664 67.2723 40.5664 67.3588C40.5664 67.4454 40.6529 67.5319 40.6529 67.6185C40.6529 67.705 40.7395 67.7915 40.826 67.8781C40.9126 67.9646 40.9126 68.0512 40.9991 68.1377C41.2588 68.657 41.6049 69.0032 41.8646 69.2628Z" fill="#AD8372"/>
<path d="M86.35 38.9719C86.35 38.9719 85.5711 31.7887 88.8598 31.0963C92.1485 30.404 95.6103 42.6068 93.187 45.3762C90.7638 48.1456 88.3405 44.9435 88.3405 44.9435L86.35 38.9719Z" fill="#E5BCA5"/>
<path d="M41.0005 61.5596C41.0005 61.5596 35.7213 56.6266 33.2115 58.8767C30.7017 61.1269 38.3176 71.2526 41.9525 70.993C45.5874 70.7333 44.5489 66.8388 44.5489 66.8388L41.0005 61.5596Z" fill="#C78D75"/>
<path d="M86.35 38.9719C86.35 38.9719 85.5711 31.7887 88.8598 31.0963C92.1485 30.404 95.6103 42.6068 93.187 45.3762C90.7638 48.1456 88.3405 44.9435 88.3405 44.9435L86.35 38.9719Z" fill="#C78D75"/>
<path d="M91.9756 44.3375C91.9756 43.9048 91.9756 43.472 91.889 43.0393C91.889 42.9528 91.889 42.7797 91.8025 42.6931C91.8025 42.6066 91.7159 42.4335 91.7159 42.3469C91.6294 42.2604 91.6294 42.0873 91.5428 42.0008C91.4563 41.9142 91.4563 41.8277 91.2832 41.7411C91.1967 41.6546 91.1101 41.568 91.0236 41.4815C90.9371 41.395 90.8505 41.3084 90.6774 41.3084C90.5909 41.3084 90.4178 41.2219 90.3312 41.2219H89.985C89.8985 41.2219 89.812 41.3084 89.7254 41.3084C89.6389 41.3084 89.5523 41.395 89.4658 41.395L88.9465 41.6546L89.2927 41.8277C89.1196 40.8757 88.9465 39.8372 88.86 38.8852C88.6869 37.8466 88.6003 36.8946 88.5138 35.9426C88.5138 35.4234 88.5138 34.9906 88.5138 34.4714C88.5138 34.2117 88.5138 34.0387 88.6004 33.779C88.6869 33.6059 88.7734 33.4328 88.9465 33.3463C89.033 33.3463 89.1196 33.3463 89.2061 33.3463C89.2927 33.3463 89.3793 33.3463 89.4658 33.3463C89.6389 33.4328 89.8985 33.5194 90.0716 33.6925C90.4178 34.0387 90.6774 34.5579 90.764 34.9907C90.6774 34.4714 90.5043 33.9521 90.1581 33.5194C89.9851 33.3463 89.7254 33.1732 89.5523 33.0867C89.4658 33.0001 89.2927 33.0001 89.2061 33.0001C89.1196 33.0001 89.0331 33.0001 88.86 33.0001C88.6003 33.0867 88.4272 33.3463 88.3407 33.5194C88.2541 33.779 88.1676 34.0387 88.1676 34.2117C88.0811 34.731 88.0811 35.2503 88.0811 35.683C88.0811 36.7215 88.2541 37.6735 88.3407 38.7121C88.5138 39.7506 88.6869 40.7026 88.86 41.7411L88.9465 42.0873L89.2061 41.9142L89.6388 41.6546C89.7254 41.6546 89.812 41.568 89.8985 41.568C89.9851 41.568 90.0716 41.4815 90.1581 41.4815H90.4178C90.5043 41.4815 90.5909 41.4815 90.6774 41.4815C90.7639 41.4815 90.8505 41.568 90.937 41.568C91.0236 41.568 91.1102 41.6546 91.1967 41.7411C91.2832 41.8277 91.3697 41.9142 91.3697 42.0008C91.4563 42.0873 91.4563 42.1739 91.5428 42.2604C91.6294 42.3469 91.6294 42.4335 91.7159 42.52C91.7159 42.6066 91.8025 42.6931 91.8025 42.8662C91.889 43.472 91.889 43.9048 91.9756 44.3375Z" fill="#AD8372"/>
<path d="M132.478 135.036C131.699 133.824 130.574 132.613 129.449 131.401C127.286 129.237 124.776 127.333 123.651 126.381C120.968 124.304 117.593 121.795 113.871 119.458C118.458 119.285 122.353 118.852 124.949 118.246C127.199 117.727 127.978 117.035 128.064 116.083C130.142 119.371 131.526 122.487 132.305 125.516C133.084 128.978 133.084 132.18 132.478 135.036Z" fill="#494F66"/>
<path d="M132.478 135.036C131.18 140.488 127.632 145.421 122.093 147.671C115.689 150.268 114.304 150.441 111.188 151.393C104.005 153.643 94.3121 149.402 91.1965 148.277L90.5041 139.969L90.2445 136.161L88.9463 119.631C97.6008 119.717 106.601 119.717 113.785 119.371C117.506 121.708 120.968 124.218 123.564 126.295C125.382 127.853 130.142 131.487 132.478 135.036Z" fill="#494F66"/>
<path d="M87.648 116.169C87.5614 116.256 87.5614 116.256 87.648 116.169C87.5614 116.169 87.5614 116.169 87.648 116.169C87.7345 116.169 87.7345 116.169 87.7345 116.169C87.5614 116.169 87.5614 116.169 87.7345 116.169C87.9942 116.169 87.5614 116.083 87.8211 116.169C87.9076 116.169 87.9076 116.169 87.8211 116.169C87.9076 116.169 87.9076 116.256 87.9942 116.256C88.5134 116.602 89.2923 116.342 89.552 115.823C89.8116 115.217 89.6385 114.611 89.1192 114.265C88.1672 113.573 86.9556 113.832 86.0902 114.525C85.6574 114.871 85.6574 115.736 86.0902 116.083C86.6094 116.602 87.1287 116.515 87.648 116.169Z" fill="#090909"/>
<path d="M130.055 119.63C127.891 113.226 112.659 93.494 106.342 88.3878L109.544 87.2628L114.304 84.8395C111.448 82.7624 109.197 75.7523 110.149 72.1174C97.6005 74.3676 88.4267 74.8003 83.5802 76.9639C83.5802 76.9639 83.7533 77.137 84.0129 77.3101C83.4071 77.3967 82.9744 77.4832 82.5417 77.5697C81.8494 77.7428 78.2145 79.3006 75.9643 80.2526C75.7047 79.9064 75.6181 79.7334 75.6181 79.7334C59.6074 91.1573 75.3585 79.9064 54.3281 94.9652C57.4437 96.8692 61.3382 104.312 60.3863 105.783L72.2429 99.2059C73.7141 99.4655 75.1854 99.9848 76.4836 101.023C80.5512 104.312 96.1292 136.161 96.1292 136.161C98.3794 137.026 110.149 133.305 127.372 122.746C128.151 122.227 129.016 121.708 129.795 121.188C130.401 120.929 130.228 120.236 130.055 119.63Z" fill="#82C162"/>
<path d="M117.939 121.448C124.43 110.457 111.448 93.5808 98.4662 88.3881C102.361 87.0899 108.852 88.3881 108.852 85.1859C109.457 81.1183 107.467 76.618 108.419 72.4639C96.8219 74.4544 88.254 74.8871 83.6671 77.0507C83.6671 77.0507 83.8402 77.2238 84.0999 77.3969C83.494 77.4834 83.0613 77.57 82.6286 77.6565C81.9362 77.8296 78.3014 79.3874 76.0512 80.3394C75.7916 79.9933 75.705 79.8202 75.705 79.8202C59.6942 91.2441 75.4454 79.9933 54.415 95.052C57.5306 96.956 61.4252 104.399 60.4732 105.87L72.2432 99.2062C73.7145 99.4658 75.1858 99.9851 76.4839 101.024C78.561 102.668 83.5806 111.669 87.9944 120.063C99.5913 125.429 111.102 133.132 117.939 121.448Z" fill="#92D66F"/>
<path d="M80.638 73.4156L84.3595 77.5697C84.3595 77.5697 87.4751 83.8875 85.398 85.5318C83.4075 87.2627 82.3689 89.686 78.7341 88.3878C75.1857 87.0031 72.9355 84.2337 72.9355 82.5893C73.0221 80.8584 73.2817 79.2141 73.2817 79.2141C73.2817 79.2141 78.3013 77.8294 79.513 76.185C80.8111 74.4541 80.638 73.4156 80.638 73.4156Z" fill="#C08D75"/>
<path opacity="0.4" d="M79.686 81.8975C81.9362 81.6379 83.5806 80.3397 84.7922 78.6088C84.5325 77.9165 84.2729 77.4837 84.2729 77.4837L80.5515 73.3296C80.5515 73.3296 80.8111 74.3681 79.513 76.0125C78.2148 77.6568 73.2817 79.0415 73.2817 79.0415C73.2817 79.0415 73.0221 80.7724 72.9355 82.4168C72.9355 82.5033 72.9355 82.5899 72.9355 82.6764C75.0992 83.1091 77.5224 82.5899 79.686 81.8975Z" fill="#C08D75"/>
<path d="M79.6854 81.8975C77.5218 82.5898 75.0986 83.1091 73.0215 82.7629C73.1946 84.4938 75.3582 87.0902 78.7334 88.3883C82.2817 89.773 83.4068 87.2633 85.3974 85.5324C86.8686 84.2342 85.5704 80.5128 84.7915 78.6953C83.5799 80.3397 81.9355 81.6378 79.6854 81.8975Z" fill="#C08D75"/>
<path d="M79.8594 12.7482L87.3023 26.5954C86.2638 25.0376 83.6674 24.6048 80.2056 25.1241C78.3017 25.3837 76.138 25.903 73.8013 26.6819C57.0982 32.0477 31.5675 48.4912 32.3464 58.0111L29.4904 52.7318L24.6439 43.6447C17.4607 30.3168 25.0767 11.7962 38.6642 4.18029C40.222 3.31484 41.8663 2.53594 43.5972 1.93013C47.5783 0.545417 51.9055 -0.146951 56.1462 0.0261388C66.0123 0.285773 75.4457 4.52647 79.8594 12.7482Z" fill="#FAFAFC"/>
<path d="M25.8551 17.336C21.3548 25.6443 20.3163 35.5104 24.5569 43.6456L29.4034 52.7328L32.2594 58.012C32.1728 57.2331 32.346 56.3677 32.6056 55.4157C23.778 44.8572 21.4413 30.3177 25.8551 17.336Z" fill="#FAFAFC"/>
<path d="M55.021 4.78715C49.0494 3.31589 43.0779 3.74862 37.1063 5.13334C32.4329 8.1624 28.5384 12.4896 25.8555 17.3361C21.3552 30.2313 23.7784 44.7708 32.6925 55.4158C35.8946 45.7228 58.5693 31.616 73.8012 26.683C75.6187 26.0771 77.3496 25.6444 78.9074 25.2983C73.9743 15.5187 67.2238 7.12386 55.021 4.78715Z" fill="#FAFAFC"/>
<path d="M58.5692 13.1803C58.5692 14.1323 57.7903 14.9112 56.8383 14.9977C55.8863 14.9977 55.1074 14.3053 55.1074 13.3534C55.1074 12.4014 55.8863 11.6225 56.8383 11.5359C57.7903 11.4494 58.5692 12.1417 58.5692 13.1803Z" fill="#222222"/>
<path d="M56.8382 15.2578C56.3189 15.2578 55.8862 15.0847 55.4534 14.7385C55.1072 14.3923 54.8477 13.8731 54.8477 13.3538C54.8477 12.2287 55.7131 11.2767 56.8382 11.2767C57.3574 11.2767 57.8767 11.4498 58.2229 11.796C58.569 12.1422 58.8287 12.6615 58.8287 13.1807C58.8287 14.2193 57.9633 15.1712 56.8382 15.2578ZM56.9247 11.7095C56.8382 11.7095 56.8382 11.7095 56.9247 11.7095C56.0592 11.7095 55.4534 12.4018 55.4534 13.1807C55.4534 13.6135 55.6265 13.9596 55.8862 14.2193C56.1458 14.4789 56.492 14.652 56.9247 14.5654C57.7036 14.5654 58.396 13.8731 58.396 13.0942C58.396 12.6615 58.2229 12.3153 57.9632 12.0556C57.6171 11.8826 57.2709 11.7095 56.9247 11.7095Z" fill="#222222"/>
<path d="M63.2421 19.9313C63.2421 20.8833 62.4632 21.6622 61.5112 21.7488C60.5592 21.7488 59.7803 21.0564 59.7803 20.1044C59.7803 19.1524 60.5592 18.3735 61.5112 18.287C62.4632 18.2004 63.2421 18.9793 63.2421 19.9313Z" fill="#222222"/>
<path d="M61.4251 22.0083C60.9058 22.0083 60.4731 21.8352 60.0404 21.489C59.6942 21.1428 59.4346 20.6236 59.4346 20.1043C59.4346 18.9792 60.3 18.0272 61.4251 18.0272C61.9444 18.0272 62.4636 18.2003 62.8098 18.5465C63.156 18.8927 63.4156 19.4119 63.4156 19.9312C63.5021 21.0563 62.6367 22.0083 61.4251 22.0083C61.5116 22.0083 61.5116 22.0083 61.4251 22.0083ZM61.5116 18.5465C60.6462 18.5465 60.0404 19.2388 60.0404 20.0178C60.0404 20.4505 60.2135 20.7967 60.4731 21.0563C60.7328 21.3159 61.0789 21.489 61.5116 21.4025C62.2905 21.4025 62.9829 20.7101 62.9829 19.9312C62.9829 19.4985 62.8098 19.1523 62.5502 18.8927C62.204 18.7196 61.8578 18.5465 61.5116 18.5465Z" fill="#222222"/>
<path d="M49.0487 18.0274C49.0487 18.9794 48.2698 19.7583 47.3178 19.8448C46.3658 19.8448 45.5869 19.1525 45.5869 18.2005C45.5869 17.2485 46.3658 16.4696 47.3178 16.383C48.2698 16.2965 49.0487 17.0754 49.0487 18.0274Z" fill="#222222"/>
<path d="M47.3177 20.105C46.7984 20.105 46.3656 19.9319 45.9329 19.5857C45.5867 19.2395 45.3271 18.7202 45.3271 18.201C45.3271 17.0759 46.1926 16.1239 47.3177 16.1239C47.8369 16.1239 48.3562 16.297 48.7024 16.6432C49.0485 16.9894 49.3082 17.5086 49.3082 18.0279C49.3947 19.153 48.4427 20.105 47.3177 20.105ZM47.4042 16.6432C47.4042 16.6432 47.3176 16.6432 47.4042 16.6432C46.5387 16.6432 45.9329 17.3355 45.9329 18.1144C45.9329 18.5472 46.106 18.8933 46.3656 19.153C46.6253 19.4126 46.9715 19.5857 47.4042 19.4991C48.1831 19.4991 48.8755 18.8068 48.8755 18.0279C48.8755 17.5952 48.7024 17.249 48.4427 16.9893C48.0966 16.8163 47.7504 16.6432 47.4042 16.6432Z" fill="#222222"/>
<path d="M53.7216 24.8642C53.7216 25.8162 52.9427 26.5951 51.9907 26.6816C51.0387 26.6816 50.2598 25.9893 50.2598 25.0373C50.2598 24.0853 51.0387 23.3064 51.9907 23.2198C52.9427 23.1333 53.7216 23.9122 53.7216 24.8642Z" fill="#222222"/>
<path d="M51.9046 26.9416C51.3853 26.9416 50.9526 26.7685 50.5199 26.4224C50.1737 26.0762 49.9141 25.5569 49.9141 25.0377C49.9141 23.9126 50.7795 22.9606 51.9046 22.9606C52.4238 22.9606 52.9431 23.1337 53.2893 23.4798C53.6355 23.826 53.8951 24.3453 53.8951 24.8646C53.9816 25.9896 53.1162 26.9416 51.9046 26.9416C51.9911 26.9416 51.9911 26.9416 51.9046 26.9416ZM51.9911 23.4798C51.1257 23.4798 50.5199 24.1722 50.5199 24.9511C50.5199 25.3838 50.693 25.73 50.9526 25.9896C51.2122 26.2493 51.5584 26.4224 51.9911 26.3358C52.77 26.3358 53.4624 25.6435 53.4624 24.8646C53.4624 24.4318 53.2893 24.0857 53.0296 23.826C52.6835 23.5664 52.3373 23.4798 51.9911 23.4798Z" fill="#222222"/>
<path d="M39.5292 24.0858C39.5292 25.0378 38.7503 25.8167 37.7983 25.9033C36.8463 25.9033 36.0674 25.2109 36.0674 24.2589C36.0674 23.3069 36.8463 22.528 37.7983 22.4415C38.7503 22.4415 39.5292 23.1338 39.5292 24.0858Z" fill="#222222"/>
<path d="M37.7981 26.1629C37.2789 26.1629 36.8461 25.9899 36.4134 25.6437C36.0672 25.2975 35.8076 24.7782 35.8076 24.259C35.8076 23.1339 36.6731 22.1819 37.7981 22.1819C38.3174 22.1819 38.8366 22.355 39.1828 22.7012C39.529 23.0473 39.7887 23.5666 39.7887 24.0859C39.8752 25.2109 38.9232 26.1629 37.7981 26.1629C37.8847 26.1629 37.7981 26.1629 37.7981 26.1629ZM37.8847 22.7012C37.0192 22.7012 36.4134 23.3935 36.4134 24.1724C36.4134 24.6051 36.5865 24.9513 36.8461 25.2109C37.1057 25.4706 37.4519 25.6437 37.8847 25.5571C38.6636 25.5571 39.3559 24.8648 39.3559 24.0859C39.3559 23.6531 39.1828 23.307 38.9232 23.0473C38.577 22.8742 38.2308 22.7012 37.8847 22.7012Z" fill="#222222"/>
<path d="M44.202 30.9232C44.202 31.8751 43.4231 32.654 42.4711 32.7406C41.5191 32.7406 40.7402 32.0482 40.7402 31.0962C40.7402 30.1442 41.5191 29.3653 42.4711 29.2788C43.4231 29.1923 44.202 29.9712 44.202 30.9232Z" fill="#222222"/>
<path d="M42.471 32.9996C41.9517 32.9996 41.519 32.8265 41.0863 32.4803C40.7401 32.1342 40.4805 31.6149 40.4805 31.0956C40.4805 29.9706 41.3459 29.0186 42.471 29.0186C42.9903 29.0186 43.5096 29.1916 43.8557 29.5378C44.2019 29.884 44.4616 30.4033 44.4616 30.9225C44.4616 32.0476 43.5961 32.9996 42.471 32.9996ZM42.5576 29.5378C42.471 29.5378 42.471 29.5378 42.5576 29.5378C41.6921 29.5378 41.0863 30.2302 41.0863 31.0091C41.0863 31.4418 41.2594 31.788 41.519 32.0476C41.7786 32.3073 42.1248 32.4804 42.5576 32.3938C43.3365 32.3938 44.0288 31.7015 44.0288 30.9225C44.0288 30.4898 43.8557 30.1436 43.5961 29.884C43.2499 29.6244 42.9037 29.5378 42.5576 29.5378Z" fill="#222222"/>
<path d="M83.6666 27.6331L83.4072 27.2008C83.5801 27.2873 83.6666 27.4602 83.6666 27.6331Z" fill="#344E94"/>
<path d="M68.3486 79.3013C52.9437 79.3013 40.3081 67.964 33.298 56.4535C33.0384 56.0208 33.1249 55.3285 33.6442 55.0688C34.0769 54.8092 34.4231 54.0303 34.6827 54.5496C42.9045 68.0505 59.6941 82.2439 78.8205 75.4068C79.3398 75.2337 79.9456 75.4934 80.1187 76.0127C80.2918 76.5319 80.0322 77.1377 79.5129 77.3108C75.6184 78.6955 71.8969 79.3013 68.3486 79.3013Z" fill="#585857"/>
<path d="M76.7439 77.743C76.3977 77.743 76.0516 77.5699 75.8785 77.3103C75.6188 76.8775 75.7054 76.1852 76.1381 75.9255C93.9663 64.4151 90.1584 44.5964 83.8406 29.9703C83.581 29.451 82.0232 26.6816 82.5424 26.422C83.0617 26.1623 84.9656 26.8547 85.2253 27.374C89.2929 36.6343 91.543 46.9331 91.1103 54.3759C90.5045 64.242 85.8311 72.031 77.3497 77.5699C77.1767 77.6564 77.0036 77.743 76.7439 77.743Z" fill="#585857"/>
<path d="M87.8213 24.6915C87.1289 22.9607 85.4846 22.0087 82.8882 21.749C80.3784 21.4894 77.0032 21.9221 72.8491 23.1338H72.7625C71.3778 23.5665 69.9065 24.0857 68.3487 24.605C66.3582 25.3839 64.2812 26.2494 62.2041 27.2014C55.0209 30.49 47.578 34.8173 41.693 39.1445C38.1447 41.7409 34.4232 44.7699 32.0865 47.8855C30.0094 50.5684 28.9709 53.3378 29.8364 56.0207C30.3556 57.5785 32.2596 58.0113 32.8654 57.8382C32.8654 57.8382 32.952 57.8382 33.0385 57.8382C33.2982 57.8382 33.4712 57.7516 33.7309 57.492C33.9905 54.3764 37.1926 50.0491 45.2413 44.1641C51.0398 39.9234 58.3096 35.6827 65.3197 32.4806C67.2237 31.6151 69.1276 30.8362 70.9451 30.1439C72.7625 29.4515 74.3203 28.9322 75.7916 28.4995H75.8781C80.9843 27.0283 82.6286 26.6821 83.7537 27.2879C85.2249 27.2879 85.8308 27.2879 86.8693 27.5475C87.0424 27.3744 87.4751 27.2014 87.7348 26.7686C88.1675 25.9897 88.0809 25.2974 87.8213 24.6915Z" fill="#F55D68"/>
<path d="M72.935 23.1334H72.8485C71.4638 23.5661 69.9925 24.0854 68.4347 24.6046C66.4441 25.3835 64.3671 26.249 62.29 27.201C55.1068 30.4897 47.664 34.8169 41.7789 39.1442C38.2306 41.7405 34.5092 44.7696 32.1725 47.8852C30.0954 50.568 29.0568 53.3375 29.9223 56.0204C30.4416 57.5782 32.3455 58.0109 32.9513 57.8378C32.9513 57.8378 33.0379 57.8378 33.1244 57.8378C33.3841 57.8378 33.5572 57.7512 33.8168 57.4916C34.0764 54.376 37.2786 50.0488 45.3273 44.1637C51.1258 39.923 58.3955 35.6824 65.4056 32.4802C67.3096 31.6148 69.2136 30.8359 71.031 30.1435C72.8484 29.4511 74.4063 28.9319 75.8775 28.4992H75.9641C77.7815 27.9799 79.2528 27.6337 80.2913 27.3741C79.5989 25.5566 78.8201 23.6526 77.7815 21.9218C76.2237 22.1814 74.6659 22.6141 72.935 23.1334Z" fill="#FF888D"/>
<path opacity="0.6" d="M87.8216 24.6914C87.1293 22.9605 85.4849 22.0085 82.8886 21.7489C81.4173 21.5758 79.5999 21.6624 77.6094 22.0085C78.6479 23.7394 79.4268 25.5569 80.1191 27.4609C82.0231 27.0281 82.9751 27.0281 83.6675 27.4609C85.1388 27.4609 85.7446 27.4608 86.7831 27.7205C86.9562 27.5474 87.3889 27.3743 87.6485 26.9416C88.1678 25.9896 88.0813 25.2972 87.8216 24.6914Z" fill="#F55D68"/>
<path d="M62.031 105.005L60.4732 105.87C60.9059 104.139 57.8768 97.5621 54.415 95.0523L55.9728 93.9272C59.6943 96.6101 62.4637 102.582 62.031 105.005Z" fill="white"/>
<path d="M116.208 84.4071L114.131 85.186C113.439 84.9263 112.66 83.9743 111.881 82.5896C110.41 79.8202 109.198 75.5795 109.977 72.2043L111.881 71.7715C111.189 74.6275 112.227 78.7817 113.785 81.6377C114.564 82.8493 115.343 83.8878 116.208 84.4071Z" fill="white"/>
<path d="M71.0314 79.907C69.6466 79.907 68.4351 78.8684 68.262 77.4837C68.0889 75.9259 69.1274 74.5412 70.6852 74.3681C75.2721 73.7623 78.3877 72.1179 80.1185 69.1754C80.8975 67.8772 82.6284 67.4445 83.9265 68.2234C85.2247 69.0023 85.6574 70.7332 84.8785 72.0314C82.1956 76.4452 77.6088 79.1281 71.291 79.907C71.2045 79.907 71.1179 79.907 71.0314 79.907Z" fill="#444442"/>
<g opacity="0.35">
<path opacity="0.35" d="M68.2623 135.988C69.3009 139.363 68.3489 141.613 65.666 144.642C65.0602 145.335 64.714 147.844 63.9351 148.623C63.3293 149.229 61.1656 147.498 60.3867 148.104C57.3577 150.527 51.9919 148.104 51.4727 146.633C53.5497 141.267 52.165 142.306 55.6268 138.065L68.2623 135.988Z" fill="#351853"/>
</g>
<path d="M64.887 151.133C64.3677 151.133 63.935 150.787 63.8484 150.268C63.5888 148.623 61.5982 146.893 59.7808 146.114C58.5692 145.594 57.8768 145.594 57.7903 145.681C57.3576 146.027 56.6652 145.941 56.319 145.421C55.9728 144.989 56.0594 144.296 56.5787 143.95C57.4441 143.344 58.8289 143.344 60.4732 144.037C62.8099 144.989 65.5793 147.239 65.9255 149.835C66.0121 150.441 65.5793 150.96 65.0601 151.047C64.9735 151.133 64.887 151.133 64.887 151.133Z" fill="#222222"/>
<path d="M65.7521 150.268C65.6655 150.268 65.4924 150.268 65.4059 150.181C64.8866 150.008 64.5405 149.402 64.8001 148.796C65.2328 147.498 65.0597 144.988 64.1077 143.863C63.7615 143.344 63.3288 143.171 62.723 143.258C62.1172 143.344 61.5979 142.911 61.5979 142.306C61.5114 141.7 61.9441 141.181 62.5499 141.181C63.8481 141.094 64.9732 141.527 65.8386 142.565C67.2233 144.383 67.483 147.671 66.7906 149.489C66.531 149.922 66.1848 150.268 65.7521 150.268Z" fill="#222222"/>
<path d="M55.4535 148.277C54.8477 148.277 54.3284 148.191 53.8092 148.104C52.4244 147.758 51.2993 147.066 50.6935 146.027C49.7415 144.469 51.2128 142.306 51.6455 141.7C51.9917 141.267 52.5975 141.18 53.0302 141.527C53.463 141.873 53.5495 142.479 53.2033 142.911C52.4244 143.95 52.2513 144.815 52.3379 144.988C52.6841 145.594 53.3764 146.027 54.2419 146.2C56.319 146.633 59.1749 145.854 61.6847 144.21C65.4927 141.7 67.4832 138.065 66.185 135.988C65.8389 135.382 64.4541 135.122 63.156 135.555C62.6367 135.728 62.1174 135.382 61.9443 134.863C61.7712 134.343 62.1175 133.824 62.6367 133.651C64.8869 133.045 67.0505 133.565 67.9159 134.949C69.8199 137.978 67.6563 142.738 62.8098 145.854C60.3 147.412 57.7036 148.277 55.4535 148.277Z" fill="#222222"/>
<path d="M61.9448 144.123C57.9638 146.719 53.6366 147.498 51.9057 144.815C51.4729 144.209 51.2998 143.431 51.2998 142.652C51.2133 140.142 53.0307 137.113 56.0598 135.036C58.9158 133.132 62.1179 132.699 64.2815 133.564C65.147 133.911 65.8394 134.516 66.3586 135.295C68.003 138.065 65.9259 141.527 61.9448 144.123Z" fill="#2F3438"/>
<path d="M60.3866 142.479C57.5307 144.383 52.7707 145.075 51.2129 142.652C51.1264 140.142 52.9438 137.113 55.9729 135.036C58.8289 133.132 62.031 132.699 64.1946 133.565C67.4833 135.728 63.4157 140.488 60.3866 142.479Z" fill="#3B434A"/>
<path d="M55.5405 137.892C55.3674 137.892 55.2808 137.805 55.1943 137.719C55.0212 137.546 55.0212 137.2 55.1943 137.026C55.4539 136.767 55.7136 136.594 55.9732 136.421C56.2328 136.248 56.4925 136.334 56.6655 136.507C56.8386 136.767 56.7521 137.026 56.579 137.2C56.3194 137.373 56.1463 137.546 55.8866 137.805C55.8001 137.805 55.7136 137.892 55.5405 137.892Z" fill="white"/>
<path d="M58.3958 136.075C58.2228 136.075 58.0497 135.988 57.9631 135.815C57.8766 135.555 57.9631 135.296 58.2227 135.123C59.2613 134.69 60.2998 134.43 61.2518 134.43C61.5114 134.43 61.7711 134.603 61.7711 134.95C61.7711 135.209 61.598 135.469 61.2518 135.469C60.3864 135.469 59.5209 135.729 58.6555 136.075C58.4824 136.075 58.4824 136.075 58.3958 136.075Z" fill="white"/>
<path d="M87.215 80.5129C86.4361 77.5704 82.7147 75.8395 83.8398 76.878C84.4456 77.4838 84.9649 79.734 85.2245 81.1187C85.6572 83.542 84.4456 86.1383 81.6762 87.0038C78.9933 87.8692 75.8777 86.6576 74.7526 84.4074C73.9737 82.8496 73.0217 81.3784 72.9351 81.638C72.762 81.9842 72.8486 83.7151 73.2813 85.0132C74.2333 87.6961 76.8297 89.427 79.7722 89.427C80.5511 89.427 81.4165 89.3405 82.1954 88.9943C86.1765 87.7827 88.0805 84.0612 87.215 80.5129Z" fill="white"/>
<path d="M125.987 128.112C125.987 128.112 122.785 129.67 120.708 129.324C111.88 127.939 97.081 114.524 89.292 115.13C83.9262 115.563 78.3873 123.265 79.7721 130.968C81.1568 138.67 89.0323 157.883 89.0323 157.883C89.0323 157.883 96.6483 156.499 97.7733 156.066C98.8984 155.633 90.7632 126.035 91.9748 127.679C93.6192 132.266 109.284 142.305 119.15 142.478C129.016 142.651 125.987 128.112 125.987 128.112Z" fill="#494F66"/>
<path d="M125.987 128.112C125.987 128.112 122.785 129.67 120.708 129.324C111.88 127.939 97.081 114.524 89.292 115.13C83.9262 115.563 78.3873 123.265 79.7721 130.968C81.2433 138.67 89.0323 157.883 89.0323 157.883C89.0323 157.883 94.3981 156.931 96.7348 156.412C94.3115 146.633 88.9458 137.286 90.5901 127.333C90.9363 128.458 91.5421 129.324 92.1479 130.103C91.8018 128.372 91.6287 127.333 91.8883 127.679C92.0614 128.112 92.321 128.545 92.6672 129.064C92.4075 128.025 92.321 126.9 91.8883 126.035C100.716 133.391 113.005 141.18 124.602 139.969C127.631 135.728 125.987 128.112 125.987 128.112Z" fill="#494F66"/>
<path d="M89.6391 115.823C92.0623 118.333 92.1489 120.843 91.1103 124.737C90.8507 125.603 93.3605 129.93 93.0143 130.882C92.7547 131.661 88.3409 129.237 87.9082 130.103C86.2638 133.565 81.5039 134.43 80.2923 133.305C79.773 127.593 77.9556 128.545 79.0807 123.266L89.6391 115.823Z" fill="#718D9F"/>
<path d="M92.7544 130.968C92.4082 130.968 92.062 130.795 91.889 130.536C90.937 129.151 88.3406 128.545 86.4366 128.632C85.1385 128.718 84.5326 129.064 84.4461 129.151C84.1864 129.67 83.4941 129.843 82.9749 129.584C82.4556 129.324 82.2825 128.632 82.5421 128.112C83.0614 127.16 84.273 126.554 86.0904 126.468C88.6002 126.295 92.062 127.074 93.6198 129.237C93.966 129.757 93.8795 130.362 93.3602 130.709C93.1871 130.882 93.014 130.968 92.7544 130.968Z" fill="#222222"/>
<path d="M93.1864 129.756C92.6672 129.756 92.2344 129.324 92.1479 128.804C91.9748 127.42 90.6766 125.342 89.3785 124.65C88.8592 124.39 88.3399 124.39 87.9072 124.737C87.3879 125.083 86.7821 124.91 86.436 124.39C86.0898 123.871 86.2629 123.265 86.7821 122.919C87.9072 122.227 89.1189 122.14 90.3305 122.746C92.4076 123.698 94.0519 126.554 94.3115 128.545C94.3981 129.15 93.9654 129.67 93.3595 129.756C93.273 129.756 93.1864 129.756 93.1864 129.756Z" fill="#222222"/>
<path d="M80.5511 133.305C79.6857 133.305 78.9068 133.045 78.2145 132.699C76.6567 131.747 77.0028 129.151 77.1759 128.372C77.2625 127.853 77.7817 127.506 78.301 127.593C78.8203 127.679 79.1665 128.199 79.0799 128.718C78.8203 129.93 79.0799 130.882 79.1664 130.968C79.7723 131.314 80.5511 131.401 81.4166 131.228C83.4071 130.708 85.6573 128.718 87.2151 126.122C89.4653 122.227 89.6384 117.986 87.5613 116.775C86.9555 116.429 85.6573 116.775 84.6188 117.727C84.186 118.073 83.5802 118.073 83.2341 117.64C82.8879 117.208 82.8879 116.602 83.3206 116.256C85.0515 114.698 87.2151 114.178 88.5998 115.13C91.7155 117.034 91.802 122.227 88.8595 127.247C87.042 130.362 84.3591 132.699 81.8493 133.305C81.5031 133.218 80.9839 133.305 80.5511 133.305Z" fill="#222222"/>
<path d="M87.4752 125.862C85.0519 130.016 81.5036 132.612 78.8207 130.968C78.2149 130.535 77.6957 130.016 77.2629 129.324C76.0513 127.073 76.3109 123.612 78.1284 120.41C79.8593 117.467 82.4556 115.65 84.8789 115.39C85.8308 115.303 86.6963 115.476 87.4752 115.996C90.2446 117.727 89.8984 121.794 87.4752 125.862Z" fill="#2F3438"/>
<path d="M85.3975 125.083C83.6666 128.025 79.7721 130.795 77.3489 129.324C76.1372 127.073 76.3969 123.612 78.2143 120.409C79.9452 117.467 82.5415 115.649 84.9648 115.39C88.6862 115.823 87.215 121.967 85.3975 125.083Z" fill="#3B434A"/>
<path d="M78.8206 123.179C78.7341 123.179 78.7341 123.179 78.6476 123.179C78.388 123.093 78.3014 122.833 78.3879 122.574C78.4745 122.227 78.6476 121.968 78.8206 121.708C78.9072 121.448 79.2534 121.362 79.513 121.448C79.7727 121.535 79.8592 121.881 79.7727 122.141C79.5996 122.4 79.513 122.66 79.4265 122.92C79.1668 123.093 78.9937 123.179 78.8206 123.179Z" fill="white"/>
<path d="M80.5515 120.323C80.4649 120.323 80.2919 120.323 80.2053 120.236C80.0322 120.063 79.9457 119.717 80.1188 119.544C80.8111 118.678 81.6766 118.073 82.4555 117.553C82.7151 117.467 82.9747 117.553 83.1478 117.726C83.3209 117.986 83.1479 118.246 82.9748 118.419C82.2824 118.851 81.5035 119.371 80.8977 120.15C80.8111 120.236 80.638 120.323 80.5515 120.323Z" fill="white"/>
<path d="M51.4724 190.338C53.5495 189.559 55.6266 188.693 57.7902 188.001C58.7422 187.655 59.6942 187.309 60.6461 187.049C61.4251 186.789 63.2425 185.837 63.9349 186.616C64.8869 187.655 66.4446 186.01 65.4061 184.972C63.7618 183.241 61.1654 184.539 59.2615 185.145C56.4055 186.097 53.4629 187.135 50.6935 188.261C49.3953 188.78 50.1743 190.857 51.4724 190.338Z" fill="#090909"/>
<path d="M50.5205 166.452C55.4536 164.462 62.7233 165.673 65.06 166.539L66.1851 170.693L51.559 172.251L50.5205 166.452Z" fill="#AAB3C6"/>
<path d="M57.2287 180.028C58.8689 179.699 59.7494 177.191 59.1953 174.426C58.6412 171.661 56.8622 169.686 55.222 170.015C53.5817 170.343 52.7012 172.851 53.2553 175.616C53.8094 178.381 55.5884 180.356 57.2287 180.028Z" fill="#7A2250"/>
<path d="M54.329 181.944C53.8097 181.771 48.617 180.646 43.8571 179.78C42.1262 179.52 41.4338 179.261 41.2607 179.174C41.5204 179.174 41.78 179.088 42.0396 179.088C45.3283 178.915 51.473 179.867 51.9923 179.78C54.8482 179.434 46.0207 168.183 50.7807 166.885C51.0403 166.798 55.5406 166.366 56.0599 168.702C57.0119 173.982 63.8489 184.367 54.329 181.944Z" fill="#EF3340"/>
<path d="M71.1184 192.935C71.0318 193.541 70.8587 194.147 70.5991 194.579C70.2529 195.272 69.7337 195.791 69.1278 196.051C66.7911 197.003 47.3186 194.926 40.3084 192.675C39.1833 192.329 38.3179 191.983 37.9718 191.55C37.539 191.118 37.1063 190.598 36.7601 189.992C36.6736 189.906 36.6736 189.819 36.587 189.733C36.5005 189.56 36.414 189.3 36.2409 189.04C36.2409 188.954 36.1543 188.867 36.1543 188.694C36.6736 189.04 37.3659 189.387 38.1448 189.733C39.7892 187.137 42.299 183.242 43.0779 182.463C50.1745 184.713 61.5119 185.925 63.8486 184.973C64.541 184.713 64.9737 184.194 65.3199 183.502C65.5795 183.069 65.7526 182.463 65.8391 181.857C66.5315 178.482 65.493 172.943 64.1948 168.01C65.0602 168.183 65.7526 168.443 65.9257 168.702C66.7911 169.828 72.5031 185.838 71.1184 192.935Z" fill="#E5ACCE"/>
<path d="M71.1187 192.848C71.0322 193.454 70.859 194.06 70.5994 194.492C70.2532 195.185 69.734 195.704 69.1282 195.964C66.7915 196.916 47.3189 194.839 40.3088 192.588C40.1357 192.329 39.9626 192.156 39.876 191.896C39.7895 191.809 39.7895 191.723 39.703 191.636C39.6165 191.463 39.5299 191.204 39.3568 190.944C39.2703 190.684 39.3568 190.338 39.0972 190.165C38.751 189.992 38.4048 189.905 38.1451 189.732C37.3662 189.386 36.7604 189.04 36.1546 188.694C36.0681 188.521 36.0681 188.434 35.9815 188.261C34.8565 184.713 36.0681 180.212 41.0877 179.174C41.1742 179.174 41.2608 179.174 41.3473 179.174C41.5204 179.347 42.2128 179.52 43.9437 179.78C48.7036 180.559 53.8963 181.77 54.4156 181.943C58.2236 182.895 57.0984 175.885 56.0599 170.433C55.8003 169.048 56.8388 167.75 58.2235 167.664C60.4737 167.577 62.7239 167.75 64.1951 168.01C65.0606 168.183 65.7529 168.442 65.926 168.702C66.7915 169.827 72.5034 185.838 71.1187 192.848Z" fill="#7A2250"/>
<path d="M65.7525 181.943C65.666 182.549 65.4929 183.155 65.2333 183.588C64.8871 184.28 64.3678 184.799 63.762 185.059C61.4253 186.011 50.6072 185.319 43.5105 183.069C42.7316 183.847 39.7026 187.223 38.0582 189.819C37.2793 189.473 36.6735 189.127 36.0677 188.78C35.9812 188.607 35.9812 188.521 35.8946 188.348C34.7695 184.799 35.9812 180.299 41.0008 179.261C41.0873 179.261 41.1739 179.261 41.2604 179.261C41.4335 179.434 42.1258 179.607 43.8567 179.866C48.6167 180.645 53.8094 181.857 54.3286 182.03C58.3962 183.069 56.8384 174.674 55.7999 169.221C55.7133 168.616 56.1461 167.923 56.7519 167.923C56.925 167.923 57.0115 167.923 57.1846 167.923C57.2711 167.923 57.2711 167.923 57.3577 167.923C57.4442 167.923 57.6173 167.923 57.7039 167.923C58.0501 167.923 58.4828 167.923 58.829 167.837C58.9155 167.837 59.0886 167.837 59.1752 167.837C60.3002 167.837 61.3388 167.923 62.2907 168.01C62.3773 168.01 62.3773 168.01 62.4638 168.01C63.0697 168.096 63.6754 168.183 64.1082 168.269C65.4929 173.029 66.4449 178.482 65.7525 181.943Z" fill="#EF3340"/>
<path d="M70.6857 191.463C70.6857 191.463 68.7816 187.915 60.6464 186.876C55.3672 186.617 50.0015 184.54 44.0299 182.895C39.7027 181.511 35.2023 185.578 36.3274 189.559L36.587 189.732C37.6256 193.194 41.347 196.05 46.28 197.002C53.0305 198.387 60.3003 197.002 65.8391 196.915C70.2529 196.483 72.0704 194.752 70.6857 191.463Z" fill="#303036"/>
<path d="M70.08 196.137C69.9069 196.396 69.7338 196.569 69.4742 196.742C69.3011 196.829 69.128 197.002 68.8683 197.089C68.4356 197.262 68.0029 197.435 67.4837 197.608C67.3106 197.694 67.1375 197.694 66.9644 197.694C66.7913 197.694 66.6182 197.781 66.4451 197.781C66.0989 197.867 65.6662 197.867 65.2335 197.954H65.1469C64.9738 197.954 64.8008 197.954 64.6277 197.954C64.4546 197.954 64.2815 197.954 64.1084 197.954C63.6757 197.954 63.2429 198.04 62.8102 198.04C62.6371 198.04 62.4641 198.04 62.291 198.04C62.1179 198.04 61.9448 198.04 61.7717 198.04C61.339 198.04 60.9063 198.127 60.4736 198.127C60.3005 198.127 60.1273 198.127 59.9543 198.127C59.7812 198.127 59.6081 198.127 59.435 198.127C59.0023 198.127 58.5696 198.214 58.1368 198.214C57.9638 198.214 57.7906 198.214 57.6175 198.214C57.4445 198.214 57.2714 198.214 57.0983 198.214C56.6656 198.214 56.2328 198.3 55.8001 198.3C55.627 198.3 55.454 198.3 55.2809 198.3C55.1078 198.3 54.9347 198.3 54.7616 198.3C54.3289 198.3 53.8961 198.3 53.4634 198.3C53.2903 198.3 53.1172 198.3 52.9442 198.3C52.7711 198.3 52.5979 198.3 52.4249 198.3C51.9921 198.3 51.5594 198.3 51.1267 198.214C50.9536 198.214 50.7805 198.214 50.6074 198.214C50.4344 198.214 50.2613 198.214 50.0882 198.214C49.6555 198.214 49.2227 198.127 48.79 198.04C48.6169 198.04 48.4438 198.04 48.2707 197.954C48.0976 197.954 47.9246 197.867 47.7515 197.867C47.3188 197.781 46.886 197.694 46.5398 197.608H46.4533C46.3668 197.608 46.2802 197.608 46.1937 197.521C46.1071 197.521 46.1071 197.521 46.0206 197.521C45.8475 197.521 45.6744 197.435 45.5013 197.435C45.0686 197.348 44.7224 197.175 44.2897 197.089C44.1166 197.002 43.9435 197.002 43.857 196.915C43.6839 196.829 43.5108 196.829 43.4242 196.742C42.9915 196.569 42.6453 196.396 42.2126 196.223C42.0395 196.137 41.8664 196.05 41.7799 195.963C41.6068 195.877 41.4337 195.79 41.3472 195.704C40.9144 195.444 40.5683 195.271 40.2221 195.011C40.049 194.925 39.8759 194.838 39.7894 194.752C39.6163 194.665 39.5297 194.579 39.3566 194.406C38.9239 194.146 38.5777 193.8 38.2316 193.454C38.0585 193.281 37.9719 193.194 37.7988 193.021C37.6258 192.848 37.5392 192.761 37.3661 192.588C36.9334 192.155 36.5872 191.636 36.3276 191.203C36.1545 190.944 36.0679 190.684 35.9814 190.511C35.8948 190.338 35.8083 190.078 35.7217 189.905C35.7217 189.819 35.6352 189.646 35.6352 189.559C35.4621 188.607 35.6352 187.569 36.1545 186.617C36.3276 186.27 36.5872 185.924 36.8468 185.665C37.0199 185.405 37.2796 185.232 37.4526 185.059C37.8854 184.713 38.4046 184.366 38.9239 184.107C39.097 184.02 39.2701 183.934 39.4432 183.847C39.6162 183.761 39.7894 183.761 39.9625 183.674C40.3952 183.588 40.8279 183.501 41.2606 183.501H41.7799L42.2992 183.588C42.5588 183.588 42.905 183.674 43.1646 183.761C43.2512 183.761 43.4242 183.847 43.5108 183.847C43.6839 183.934 43.857 183.934 44.0301 184.02C44.2032 184.107 44.3762 184.107 44.4628 184.193C44.8955 184.28 45.2417 184.453 45.6744 184.54C45.8475 184.626 46.0206 184.626 46.1937 184.713C46.3668 184.799 46.5398 184.799 46.7129 184.886C47.1457 184.972 47.4919 185.145 47.9246 185.232C48.0977 185.318 48.2707 185.318 48.4438 185.405L48.9631 185.578C49.3958 185.665 49.742 185.838 50.1747 185.924C50.3478 186.011 50.5209 186.011 50.694 186.097C50.8671 186.184 51.0402 186.184 51.2133 186.27C51.646 186.357 51.9921 186.53 52.4249 186.617C52.5979 186.617 52.7711 186.703 52.9442 186.703C53.1172 186.703 53.2903 186.79 53.4634 186.79C53.8961 186.876 54.2423 186.963 54.6751 187.049C54.8481 187.049 55.0212 187.136 55.1943 187.136C55.3674 187.136 55.5405 187.222 55.7136 187.222C56.1463 187.309 56.579 187.395 56.9252 187.482C57.0983 187.482 57.2714 187.569 57.4445 187.569C57.6176 187.569 57.7907 187.655 57.9637 187.655C58.3965 187.742 58.8292 187.742 59.1754 187.828C59.3485 187.828 59.5215 187.828 59.6946 187.828C59.8677 187.828 59.9543 187.828 60.1274 187.828H60.2139C60.6466 187.915 61.0793 187.915 61.4255 188.001C61.5986 188.001 61.7717 188.088 61.9448 188.088C62.1179 188.088 62.291 188.174 62.4641 188.174C62.8968 188.261 63.3295 188.347 63.6757 188.434L64.195 188.521C64.3681 188.521 64.5411 188.607 64.7142 188.607C65.1469 188.694 65.5797 188.867 65.9259 188.953C66.099 189.04 66.272 189.04 66.3586 189.126C66.5317 189.213 66.7048 189.213 66.7913 189.299C67.224 189.473 67.5702 189.732 67.9164 189.992C68.0895 190.078 68.176 190.251 68.3491 190.338C68.5222 190.425 68.6087 190.598 68.7818 190.684C69.128 191.03 69.4742 191.463 69.8204 191.896C69.9069 192.069 70.08 192.242 70.1665 192.415C70.1665 192.502 70.1665 192.502 70.2531 192.588C70.4262 192.934 70.5127 193.281 70.5992 193.627C70.6858 194.665 70.5127 195.531 70.08 196.137Z" fill="#303036"/>
<path d="M36.5869 191.549C36.4138 191.29 36.3273 191.03 36.2407 190.857C36.1542 190.684 36.0676 190.424 35.9811 190.251C35.9811 190.165 35.8945 189.991 35.8945 189.905L36.4138 186.962C36.5869 186.616 36.8465 186.27 37.1062 186.01C37.2793 185.751 37.5389 185.578 37.7119 185.405L36.5869 191.549Z" fill="#3D3D44"/>
<path d="M38.4904 193.8C38.3174 193.627 38.2308 193.54 38.0577 193.367C37.8846 193.194 37.7981 193.107 37.625 192.934L39.1828 184.28C39.3559 184.193 39.529 184.107 39.7021 184.02C39.8752 183.934 40.0483 183.934 40.2213 183.847L38.4904 193.8Z" fill="#3D3D44"/>
<path d="M40.4817 195.358C40.3086 195.271 40.1355 195.185 40.0489 195.098C39.8758 195.011 39.7893 194.925 39.6162 194.752L41.6067 183.761H42.126L42.6453 183.847L40.4817 195.358Z" fill="#3D3D44"/>
<path d="M42.5578 196.483C42.3847 196.396 42.2117 196.31 42.1251 196.223C41.952 196.136 41.7789 196.05 41.6924 195.963L43.856 184.02C44.0291 184.107 44.2022 184.107 44.3752 184.193C44.5483 184.28 44.7214 184.28 44.808 184.366L42.5578 196.483Z" fill="#3D3D44"/>
<path d="M44.7219 197.348C44.5488 197.261 44.3757 197.261 44.2892 197.175C44.1161 197.088 43.943 197.088 43.8564 197.002L46.1066 184.712C46.2797 184.799 46.4528 184.799 46.6259 184.886C46.799 184.972 46.972 184.972 47.1451 185.059L44.7219 197.348Z" fill="#3D3D44"/>
<path d="M49.1363 185.664L46.8862 197.954H46.7996L46.3669 197.867L45.8477 197.78L48.0978 185.405C48.2709 185.491 48.444 185.491 48.6171 185.578L49.1363 185.664Z" fill="#3D3D44"/>
<path d="M49.1362 198.3C48.9631 198.3 48.79 198.3 48.617 198.213C48.4439 198.213 48.2707 198.127 48.0977 198.127L50.3478 186.01C50.5209 186.097 50.694 186.097 50.8671 186.184C51.0402 186.27 51.2133 186.27 51.3864 186.357L49.1362 198.3Z" fill="#3D3D44"/>
<path d="M51.3862 198.473H50.8669H50.3477L52.5113 186.703C52.6844 186.703 52.8574 186.79 53.0305 186.79C53.2036 186.79 53.3767 186.876 53.5498 186.876L51.3862 198.473Z" fill="#3D3D44"/>
<path d="M53.6362 198.56H53.117H52.5977L54.6747 187.136C54.8478 187.136 55.0209 187.222 55.194 187.222C55.3671 187.222 55.5402 187.309 55.7133 187.309L53.6362 198.56Z" fill="#3D3D44"/>
<path d="M55.8862 198.473C55.7131 198.473 55.54 198.473 55.3669 198.473C55.1938 198.473 55.0207 198.473 54.8477 198.473L56.8382 187.482C57.0113 187.482 57.1843 187.569 57.3574 187.569C57.5305 187.569 57.7036 187.655 57.8767 187.655L55.8862 198.473Z" fill="#3D3D44"/>
<path d="M58.2231 198.387C58.05 198.387 57.877 198.387 57.7039 198.387C57.5308 198.387 57.3577 198.387 57.1846 198.387L59.0886 187.828C59.2617 187.828 59.4348 187.828 59.6079 187.828C59.781 187.828 59.8675 187.828 60.0406 187.828H60.1271L58.2231 198.387Z" fill="#3D3D44"/>
<path d="M60.56 198.213C60.3869 198.213 60.2139 198.213 60.0408 198.213C59.8677 198.213 59.6946 198.213 59.5215 198.213L61.339 188.001C61.512 188.001 61.6851 188.088 61.8582 188.088C62.0313 188.088 62.2044 188.174 62.3774 188.174L60.56 198.213Z" fill="#3D3D44"/>
<path d="M64.1076 188.52C64.2807 188.52 64.4538 188.607 64.6269 188.607L62.896 197.954C62.7229 197.954 62.5498 197.954 62.3767 197.954C62.2036 197.954 62.0305 197.954 61.8574 197.954L63.5883 188.261L64.1076 188.52Z" fill="#3D3D44"/>
<path d="M65.1469 197.954C64.9739 197.954 64.8008 197.954 64.6277 197.954C64.4546 197.954 64.2815 197.954 64.1084 197.954L65.7528 188.953C65.9259 189.04 66.0989 189.04 66.1855 189.127C66.3586 189.213 66.5317 189.213 66.6182 189.3L65.1469 197.954Z" fill="#3D3D44"/>
<path d="M67.4839 197.608C67.3108 197.694 67.1377 197.694 66.9646 197.694C66.7915 197.694 66.6184 197.781 66.4453 197.781L67.8301 190.078C68.0031 190.165 68.0897 190.338 68.2628 190.424C68.4359 190.511 68.5224 190.684 68.6955 190.77L67.4839 197.608Z" fill="#3D3D44"/>
<path d="M70.0798 196.136C69.9067 196.396 69.7336 196.569 69.474 196.742C69.3009 196.829 69.1278 197.002 68.8682 197.088L69.8202 192.069C69.9067 192.242 70.0798 192.415 70.1663 192.588C70.1663 192.675 70.1664 192.675 70.2529 192.761C70.426 193.107 70.5125 193.454 70.5991 193.8L70.0798 196.136Z" fill="#3D3D44"/>
<path d="M50.7801 172.943C50.6935 172.943 50.5204 172.856 50.4339 172.77C50.0877 172.51 50.0012 171.991 50.3473 171.645C51.9051 169.741 54.4149 168.962 57.7036 169.481C58.1364 169.568 58.4825 170 58.396 170.433C58.3094 170.866 57.8767 171.212 57.444 171.125C54.7611 170.693 52.8571 171.299 51.6455 172.683C51.3859 172.943 51.0397 173.029 50.7801 172.943Z" fill="white"/>
<path d="M58.0508 173.635C55.6275 173.116 53.4639 173.462 51.6465 174.933L58.0508 173.635Z" fill="#7A2250"/>
<path d="M51.4728 175.712C51.2997 175.712 51.1267 175.539 50.9536 175.452C50.6939 175.106 50.6939 174.587 51.1266 174.327C53.0306 172.77 55.3673 172.337 58.1368 172.856C58.2233 172.856 58.2233 172.856 58.3099 172.856C58.7426 172.943 59.0022 173.375 58.9156 173.808C58.8291 174.241 58.3964 174.5 57.9637 174.414C55.7135 173.895 53.8095 174.241 52.2517 175.539C51.9921 175.712 51.7325 175.712 51.4728 175.712Z" fill="white"/>
<path d="M58.3954 176.924C56.1453 176.232 54.1547 176.492 52.4238 177.617L58.3954 176.924Z" fill="#7A2250"/>
<path d="M52.2513 178.482C52.0782 178.482 51.8185 178.309 51.732 178.136C51.4724 177.79 51.5589 177.27 51.9916 177.011C53.9821 175.713 56.2323 175.453 58.6556 176.232C59.0883 176.405 59.3479 176.838 59.1749 177.27C59.0018 177.703 58.569 177.963 58.1363 177.79C56.1458 177.184 54.4149 177.357 52.8571 178.395C52.684 178.482 52.4244 178.482 52.2513 178.482Z" fill="white"/>
<path d="M86.0898 150.614C89.8978 149.056 100.456 148.97 101.668 150.614L102.793 154.768L88.1669 156.326L86.0898 150.614Z" fill="#AAB3C6"/>
<path d="M89.8984 159.528C89.3791 156.759 90.2445 154.249 91.8889 153.989C93.5332 153.643 95.2641 155.634 95.8699 158.403C96.3892 161.173 95.5237 163.682 93.8794 163.942C92.235 164.288 90.4176 162.298 89.8984 159.528Z" fill="#7A2250"/>
<path d="M90.8501 166.279C90.3308 166.106 85.3978 165.24 80.6379 164.375C78.907 164.115 78.2146 163.25 77.6953 163.077C77.9549 163.077 78.3877 162.99 78.6473 162.99C81.936 162.817 88.0807 163.769 88.6 163.682C91.4559 163.336 80.984 152.172 87.3883 150.787C87.648 150.701 92.1483 150.701 92.6675 152.951C93.6195 158.23 100.283 168.702 90.8501 166.279Z" fill="#EF3340"/>
<path d="M107.64 176.837C107.553 177.443 107.38 178.049 107.121 178.481C106.774 179.174 106.255 179.693 105.649 179.953C103.313 180.905 83.84 178.828 76.8299 176.577C75.7048 176.231 74.8394 175.885 74.4932 175.452C74.0605 175.02 73.6278 174.5 73.2816 173.894C73.1951 173.808 73.195 173.721 73.1085 173.635C73.022 173.462 72.9354 173.202 72.7623 172.942C72.7623 172.856 72.6758 172.769 72.6758 172.596C73.195 172.942 73.8874 173.289 74.6663 173.635C76.3106 171.038 78.8205 167.144 79.5994 166.365C86.696 168.615 98.0334 169.827 100.37 168.875C101.062 168.615 101.495 168.096 101.841 167.404C102.101 166.971 102.274 166.365 102.361 165.759C103.053 162.384 102.014 156.845 100.716 151.912C101.582 152.085 102.274 152.345 102.447 152.604C103.399 153.73 109.025 169.74 107.64 176.837Z" fill="#9E2966"/>
<path d="M95.6099 180.645C99.4178 181.597 98.2928 174.587 97.2542 169.135C96.9946 167.75 98.0332 166.452 99.4179 166.365C101.668 166.279 103.918 166.452 105.389 166.712C106.255 166.885 106.947 167.144 107.12 167.404C107.986 168.529 113.698 184.54 112.313 191.55C112.226 192.156 112.053 192.762 111.794 193.194C111.448 193.887 110.928 194.406 110.322 194.666C107.986 195.617 88.5132 193.54 81.5031 191.29C81.33 191.031 81.1569 190.858 81.0704 190.598C80.9838 190.511 80.9838 190.425 80.8973 190.338C80.8107 190.165 80.7242 189.906 80.5511 189.646C80.4645 189.386 80.5511 189.04 80.2915 188.867C79.9453 188.694 79.5991 188.607 79.3395 188.434C78.5606 188.088 77.9548 187.742 77.349 187.396C77.2624 187.223 77.2624 187.136 77.1759 186.963C76.0508 183.415 77.2624 178.914 82.282 177.876C82.3685 177.876 83.234 177.789 83.3205 177.789" fill="#7A2250"/>
<path d="M102.36 165.846C102.274 166.452 102.101 167.058 101.841 167.49C101.495 168.183 100.976 168.702 100.37 168.962C98.2062 169.827 88.3401 168.962 81.33 166.971C80.2914 166.711 79.0798 167.058 78.474 168.01C77.3489 169.567 75.8777 171.991 74.7526 173.722C73.9737 173.375 73.3678 173.029 72.762 172.683C72.6755 172.51 72.6755 172.423 72.589 172.25C71.4639 168.702 72.6755 164.202 77.6951 163.163C77.7816 163.163 90.4171 165.759 90.9364 165.846C95.004 166.885 93.4462 158.49 92.4077 153.037C92.3211 152.432 92.7539 151.826 93.3597 151.739C93.5328 151.739 93.6193 151.739 93.7924 151.739C93.879 151.739 93.8789 151.739 93.9655 151.739C94.052 151.739 94.2251 151.739 94.3117 151.739C94.6578 151.739 95.0905 151.739 95.4367 151.653C95.5233 151.653 95.6964 151.653 95.7829 151.653C96.908 151.653 97.9465 151.739 98.8985 151.826C98.9851 151.826 98.9851 151.826 99.0716 151.826C99.6774 151.912 100.283 151.999 100.716 152.085C102.014 156.932 103.053 162.384 102.36 165.846Z" fill="#EF3340"/>
<path d="M95.3507 154.422C95.1776 155.028 94.5717 155.461 93.9659 155.374C93.3601 155.287 92.9274 154.595 93.014 153.989C93.1005 153.383 93.7928 152.951 94.3987 153.037C95.091 153.124 95.5238 153.73 95.3507 154.422Z" fill="#3D3D44"/>
<path d="M95.9561 157.797C95.7831 158.403 95.1772 158.836 94.5714 158.749C93.9656 158.576 93.5329 157.97 93.6194 157.365C93.7925 156.759 94.3983 156.326 95.0041 156.413C95.6965 156.499 96.1292 157.105 95.9561 157.797Z" fill="#3D3D44"/>
<path d="M96.3888 161.173C96.2157 161.779 95.6098 162.211 95.004 162.125C94.3982 161.952 93.9655 161.346 94.052 160.74C94.1386 160.134 94.8309 159.701 95.4367 159.788C96.1291 159.875 96.4753 160.567 96.3888 161.173Z" fill="#3D3D44"/>
<path d="M107.294 175.366C107.294 175.366 105.39 171.817 97.2549 170.779C91.9757 170.519 86.6099 168.442 80.6383 166.798C76.3111 165.413 71.8107 169.481 72.9358 173.462L73.1954 173.635C74.234 177.097 77.9554 179.953 82.8884 180.905C89.6389 182.289 96.9087 180.905 102.448 180.818C106.775 180.385 108.679 178.654 107.294 175.366Z" fill="#303036"/>
<path d="M106.601 180.039C106.428 180.299 106.255 180.472 105.996 180.645C105.823 180.732 105.649 180.905 105.39 180.991C104.957 181.165 104.524 181.338 104.005 181.511C103.832 181.511 103.659 181.597 103.486 181.597C103.313 181.597 103.14 181.684 102.967 181.684C102.62 181.77 102.188 181.77 101.755 181.857H101.668C101.495 181.857 101.322 181.857 101.149 181.857C100.976 181.857 100.803 181.857 100.63 181.857C100.197 181.857 99.7644 181.943 99.3317 181.943C99.1586 181.943 98.9856 181.943 98.8125 181.943C98.6394 181.943 98.4663 181.943 98.2932 181.943C97.8604 181.943 97.4277 182.03 96.995 182.03C96.8219 182.03 96.6488 182.03 96.4757 182.03C96.3027 182.03 96.1296 182.03 95.9565 182.03C95.5238 182.03 95.0911 182.117 94.6583 182.117C94.4852 182.117 94.3121 182.117 94.139 182.117C93.9659 182.117 93.7929 182.117 93.6198 182.117C93.1871 182.117 92.7543 182.203 92.3216 182.203C92.1485 182.203 91.9754 182.203 91.8023 182.203C91.6292 182.203 91.4562 182.203 91.2831 182.203C90.8503 182.203 90.4176 182.203 89.9849 182.203C89.8118 182.203 89.6387 182.203 89.4656 182.203C89.2926 182.203 89.1194 182.203 88.9463 182.203C88.5136 182.203 88.0809 182.203 87.6482 182.117C87.4751 182.117 87.302 182.117 87.1289 182.117C86.9558 182.117 86.7827 182.117 86.6096 182.117C86.1769 182.117 85.7442 182.03 85.3115 181.943C85.1384 181.943 84.9653 181.943 84.7922 181.857C84.6191 181.857 84.4461 181.77 84.273 181.77C83.8402 181.684 83.4075 181.597 83.0613 181.511H82.9748C82.8883 181.511 82.8017 181.511 82.7151 181.424C82.6286 181.424 82.6286 181.424 82.5421 181.424C82.369 181.424 82.1959 181.338 82.0228 181.338C81.59 181.251 81.2439 181.078 80.8112 180.991C80.6381 180.905 80.465 180.905 80.3785 180.818C80.2054 180.732 80.0323 180.732 79.9457 180.645C79.513 180.472 79.1668 180.299 78.7341 180.126C78.561 180.039 78.3879 179.953 78.3014 179.866C78.1283 179.78 77.9552 179.693 77.8686 179.607C77.4359 179.347 77.0897 179.174 76.7436 178.914C76.5705 178.828 76.3974 178.741 76.3108 178.655C76.1378 178.568 76.0512 178.482 75.8781 178.309C75.4454 178.049 75.0992 177.703 74.753 177.357C74.58 177.183 74.4934 177.097 74.3203 176.924C74.1472 176.751 74.0607 176.664 73.8876 176.491C73.4549 176.058 73.1087 175.539 72.8491 175.106C72.676 174.847 72.5894 174.587 72.5029 174.414C72.4163 174.241 72.3298 173.981 72.2432 173.808C72.2432 173.722 72.1567 173.549 72.1567 173.462C71.9836 172.51 72.1567 171.472 72.676 170.52C72.849 170.173 73.1087 169.827 73.3683 169.568C73.5414 169.308 73.801 169.135 73.9741 168.962C74.4068 168.616 74.9261 168.269 75.4454 168.01C75.6185 167.923 75.7916 167.837 75.9646 167.75C76.1377 167.664 76.3109 167.664 76.4839 167.577C76.9167 167.49 77.3494 167.404 77.7821 167.404H78.3014L78.8206 167.49C79.0802 167.49 79.4264 167.577 79.6861 167.664C79.7726 167.664 79.9457 167.75 80.0323 167.75C80.2053 167.837 80.3784 167.837 80.5515 167.923C80.7246 168.01 80.8977 168.01 80.9842 168.096C81.4169 168.183 81.7631 168.356 82.1959 168.442C82.369 168.529 82.542 168.529 82.7151 168.616C82.8882 168.702 83.0613 168.702 83.2344 168.789C83.6671 168.875 84.0133 169.048 84.446 169.135C84.6191 169.221 84.7922 169.221 84.9653 169.308L85.4846 169.481C85.9173 169.568 86.2635 169.741 86.6962 169.827C86.8693 169.914 87.0424 169.914 87.2155 170C87.3885 170.087 87.5617 170.087 87.7348 170.173C88.1675 170.26 88.5136 170.433 88.9463 170.52C89.1194 170.52 89.2926 170.606 89.4656 170.606C89.6387 170.606 89.8118 170.693 89.9849 170.693C90.4176 170.779 90.7638 170.866 91.1965 170.952C91.3696 170.952 91.5427 171.039 91.7158 171.039C91.8889 171.039 92.0619 171.125 92.235 171.125C92.6678 171.212 93.1005 171.298 93.4467 171.385C93.6198 171.385 93.7928 171.472 93.9659 171.472C94.139 171.472 94.3121 171.558 94.4852 171.558C94.918 171.645 95.3506 171.645 95.6968 171.731C95.8699 171.731 96.043 171.731 96.2161 171.731C96.3892 171.731 96.4758 171.731 96.6488 171.731H96.7354C97.1681 171.818 97.6008 171.818 97.947 171.904C98.1201 171.904 98.2932 171.991 98.4663 171.991C98.6394 171.991 98.8125 172.077 98.9856 172.077C99.4183 172.164 99.851 172.25 100.197 172.337L100.716 172.424C100.89 172.424 101.063 172.51 101.236 172.51C101.668 172.597 102.101 172.77 102.447 172.856C102.62 172.943 102.794 172.943 102.88 173.029C103.053 173.116 103.226 173.116 103.313 173.202C103.746 173.376 104.092 173.635 104.438 173.895C104.611 173.981 104.698 174.154 104.871 174.241C105.044 174.328 105.13 174.501 105.303 174.587C105.649 174.933 105.996 175.366 106.342 175.799C106.428 175.972 106.601 176.145 106.688 176.318C106.688 176.405 106.688 176.405 106.775 176.491C106.948 176.837 107.034 177.183 107.121 177.53C107.207 178.568 107.121 179.434 106.601 180.039Z" fill="#303036"/>
<path d="M73.1953 175.366C73.0222 175.106 72.9357 174.846 72.8491 174.673C72.7626 174.5 72.6761 174.241 72.5895 174.068C72.5895 173.981 72.5029 173.808 72.5029 173.721L73.0222 170.779C73.1953 170.433 73.4549 170.086 73.7146 169.827C73.8877 169.567 74.1473 169.394 74.3204 169.221L73.1953 175.366Z" fill="#3D3D44"/>
<path d="M75.0988 177.616C74.9258 177.443 74.8392 177.356 74.6661 177.183C74.493 177.01 74.4065 176.923 74.2334 176.75L75.7912 168.096C75.9643 168.009 76.1374 167.923 76.3105 167.836C76.4836 167.75 76.6566 167.75 76.8297 167.663L75.0988 177.616Z" fill="#3D3D44"/>
<path d="M77.0901 179.174C76.917 179.087 76.7439 179.001 76.6573 178.914C76.4842 178.828 76.3977 178.741 76.2246 178.568L78.2152 167.577H78.7344L79.2537 167.663L77.0901 179.174Z" fill="#3D3D44"/>
<path d="M79.1672 180.299C78.9941 180.212 78.821 180.126 78.7345 180.039C78.5614 179.952 78.3883 179.866 78.3018 179.779L80.4654 167.836C80.6385 167.923 80.8115 167.923 80.9846 168.009C81.1577 168.096 81.3308 168.096 81.4173 168.182L79.1672 180.299Z" fill="#3D3D44"/>
<path d="M81.2434 181.164C81.0703 181.078 80.8972 181.078 80.8107 180.991C80.6376 180.905 80.4645 180.905 80.3779 180.818L82.6281 168.529C82.8012 168.615 82.9742 168.615 83.1473 168.702C83.3204 168.788 83.4935 168.788 83.6666 168.875L81.2434 181.164Z" fill="#3D3D44"/>
<path d="M85.6569 169.481L83.4067 181.77H83.3201L82.8874 181.683L82.3682 181.597L84.6183 169.221C84.7914 169.308 84.9645 169.308 85.1376 169.394L85.6569 169.481Z" fill="#3D3D44"/>
<path d="M85.6567 182.116C85.4836 182.116 85.3106 182.116 85.1375 182.03C84.9644 182.03 84.7913 181.943 84.6182 181.943L86.8684 169.827C87.0414 169.914 87.2145 169.914 87.3876 170C87.5607 170.087 87.7338 170.087 87.9069 170.173L85.6567 182.116Z" fill="#3D3D44"/>
<path d="M87.9076 182.376H87.3884H86.8691L89.0328 170.606C89.2058 170.606 89.3789 170.692 89.552 170.692C89.7251 170.692 89.8982 170.779 90.0713 170.779L87.9076 182.376Z" fill="#3D3D44"/>
<path d="M90.1577 182.462H89.6384H89.1191L91.2828 171.038C91.4558 171.038 91.6289 171.125 91.802 171.125C91.9751 171.125 92.1482 171.212 92.3213 171.212L90.1577 182.462Z" fill="#3D3D44"/>
<path d="M92.4946 182.376C92.3215 182.376 92.1484 182.376 91.9753 182.376C91.8022 182.376 91.6291 182.376 91.4561 182.376L93.4466 171.385C93.6197 171.385 93.7927 171.472 93.9658 171.472C94.1389 171.472 94.312 171.558 94.4851 171.558L92.4946 182.376Z" fill="#3D3D44"/>
<path d="M94.7446 182.289C94.5715 182.289 94.3984 182.289 94.2254 182.289C94.0523 182.289 93.8791 182.289 93.7061 182.289L95.61 171.731C95.7831 171.731 95.9562 171.731 96.1293 171.731C96.3024 171.731 96.3889 171.731 96.562 171.731H96.6486L94.7446 182.289Z" fill="#3D3D44"/>
<path d="M97.0805 182.116C96.9074 182.116 96.7343 182.116 96.5612 182.116C96.3881 182.116 96.2151 182.116 96.042 182.116L97.8594 171.904C98.0325 171.904 98.2056 171.991 98.3787 171.991C98.5518 171.991 98.7249 172.077 98.898 172.077L97.0805 182.116Z" fill="#3D3D44"/>
<path d="M100.63 172.51C100.803 172.51 100.976 172.596 101.149 172.596L99.4184 181.943C99.2453 181.943 99.0722 181.943 98.8991 181.943C98.726 181.943 98.553 181.943 98.3799 181.943L100.111 172.25L100.63 172.51Z" fill="#3D3D44"/>
<path d="M101.755 181.857C101.582 181.857 101.409 181.857 101.236 181.857C101.063 181.857 100.89 181.857 100.717 181.857L102.361 172.856C102.534 172.942 102.707 172.942 102.794 173.029C102.967 173.116 103.14 173.116 103.227 173.202L101.755 181.857Z" fill="#3D3D44"/>
<path d="M104.091 181.51C103.918 181.51 103.745 181.597 103.572 181.597C103.399 181.597 103.226 181.683 103.053 181.683L104.437 173.981C104.611 174.067 104.697 174.241 104.87 174.327C105.043 174.414 105.13 174.587 105.303 174.673L104.091 181.51Z" fill="#3D3D44"/>
<path d="M106.601 180.039C106.428 180.299 106.255 180.472 105.995 180.645C105.822 180.731 105.649 180.904 105.39 180.991L106.342 175.971C106.428 176.145 106.601 176.318 106.688 176.491C106.688 176.577 106.688 176.577 106.774 176.664C106.947 177.01 107.034 177.356 107.121 177.702L106.601 180.039Z" fill="#3D3D44"/>
<path d="M86.4363 157.884C86.3498 157.884 86.1767 157.797 86.0901 157.71C85.7439 157.451 85.6574 156.932 86.0036 156.585C87.5614 154.681 91.0232 152.864 94.2253 153.383C94.6581 153.47 95.0042 153.903 94.9177 154.335C94.8311 154.768 94.3984 155.114 93.9657 155.028C91.4559 154.681 88.5999 156.066 87.3018 157.71C87.0421 157.884 86.6959 157.97 86.4363 157.884Z" fill="white"/>
<path d="M94.6583 157.538C92.2351 157.018 89.6387 158.23 87.8213 159.701L94.6583 157.538Z" fill="#7A2250"/>
<path d="M87.6486 160.48C87.4755 160.48 87.3024 160.307 87.1293 160.221C86.8697 159.874 86.8697 159.355 87.3024 159.096C88.5141 158.144 91.5431 156.066 94.7453 156.759H94.8318C95.2645 156.845 95.5241 157.278 95.4376 157.711C95.3511 158.144 94.9184 158.403 94.4856 158.317C94.4856 158.317 94.4856 158.317 94.3991 158.317C91.8893 157.797 89.2929 159.528 88.3409 160.307C88.1678 160.48 87.9082 160.567 87.6486 160.48Z" fill="white"/>
<path d="M94.9185 160.827C92.6683 160.134 90.6778 161.086 88.8604 162.298L94.9185 160.827Z" fill="#7A2250"/>
<path d="M88.7737 163.077C88.6006 163.077 88.341 162.903 88.2544 162.73C87.9948 162.384 88.0813 161.865 88.5141 161.605C90.245 160.48 92.5817 159.269 95.2645 160.047C95.6973 160.221 95.9569 160.653 95.7838 161.086C95.6108 161.519 95.178 161.778 94.7453 161.605C92.7548 160.999 90.9373 161.951 89.3795 162.903C89.2064 163.077 88.9468 163.077 88.7737 163.077Z" fill="white"/>
<path d="M166.009 166.519C160.556 175.866 148.786 183.222 135.545 191.704C111.226 205.637 88.5511 217.407 69.0786 225.023C68.2997 225.37 67.5208 225.629 66.7419 226.062C53.3275 232.985 27.9699 233.505 14.5554 226.668C-0.157157 220.09 3.21812 207.022 8.15116 204.166C12.6515 201.483 28.316 201.57 34.6338 199.32C35.3262 199.06 36.1051 198.8 36.7974 198.627C38.0956 198.281 39.9996 197.502 42.5094 196.377C46.2308 194.733 51.0773 192.309 56.7893 189.367C64.7514 185.213 74.1847 180.02 83.8778 174.395C88.4646 171.712 93.2246 168.942 97.8114 166.173C108.63 159.596 119.274 152.932 127.929 146.874C149.479 131.209 180.721 142.2 166.009 166.519Z" fill="#454A4D"/>
<path d="M98.3311 175.519L82.3203 184.866L83.8781 174.394C88.465 171.711 93.2249 168.942 97.8118 166.173C97.9849 170.413 98.3311 175.519 98.3311 175.519Z" fill="#101B23"/>
<path d="M57.0489 196.464L41.0381 205.81L42.4228 196.377C46.1442 194.733 50.9907 192.309 56.7027 189.367C56.8757 193.002 57.0489 196.464 57.0489 196.464Z" fill="#101B23"/>
<path d="M169.903 157.345C171.721 140.815 147.575 136.142 129.141 149.383C103.523 167.038 61.982 190.319 43.8076 198.627C43.1153 198.973 42.4229 199.233 41.817 199.492C39.4803 200.531 37.6629 201.223 36.4513 201.483C35.8455 201.656 35.1531 201.829 34.5473 202.089C31.3452 203.127 25.1139 203.3 19.2289 203.646C13.0842 203.993 7.19919 204.425 5.38176 206.156C1.31416 210.224 1.05451 221.648 16.0267 228.312C23.383 232.033 33.8549 234.024 43.9807 234.024C50.9042 234.024 57.7413 232.985 63.3667 230.995C65.011 230.389 66.6554 229.696 68.0401 228.917C88.032 221.388 111.312 209.445 136.41 195.252C136.67 195.079 136.93 194.992 137.103 194.819C142.209 191.53 146.882 188.155 150.95 184.78C157.527 179.327 162.633 173.615 166.095 167.817C168.345 163.922 169.557 160.461 169.903 157.345Z" fill="#694F62"/>
<path d="M77.9928 195.858C83.3585 183.395 92.2726 174.395 102.398 166.519C80.416 179.847 56.5297 192.829 43.8076 198.627C43.1153 198.973 42.4229 199.233 41.817 199.493C39.4803 200.531 37.6629 201.223 36.4513 201.483C35.8455 201.656 35.1531 201.829 34.5473 202.089C31.3452 203.127 25.1139 203.3 19.2289 203.647C13.0842 203.993 7.19919 204.426 5.38176 206.156C1.31416 210.224 1.05451 221.648 16.0267 228.312C23.383 232.033 33.8549 234.024 43.9807 234.024C50.9042 234.024 57.7413 232.985 63.3667 230.995C65.011 230.389 66.6554 229.697 68.0401 228.918C70.9826 227.793 74.0982 226.581 77.2138 225.196C71.9346 217.234 74.3579 204.685 77.9928 195.858Z" fill="#A9B1D1"/>
<path d="M129.141 149.383C121.352 154.749 112.005 160.72 102.312 166.519C92.186 174.308 83.2719 183.395 77.9061 195.858C74.2712 204.685 71.9345 217.234 77.0407 225.196C94.8689 217.667 114.861 207.281 136.237 195.165C136.497 194.992 136.757 194.906 136.93 194.732C142.036 191.444 146.709 188.069 150.777 184.693C157.354 179.241 162.46 173.529 165.922 167.731C168.259 163.836 169.557 160.374 169.817 157.259C171.721 140.902 147.575 136.142 129.141 149.383Z" fill="#C1C6DB"/>
<g opacity="0.95">
<path opacity="0.95" d="M63.2804 230.995C57.655 233.072 50.8179 234.024 43.8943 234.024C37.1438 229.351 27.7105 220.437 19.1426 203.647C25.0276 203.301 31.2588 203.128 34.4609 202.089C35.0668 201.916 35.7591 201.656 36.3649 201.483C37.5766 201.137 39.394 200.445 41.7307 199.493C41.8173 199.579 41.9038 199.666 41.9038 199.666L63.2804 230.995Z" fill="#AAB3C6"/>
</g>
<g opacity="0.53">
<path opacity="0.53" d="M150.863 184.78C146.622 188.328 141.689 191.79 136.323 195.252C133.987 190.838 130.438 184.866 125.246 177.77C113.908 162.105 116.332 161.845 118.668 157.605L150.43 183.135L150.863 184.78Z" fill="#AAB3C6"/>
</g>
<path d="M130.438 156.739L135.112 162.192L122.909 172.231L117.37 166.173L130.438 156.739Z" fill="#D7932A"/>
<path d="M129.746 157.432C131.044 159.769 129.486 163.144 126.284 165.048C122.996 166.952 119.274 166.952 117.889 164.615C116.591 162.278 118.149 158.557 121.438 156.653C124.64 154.749 128.361 155.095 129.746 157.432Z" fill="#2F3438"/>
<path d="M120.053 167.644C118.582 167.298 117.37 166.519 116.678 165.307C114.947 162.278 116.764 157.864 120.659 155.528C124.64 153.191 129.054 153.797 130.785 156.739C132.516 159.768 130.785 163.836 126.804 166.173C124.986 167.211 122.996 167.817 121.178 167.73C120.832 167.73 120.486 167.73 120.053 167.644ZM126.717 156.912C125.419 156.653 123.688 156.912 122.044 157.864C119.274 159.509 118.149 162.451 119.015 164.009C119.534 164.874 120.572 165.134 121.351 165.134C122.649 165.221 124.207 164.788 125.592 163.922C128.188 162.451 129.573 159.768 128.621 158.124C128.188 157.432 127.496 157.085 126.717 156.912Z" fill="#EDB930"/>
<path d="M55.318 211.782L57.3085 215.417C58.6067 217.84 57.7413 220.783 55.318 222.081L48.3079 225.889C45.8846 227.187 42.9421 226.321 41.644 223.898L39.6534 220.263C38.3552 217.84 39.2207 214.898 41.644 213.599L48.6541 209.791C50.9908 208.493 54.0199 209.359 55.318 211.782Z" fill="#343743"/>
<path d="M55.6642 213.166L57.9144 216.628C59.3856 218.878 58.7798 221.907 56.5296 223.465L49.8657 227.879C47.6156 229.35 44.5865 228.744 43.0287 226.494L40.7785 223.033C39.3073 220.782 39.9131 217.753 42.1632 216.195L48.8272 211.782C51.0774 210.31 54.1929 210.916 55.6642 213.166Z" fill="#6D7184"/>
<path d="M64.5782 233.159C65.7898 235.669 64.0588 238.957 60.8567 240.515C57.568 242.073 54.0197 241.294 52.808 238.784C51.5964 236.275 53.3273 232.986 56.5295 231.428C59.8182 229.87 63.3665 230.649 64.5782 233.159Z" fill="#D7932A"/>
<path d="M55.837 242.246C54.0196 241.9 52.4618 240.775 51.6829 239.217C50.2116 236.101 52.1156 232.12 56.0101 230.303C57.8276 229.437 59.8181 229.178 61.549 229.524C63.453 229.957 64.9242 230.995 65.6166 232.553C67.0878 235.669 65.1839 239.65 61.2893 241.467C59.4719 242.419 57.5679 242.679 55.837 242.246ZM61.0297 231.947C59.8181 231.688 58.3469 231.861 57.0487 232.553C54.4523 233.765 52.9811 236.361 53.933 238.265C54.7985 240.169 57.741 240.688 60.3374 239.39C62.9337 238.178 64.405 235.582 63.453 233.678C63.0202 232.813 62.2413 232.207 61.0297 231.947Z" fill="#D7932A"/>
<path d="M58.8666 224.59L64.2324 230.822L52.6354 240.342L46.8369 234.11L58.8666 224.59Z" fill="#D7932A"/>
<path d="M52.6353 240.601L46.5771 234.111L58.8665 224.331L64.4919 230.822L52.6353 240.601ZM47.0964 234.111L52.7219 240.169L64.0592 230.822L58.8665 224.764L47.0964 234.111Z" fill="#D7932A"/>
<path d="M58.6061 225.889C59.9042 227.966 58.6061 231.254 55.577 233.158C52.5479 235.062 48.9996 235.235 47.6149 233.158C46.3167 231.081 47.7015 227.533 50.7305 225.542C53.673 223.638 57.2214 223.811 58.6061 225.889Z" fill="#101B23"/>
<path d="M49.5191 235.755C48.221 235.495 47.269 234.803 46.6632 233.851C44.9323 231.168 46.4901 227.014 50.125 224.677C53.7598 222.34 57.9139 222.6 59.5583 225.283C61.2892 227.966 59.7314 231.86 56.1831 234.11C54.5387 235.149 52.6347 235.755 50.9904 235.841C50.4711 235.841 49.9519 235.841 49.5191 235.755ZM55.9235 225.456C54.6253 225.196 52.8078 225.542 51.25 226.581C48.5671 228.312 47.6151 231.168 48.4806 232.639C48.9998 233.504 50.2115 233.591 50.8173 233.591C52.0289 233.591 53.5002 233.072 54.7983 232.206C57.2216 230.648 58.5198 228.052 57.4812 226.494C57.3082 225.975 56.7024 225.629 55.9235 225.456Z" fill="#101B23"/>
<path d="M52.1158 230.649C51.7696 230.562 51.4234 230.389 51.0772 230.129L38.009 216.888C37.2301 216.109 37.2301 214.811 38.009 214.032C38.7879 213.253 40.086 213.253 40.8649 214.032L53.9332 227.273C54.7121 228.052 54.7121 229.35 53.9332 230.129C53.4139 230.562 52.7216 230.822 52.1158 230.649Z" fill="#101B23"/>
<path d="M44.2406 211.349C45.6253 213.686 43.981 217.148 40.6923 219.052C37.4036 220.956 33.6821 220.523 32.2974 218.186C30.9127 215.85 32.5571 212.388 35.8458 210.484C39.1345 208.58 42.9425 208.926 44.2406 211.349Z" fill="#D7932A"/>
<path d="M34.9799 221.215C33.3355 220.869 32.0374 220.004 31.2585 218.706C30.393 217.234 30.393 215.417 31.2585 213.6C32.0374 211.955 33.4221 210.397 35.2395 209.359C37.0569 208.32 39.0475 207.888 40.8649 208.061C42.8554 208.234 44.4132 209.186 45.2787 210.744C46.1441 212.215 46.1441 214.032 45.2787 215.85C44.4998 217.494 43.1151 219.052 41.2976 220.09C39.4802 221.129 37.4897 221.562 35.6722 221.389C35.4126 221.302 35.2395 221.302 34.9799 221.215ZM41.1245 210.57C40.9514 210.57 40.8649 210.484 40.6918 210.484C39.3936 210.311 37.8358 210.657 36.5377 211.436C35.2395 212.215 34.1144 213.34 33.5086 214.552C32.9893 215.677 32.9894 216.629 33.4221 217.494C33.8548 218.273 34.8068 218.792 35.9318 218.965C37.23 219.138 38.7878 218.792 40.086 218.013C41.4707 217.234 42.5092 216.109 43.115 214.898C43.6343 213.773 43.6343 212.821 43.2016 211.955C42.7689 211.263 42.0765 210.744 41.1245 210.57Z" fill="#D7932A"/>
<path d="M39.6528 204.166L44.3262 209.705L32.1235 219.658L26.498 213.686L39.6528 204.166Z" fill="#D7932A"/>
<path d="M38.5282 204.599C39.8264 206.935 38.2686 210.311 35.0664 212.215C31.7777 214.119 28.0563 214.119 26.6716 211.782C25.3734 209.445 26.9312 205.724 30.2199 203.82C33.5086 202.002 37.23 202.349 38.5282 204.599Z" fill="#2F3438"/>
<path d="M28.9219 214.811C27.4506 214.465 26.239 213.686 25.4601 212.474C23.7292 209.445 25.5466 205.032 29.4412 202.695C31.2586 201.656 33.2492 201.137 35.1531 201.31C37.1437 201.483 38.788 202.435 39.6534 203.906C40.5189 205.378 40.5189 207.282 39.6534 209.099C38.8745 210.744 37.4898 212.301 35.6724 213.34C33.3357 214.811 30.9124 215.244 28.9219 214.811ZM35.4993 204.08C35.3262 204.08 35.1531 203.993 34.98 203.993C33.6819 203.906 32.2106 204.253 30.8259 205.032C28.0565 206.676 26.9314 209.618 27.7968 211.176C28.6623 212.734 31.6913 212.647 34.3742 211.176C35.6724 210.397 36.7975 209.272 37.3168 208.147C37.5764 207.541 38.0091 206.416 37.4033 205.378C36.9706 204.512 36.1051 204.253 35.4993 204.08Z" fill="#EDB930"/>
<path d="M46.1438 224.764C45.6246 224.677 45.1053 224.418 44.7591 223.985C43.8071 222.946 43.8072 221.215 44.9322 220.263L48.3074 217.148C49.346 216.196 51.0769 216.196 52.0289 217.321C52.9809 218.359 52.9809 220.09 51.8558 221.042L48.4805 224.158C47.8747 224.764 47.0093 224.937 46.1438 224.764Z" fill="#101B23"/>
<path opacity="0.3" d="M65.5391 329.777C65.5391 331.52 59.5904 333.828 52.4622 333.828C45.3339 333.828 39.5391 332.392 39.5391 330.649C39.5391 328.905 45.3339 327.469 52.4622 327.469C59.5904 327.52 65.5391 328.033 65.5391 329.777Z" fill="#8C7263"/>
<path d="M67.6417 300.649C67.6417 301.623 62.2058 302.393 55.5391 302.393C48.8211 302.393 43.4365 301.623 43.4365 300.649C43.4365 299.675 48.8724 298.905 55.5391 298.905C62.2058 298.854 67.6417 299.675 67.6417 300.649Z" fill="#C6C4A2"/>
<path d="M50.3076 299.572C50.3076 299.572 58.2051 298.495 66.2564 300.495C66.2564 300.495 65.6922 301.008 65.0769 301.059C64.4615 301.111 59.3333 299.162 50.3076 299.572Z" fill="#FBF9DC"/>
<path d="M58.3594 269.264C57.4363 271.521 56.7184 274.033 56.2568 276.854C57.4876 275.008 58.9235 273.469 60.5132 272.187C60.2568 271.88 59.9492 271.367 59.6415 270.905C59.0261 270.136 58.462 269.264 58.3594 269.264Z" fill="#89A262"/>
<path d="M72.8728 253.264C72.8728 253.264 70.6677 254.239 67.7959 256.495C67.2831 256.905 68.2574 260.29 67.6933 260.803H67.642C67.4882 260.803 67.0267 260.239 66.5651 259.675C66.1036 259.11 65.642 258.598 65.4882 258.546H65.4369C63.4369 260.495 61.3343 263.11 59.642 266.393C59.3343 266.957 60.6164 270.29 60.9241 271.828C61.642 271.316 62.36 270.854 63.1292 270.495L68.8728 271.316C69.7959 269.213 70.6164 267.059 71.2831 264.957C71.2831 264.905 71.2831 264.905 71.1805 264.905C70.8215 264.854 69.5908 265.162 68.36 265.521C67.1292 265.828 65.8472 266.187 65.5395 266.136C65.4882 266.136 65.4369 266.085 65.4369 266.085C65.642 265.418 72.1036 262.187 72.2574 261.469C72.9241 258.546 73.1805 255.777 72.8728 253.264Z" fill="#89A262"/>
<path d="M63.1288 270.598C62.3596 270.957 61.5904 271.418 60.9237 271.931C60.975 272.239 60.975 272.495 60.9237 272.598C60.8724 272.598 60.7186 272.444 60.5647 272.187C58.975 273.418 57.5391 275.008 56.3083 276.854C55.5904 281.316 55.5903 286.546 56.7186 292.598C56.7186 292.598 64.1032 282.495 68.9237 271.367L63.1288 270.598Z" fill="#788F50"/>
<path d="M38 255.982C38 255.982 39.3846 264.187 40.1026 266.803C40.1026 266.803 40.9744 272.956 43.6923 280.136C46.1539 286.7 49.7949 294.392 52.2564 302.29C52.6667 302.29 53.0769 302.341 53.4872 302.341C52.0513 290.495 48.2051 268.649 38 255.982Z" fill="#89A262"/>
<path d="M49.3335 282.136C44.9745 268.085 41.2822 264.905 41.2822 264.905C41.2822 264.905 44.3592 272.854 47.0771 280.033C49.5387 286.597 50.6669 294.392 52.4105 302.341C52.7181 302.341 52.9745 302.341 53.2822 302.392C52.513 296.803 51.2822 289.213 49.3335 282.136Z" fill="#788F50"/>
<path d="M56.0514 302.392C57.6411 284.803 59.0258 252.238 50.1027 233.828C50.1027 233.828 49.0257 277.213 52.3078 302.29C53.3334 302.341 54.4104 302.341 55.5386 302.341C55.6924 302.392 55.8976 302.392 56.0514 302.392Z" fill="#ABC784"/>
<path d="M79.2304 277.931C77.333 277.675 69.4355 275.059 69.4355 275.059C67.2304 276.649 62.0509 290.034 57.6406 302.393C57.9996 302.393 58.4099 302.393 58.7688 302.341C64.2047 290.957 70.256 280.29 70.2047 282.034C70.1022 285.059 83.0253 304.547 83.0253 304.547C83.7432 298.598 79.2304 277.931 79.2304 277.931Z" fill="#ABC784"/>
<path d="M52.8717 248.341C52.8717 248.341 54.8717 268.187 54.6153 268.751C54.3589 269.316 52.4102 264.957 52.4102 264.957C52.4102 264.957 56.0512 276.751 55.6922 279.623C55.4358 281.726 54.8204 295.418 54.5127 302.393C54.6153 302.393 54.7178 302.393 54.8204 302.393C55.8973 292.085 58.1025 264.546 52.8717 248.341Z" fill="#788F50"/>
<path d="M69.9493 281.162C69.9493 281.162 69.4365 278.341 69.4365 276.7C69.4365 276.7 62.4109 287.931 58.3596 302.392C58.3083 302.392 67.4365 282.495 69.9493 281.162Z" fill="#788F50"/>
<path d="M78.6671 278.649C78.6671 278.649 81.0261 288.546 80.2055 288.341C79.385 288.085 76.6671 277.777 76.3594 280.854C76.0517 283.931 70.3594 276.752 70.3594 276.752C70.3594 276.752 72.6158 275.982 78.6671 278.649Z" fill="#788F50"/>
<path d="M43.4355 300.649L45.7945 329.88C45.7945 329.88 48.1535 332.649 54.9227 332.649C61.3843 332.649 65.2304 329.572 65.2304 329.572L67.5381 300.956C66.5638 301.777 61.5894 302.444 55.5894 302.444C48.8202 302.392 43.4355 301.623 43.4355 300.649Z" fill="#FBF9DC"/>
<path d="M43.4355 300.649L45.7945 329.88C45.7945 329.88 48.1535 332.649 54.9227 332.649C61.3843 332.649 65.2304 329.572 65.2304 329.572L65.2817 328.957C63.8971 329.777 61.9997 330.392 59.2817 330.341C51.7945 330.187 49.9484 309.572 49.5381 302.187C45.8458 301.88 43.4355 301.315 43.4355 300.649Z" fill="#EFE9B2"/>
<path d="M65.0257 304.136C65.0257 304.136 57.5385 306.238 49.6924 305.264C49.7437 305.931 49.795 306.597 49.8975 307.315C53.1796 307.315 61.5386 306.956 65.0257 304.136Z" fill="#E7E6B8"/>
<path d="M48.3074 328.034C48.3074 328.034 50.6151 332.444 61.8459 331.213C61.8459 331.213 51.4869 331.726 50.6151 327.162C49.7433 322.598 48.5125 307.316 48.5125 307.316C48.5125 307.316 49.0253 307.316 49.8971 307.316C49.8458 306.598 49.7433 305.88 49.692 305.264C48.2561 305.059 46.7689 304.751 45.333 304.341L48.3074 328.034Z" fill="#DBD697"/>
<circle cx="34" cy="167" r="34" fill="white"/>
<path d="M19.3041 161.719C19.2481 161.817 19.1874 161.889 19.1221 161.936C19.0614 161.978 18.9844 161.999 18.8911 161.999C18.7931 161.999 18.6858 161.964 18.5691 161.894C18.4571 161.819 18.3218 161.738 18.1631 161.649C18.0044 161.56 17.8178 161.481 17.6031 161.411C17.3931 161.336 17.1434 161.299 16.8541 161.299C16.5928 161.299 16.3641 161.332 16.1681 161.397C15.9721 161.458 15.8064 161.544 15.6711 161.656C15.5404 161.768 15.4424 161.903 15.3771 162.062C15.3118 162.216 15.2791 162.386 15.2791 162.573C15.2791 162.811 15.3444 163.009 15.4751 163.168C15.6104 163.327 15.7878 163.462 16.0071 163.574C16.2264 163.686 16.4761 163.786 16.7561 163.875C17.0361 163.964 17.3231 164.059 17.6171 164.162C17.9111 164.26 18.1981 164.377 18.4781 164.512C18.7581 164.643 19.0078 164.811 19.2271 165.016C19.4464 165.217 19.6214 165.464 19.7521 165.758C19.8874 166.052 19.9551 166.409 19.9551 166.829C19.9551 167.286 19.8758 167.716 19.7171 168.117C19.5631 168.514 19.3344 168.861 19.0311 169.16C18.7324 169.454 18.3661 169.687 17.9321 169.86C17.4981 170.028 17.0011 170.112 16.4411 170.112C16.1191 170.112 15.8018 170.079 15.4891 170.014C15.1764 169.953 14.8754 169.865 14.5861 169.748C14.3014 169.631 14.0331 169.491 13.7811 169.328C13.5291 169.165 13.3051 168.983 13.1091 168.782L13.6621 167.879C13.7088 167.814 13.7694 167.76 13.8441 167.718C13.9188 167.671 13.9981 167.648 14.0821 167.648C14.1988 167.648 14.3248 167.697 14.4601 167.795C14.5954 167.888 14.7564 167.993 14.9431 168.11C15.1298 168.227 15.3468 168.334 15.5941 168.432C15.8461 168.525 16.1471 168.572 16.4971 168.572C17.0338 168.572 17.4491 168.446 17.7431 168.194C18.0371 167.937 18.1841 167.571 18.1841 167.095C18.1841 166.829 18.1164 166.612 17.9811 166.444C17.8504 166.276 17.6754 166.136 17.4561 166.024C17.2368 165.907 16.9871 165.809 16.7071 165.73C16.4271 165.651 16.1424 165.564 15.8531 165.471C15.5638 165.378 15.2791 165.266 14.9991 165.135C14.7191 165.004 14.4694 164.834 14.2501 164.624C14.0308 164.414 13.8534 164.153 13.7181 163.84C13.5874 163.523 13.5221 163.133 13.5221 162.671C13.5221 162.302 13.5944 161.943 13.7391 161.593C13.8884 161.243 14.1031 160.933 14.3831 160.662C14.6631 160.391 15.0084 160.174 15.4191 160.011C15.8298 159.848 16.3011 159.766 16.8331 159.766C17.4304 159.766 17.9811 159.859 18.4851 160.046C18.9891 160.233 19.4184 160.494 19.7731 160.83L19.3041 161.719ZM21.7287 170.021C21.6494 170.236 21.521 170.397 21.3437 170.504C21.171 170.611 20.9937 170.665 20.8117 170.665H20.0767L24.1647 160.207C24.2394 160.011 24.3537 159.862 24.5077 159.759C24.6617 159.652 24.8414 159.598 25.0467 159.598H25.7887L21.7287 170.021ZM40.7411 167.24C41.0611 167.24 41.3131 167.332 41.4971 167.516C41.6891 167.692 41.7851 167.928 41.7851 168.224V170H29.8811V169.016C29.8811 168.816 29.9211 168.608 30.0011 168.392C30.0891 168.168 30.2251 167.968 30.4091 167.792L35.6771 162.512C36.1171 162.064 36.5091 161.636 36.8531 161.228C37.2051 160.82 37.4971 160.416 37.7291 160.016C37.9611 159.616 38.1371 159.212 38.2571 158.804C38.3851 158.388 38.4491 157.952 38.4491 157.496C38.4491 157.08 38.3891 156.716 38.2691 156.404C38.1491 156.084 37.9771 155.816 37.7531 155.6C37.5371 155.384 37.2731 155.224 36.9611 155.12C36.6571 155.008 36.3131 154.952 35.9291 154.952C35.5771 154.952 35.2491 155.004 34.9451 155.108C34.6491 155.204 34.3851 155.344 34.1531 155.528C33.9211 155.704 33.7251 155.912 33.5651 156.152C33.4051 156.392 33.2851 156.656 33.2051 156.944C33.0691 157.312 32.8931 157.556 32.6771 157.676C32.4611 157.796 32.1491 157.824 31.7411 157.76L30.1811 157.484C30.3011 156.652 30.5331 155.924 30.8771 155.3C31.2211 154.668 31.6491 154.144 32.1611 153.728C32.6811 153.304 33.2731 152.988 33.9371 152.78C34.6091 152.564 35.3291 152.456 36.0971 152.456C36.8971 152.456 37.6291 152.576 38.2931 152.816C38.9571 153.048 39.5251 153.38 39.9971 153.812C40.4691 154.244 40.8371 154.764 41.1011 155.372C41.3651 155.98 41.4971 156.656 41.4971 157.4C41.4971 158.04 41.4011 158.632 41.2091 159.176C41.0251 159.72 40.7731 160.24 40.4531 160.736C40.1411 161.232 39.7731 161.712 39.3491 162.176C38.9251 162.64 38.4811 163.112 38.0171 163.592L34.1051 167.588C34.4811 167.476 34.8531 167.392 35.2211 167.336C35.5971 167.272 35.9531 167.24 36.2891 167.24H40.7411ZM55.411 161.324C55.411 162.836 55.247 164.152 54.919 165.272C54.599 166.384 54.151 167.304 53.575 168.032C53.007 168.76 52.331 169.304 51.547 169.664C50.771 170.016 49.931 170.192 49.027 170.192C48.123 170.192 47.283 170.016 46.507 169.664C45.739 169.304 45.071 168.76 44.503 168.032C43.935 167.304 43.491 166.384 43.171 165.272C42.851 164.152 42.691 162.836 42.691 161.324C42.691 159.804 42.851 158.488 43.171 157.376C43.491 156.264 43.935 155.344 44.503 154.616C45.071 153.888 45.739 153.348 46.507 152.996C47.283 152.636 48.123 152.456 49.027 152.456C49.931 152.456 50.771 152.636 51.547 152.996C52.331 153.348 53.007 153.888 53.575 154.616C54.151 155.344 54.599 156.264 54.919 157.376C55.247 158.488 55.411 159.804 55.411 161.324ZM52.351 161.324C52.351 160.068 52.259 159.028 52.075 158.204C51.891 157.38 51.643 156.724 51.331 156.236C51.027 155.748 50.675 155.408 50.275 155.216C49.875 155.016 49.459 154.916 49.027 154.916C48.603 154.916 48.191 155.016 47.791 155.216C47.399 155.408 47.051 155.748 46.747 156.236C46.443 156.724 46.199 157.38 46.015 158.204C45.839 159.028 45.751 160.068 45.751 161.324C45.751 162.58 45.839 163.62 46.015 164.444C46.199 165.268 46.443 165.924 46.747 166.412C47.051 166.9 47.399 167.244 47.791 167.444C48.191 167.636 48.603 167.732 49.027 167.732C49.459 167.732 49.875 167.636 50.275 167.444C50.675 167.244 51.027 166.9 51.331 166.412C51.643 165.924 51.891 165.268 52.075 164.444C52.259 163.62 52.351 162.58 52.351 161.324Z" fill="#EF3340"/>
<path d="M21.1207 181.372C20.6927 181.392 20.3327 181.43 20.0407 181.486C19.7487 181.538 19.5147 181.606 19.3387 181.69C19.1627 181.774 19.0367 181.872 18.9607 181.984C18.8847 182.096 18.8467 182.218 18.8467 182.35C18.8467 182.61 18.9227 182.796 19.0747 182.908C19.2307 183.02 19.4327 183.076 19.6807 183.076C19.9847 183.076 20.2467 183.022 20.4667 182.914C20.6907 182.802 20.9087 182.634 21.1207 182.41V181.372ZM17.7247 178.702C18.4327 178.054 19.2847 177.73 20.2807 177.73C20.6407 177.73 20.9627 177.79 21.2467 177.91C21.5307 178.026 21.7707 178.19 21.9667 178.402C22.1627 178.61 22.3107 178.86 22.4107 179.152C22.5147 179.444 22.5667 179.764 22.5667 180.112V184H21.8947C21.7547 184 21.6467 183.98 21.5707 183.94C21.4947 183.896 21.4347 183.81 21.3907 183.682L21.2587 183.238C21.1027 183.378 20.9507 183.502 20.8027 183.61C20.6547 183.714 20.5007 183.802 20.3407 183.874C20.1807 183.946 20.0087 184 19.8247 184.036C19.6447 184.076 19.4447 184.096 19.2247 184.096C18.9647 184.096 18.7247 184.062 18.5047 183.994C18.2847 183.922 18.0947 183.816 17.9347 183.676C17.7747 183.536 17.6507 183.362 17.5627 183.154C17.4747 182.946 17.4307 182.704 17.4307 182.428C17.4307 182.272 17.4567 182.118 17.5087 181.966C17.5607 181.81 17.6447 181.662 17.7607 181.522C17.8807 181.382 18.0347 181.25 18.2227 181.126C18.4107 181.002 18.6407 180.894 18.9127 180.802C19.1887 180.71 19.5087 180.636 19.8727 180.58C20.2367 180.52 20.6527 180.484 21.1207 180.472V180.112C21.1207 179.7 21.0327 179.396 20.8567 179.2C20.6807 179 20.4267 178.9 20.0947 178.9C19.8547 178.9 19.6547 178.928 19.4947 178.984C19.3387 179.04 19.2007 179.104 19.0807 179.176C18.9607 179.244 18.8507 179.306 18.7507 179.362C18.6547 179.418 18.5467 179.446 18.4267 179.446C18.3227 179.446 18.2347 179.42 18.1627 179.368C18.0907 179.312 18.0327 179.248 17.9887 179.176L17.7247 178.702ZM25.4625 175.084V184H23.9805V175.084H25.4625ZM29.857 184V177.844H30.763C30.955 177.844 31.081 177.934 31.141 178.114L31.237 178.57C31.345 178.45 31.457 178.34 31.573 178.24C31.693 178.14 31.819 178.054 31.951 177.982C32.087 177.91 32.231 177.854 32.383 177.814C32.539 177.77 32.709 177.748 32.893 177.748C33.281 177.748 33.599 177.854 33.847 178.066C34.099 178.274 34.287 178.552 34.411 178.9C34.507 178.696 34.627 178.522 34.771 178.378C34.915 178.23 35.073 178.11 35.245 178.018C35.417 177.926 35.599 177.858 35.791 177.814C35.987 177.77 36.183 177.748 36.379 177.748C36.719 177.748 37.021 177.8 37.285 177.904C37.549 178.008 37.771 178.16 37.951 178.36C38.131 178.56 38.267 178.804 38.359 179.092C38.455 179.38 38.503 179.71 38.503 180.082V184H37.021V180.082C37.021 179.69 36.935 179.396 36.763 179.2C36.591 179 36.339 178.9 36.007 178.9C35.855 178.9 35.713 178.926 35.581 178.978C35.453 179.03 35.339 179.106 35.239 179.206C35.143 179.302 35.067 179.424 35.011 179.572C34.955 179.72 34.927 179.89 34.927 180.082V184H33.439V180.082C33.439 179.67 33.355 179.37 33.187 179.182C33.023 178.994 32.781 178.9 32.461 178.9C32.245 178.9 32.043 178.954 31.855 179.062C31.671 179.166 31.499 179.31 31.339 179.494V184H29.857ZM43.8777 180.214C43.8777 180.022 43.8497 179.842 43.7937 179.674C43.7417 179.502 43.6617 179.352 43.5537 179.224C43.4457 179.096 43.3077 178.996 43.1397 178.924C42.9757 178.848 42.7837 178.81 42.5637 178.81C42.1357 178.81 41.7977 178.932 41.5497 179.176C41.3057 179.42 41.1497 179.766 41.0817 180.214H43.8777ZM41.0517 181.108C41.0757 181.424 41.1317 181.698 41.2197 181.93C41.3077 182.158 41.4237 182.348 41.5677 182.5C41.7117 182.648 41.8817 182.76 42.0777 182.836C42.2777 182.908 42.4977 182.944 42.7377 182.944C42.9777 182.944 43.1837 182.916 43.3557 182.86C43.5317 182.804 43.6837 182.742 43.8117 182.674C43.9437 182.606 44.0577 182.544 44.1537 182.488C44.2537 182.432 44.3497 182.404 44.4417 182.404C44.5657 182.404 44.6577 182.45 44.7177 182.542L45.1437 183.082C44.9797 183.274 44.7957 183.436 44.5917 183.568C44.3877 183.696 44.1737 183.8 43.9497 183.88C43.7297 183.956 43.5037 184.01 43.2717 184.042C43.0437 184.074 42.8217 184.09 42.6057 184.09C42.1777 184.09 41.7797 184.02 41.4117 183.88C41.0437 183.736 40.7237 183.526 40.4517 183.25C40.1797 182.97 39.9657 182.626 39.8097 182.218C39.6537 181.806 39.5757 181.33 39.5757 180.79C39.5757 180.37 39.6437 179.976 39.7797 179.608C39.9157 179.236 40.1097 178.914 40.3617 178.642C40.6177 178.366 40.9277 178.148 41.2917 177.988C41.6597 177.828 42.0737 177.748 42.5337 177.748C42.9217 177.748 43.2797 177.81 43.6077 177.934C43.9357 178.058 44.2177 178.24 44.4537 178.48C44.6897 178.716 44.8737 179.008 45.0057 179.356C45.1417 179.7 45.2097 180.094 45.2097 180.538C45.2097 180.762 45.1857 180.914 45.1377 180.994C45.0897 181.07 44.9977 181.108 44.8617 181.108H41.0517ZM50.0778 179.044C50.0378 179.108 49.9958 179.154 49.9518 179.182C49.9078 179.206 49.8518 179.218 49.7838 179.218C49.7118 179.218 49.6338 179.198 49.5498 179.158C49.4698 179.118 49.3758 179.074 49.2678 179.026C49.1598 178.974 49.0358 178.928 48.8958 178.888C48.7598 178.848 48.5978 178.828 48.4098 178.828C48.1178 178.828 47.8878 178.89 47.7198 179.014C47.5558 179.138 47.4738 179.3 47.4738 179.5C47.4738 179.632 47.5158 179.744 47.5998 179.836C47.6878 179.924 47.8018 180.002 47.9418 180.07C48.0858 180.138 48.2478 180.2 48.4278 180.256C48.6078 180.308 48.7898 180.366 48.9738 180.43C49.1618 180.494 49.3458 180.568 49.5258 180.652C49.7058 180.732 49.8658 180.836 50.0058 180.964C50.1498 181.088 50.2638 181.238 50.3478 181.414C50.4358 181.59 50.4798 181.802 50.4798 182.05C50.4798 182.346 50.4258 182.62 50.3178 182.872C50.2138 183.12 50.0578 183.336 49.8498 183.52C49.6418 183.7 49.3838 183.842 49.0758 183.946C48.7718 184.046 48.4198 184.096 48.0198 184.096C47.8078 184.096 47.5998 184.076 47.3958 184.036C47.1958 184 47.0018 183.948 46.8138 183.88C46.6298 183.812 46.4578 183.732 46.2978 183.64C46.1418 183.548 46.0038 183.448 45.8838 183.34L46.2258 182.776C46.2698 182.708 46.3218 182.656 46.3818 182.62C46.4418 182.584 46.5178 182.566 46.6098 182.566C46.7018 182.566 46.7878 182.592 46.8678 182.644C46.9518 182.696 47.0478 182.752 47.1558 182.812C47.2638 182.872 47.3898 182.928 47.5338 182.98C47.6818 183.032 47.8678 183.058 48.0918 183.058C48.2678 183.058 48.4178 183.038 48.5418 182.998C48.6698 182.954 48.7738 182.898 48.8538 182.83C48.9378 182.762 48.9978 182.684 49.0338 182.596C49.0738 182.504 49.0938 182.41 49.0938 182.314C49.0938 182.17 49.0498 182.052 48.9618 181.96C48.8778 181.868 48.7638 181.788 48.6198 181.72C48.4798 181.652 48.3178 181.592 48.1338 181.54C47.9538 181.484 47.7678 181.424 47.5758 181.36C47.3878 181.296 47.2018 181.222 47.0178 181.138C46.8378 181.05 46.6758 180.94 46.5318 180.808C46.3918 180.676 46.2778 180.514 46.1898 180.322C46.1058 180.13 46.0638 179.898 46.0638 179.626C46.0638 179.374 46.1138 179.134 46.2138 178.906C46.3138 178.678 46.4598 178.48 46.6518 178.312C46.8478 178.14 47.0898 178.004 47.3778 177.904C47.6698 177.8 48.0058 177.748 48.3858 177.748C48.8098 177.748 49.1958 177.818 49.5438 177.958C49.8918 178.098 50.1818 178.282 50.4138 178.51L50.0778 179.044Z" fill="#EF3340"/>
<path d="M38.4655 127.421C38.4655 127.421 44.5237 106.217 48.9375 100.592L55.2552 105.179C50.4087 109.766 41.408 130.104 41.4946 130.19L42.4466 130.969C42.4466 130.969 43.7448 132.094 44.0044 133.392C44.264 134.69 45.0429 135.21 45.3891 135.383C45.7353 135.556 45.8218 137.027 44.4371 136.768C43.0524 136.508 42.3601 134.085 42.4466 133.825C42.4466 133.565 41.1484 135.816 42.0139 137.806C42.8793 139.797 42.7928 141.181 42.2735 141.354C41.6677 141.528 40.9753 140.143 40.1964 136.421C40.1964 136.421 39.2445 138.412 39.5906 139.45C39.5906 139.45 40.4561 141.528 39.2444 141.787C38.0328 141.96 38.1194 136.248 38.1194 136.248C38.1194 136.248 37.2539 138.066 37.1674 138.758C36.9943 139.45 36.9078 141.354 36.1289 141.441C35.2634 141.527 35.35 138.412 36.1289 135.816C36.1289 135.816 34.7441 138.152 34.571 138.585C34.2248 139.364 33.7056 139.797 33.3594 139.537C33.1863 139.45 32.1478 138.845 34.6576 135.383C34.6576 135.383 34.7441 131.402 37.7732 129.584L38.4655 127.421Z" fill="#E5BCA5"/>
<defs>
<linearGradient id="paint0_linear" x1="64.2625" y1="49.8372" x2="67.4356" y2="57.6626" gradientUnits="userSpaceOnUse">
<stop stop-color="#E5BCA5"/>
<stop offset="1" stop-color="#CA9487"/>
</linearGradient>
</defs>
</svg>
