<svg width="15" height="16" viewBox="0 0 15 16" fill="none" xmlns="http://www.w3.org/2000/svg">
<path d="M14.4748 15.4974C14.4739 15.4984 14.4731 15.4993 14.4723 15.5H0.527652C0.526915 15.4993 0.526083 15.4984 0.52517 15.4974C0.514688 15.4856 0.5 15.459 0.5 15.4182V2.03663C0.5 1.99578 0.514688 1.96923 0.52517 1.95745C0.526083 1.95642 0.526915 1.95555 0.527652 1.95483H14.4723C14.4731 1.95555 14.4739 1.95642 14.4748 1.95745C14.4853 1.96923 14.5 1.99578 14.5 2.03663V15.4182C14.5 15.459 14.4853 15.4856 14.4748 15.4974Z" stroke="#EF3340"/>
<path d="M14.5 3.8639H0.5V2.03664C0.5 1.99579 0.514689 1.96924 0.525171 1.95744C0.526085 1.95642 0.526916 1.95555 0.527653 1.95483H14.4723C14.4731 1.95555 14.4739 1.95642 14.4748 1.95745C14.4853 1.96924 14.5 1.99579 14.5 2.03664V3.8639Z" fill="#EF3340" stroke="#EF3340"/>
<mask id="path-3-inside-1" fill="white">
<path d="M15 4.36401H0V4.9458H15V4.36401Z"/>
</mask>
<path d="M15 4.36401H0V4.9458H15V4.36401Z" fill="#EF3340"/>
<path d="M0 4.36401V3.36401H-1V4.36401H0ZM15 4.36401H16V3.36401H15V4.36401ZM15 4.9458V5.9458H16V4.9458H15ZM0 4.9458H-1V5.9458H0V4.9458ZM0 5.36401H15V3.36401H0V5.36401ZM14 4.36401V4.9458H16V4.36401H14ZM15 3.9458H0V5.9458H15V3.9458ZM1 4.9458V4.36401H-1V4.9458H1Z" fill="#EF3340" mask="url(#path-3-inside-1)"/>
<path d="M12.5 3.09363C12.5 3.11026 12.4902 3.18392 12.3542 3.27572C12.2211 3.36552 12.009 3.43725 11.75 3.43725C11.491 3.43725 11.2789 3.36552 11.1458 3.27572C11.0098 3.18392 11 3.11026 11 3.09363C11 3.07699 11.0098 3.00334 11.1458 2.91154C11.2789 2.82173 11.491 2.75 11.75 2.75C12.009 2.75 12.2211 2.82173 12.3542 2.91154C12.4902 3.00334 12.5 3.07699 12.5 3.09363Z" fill="#EF3340" stroke="#EF3340"/>
<path d="M11.75 2.8745C11.6554 2.8745 11.5835 2.84196 11.5421 2.80701C11.5017 2.77296 11.5 2.748 11.5 2.7418V0.632707C11.5 0.626496 11.5017 0.601541 11.5421 0.567493C11.5835 0.532541 11.6554 0.5 11.75 0.5C11.8446 0.5 11.9165 0.532546 11.9579 0.567494C11.9983 0.601544 12 0.626505 12 0.632707V2.7418C12 2.74801 11.9983 2.77296 11.9579 2.80701C11.9165 2.84196 11.8446 2.8745 11.75 2.8745Z" fill="#EF3340" stroke="#EF3340"/>
<path d="M11.5 2.62483V2.34991C11.5808 2.36631 11.6644 2.37491 11.75 2.37491C11.8356 2.37491 11.9192 2.3663 12 2.34991V2.62483C12 2.76268 11.8881 2.87468 11.75 2.87468C11.6119 2.87468 11.5 2.76271 11.5 2.62483Z" fill="#EF3340" stroke="#EF3340"/>
<path d="M4 3.09363C4 3.11026 3.99019 3.18392 3.85418 3.27572C3.72111 3.36552 3.50899 3.43725 3.25 3.43725C2.99101 3.43725 2.77889 3.36552 2.64582 3.27572C2.50981 3.18392 2.5 3.11026 2.5 3.09363C2.5 3.07699 2.50981 3.00334 2.64582 2.91154C2.77889 2.82173 2.99101 2.75 3.25 2.75C3.50899 2.75 3.72111 2.82173 3.85418 2.91154C3.99019 3.00334 4 3.07699 4 3.09363Z" fill="#EF3340" stroke="#EF3340"/>
<path d="M3.25 2.8745C3.15542 2.8745 3.0835 2.84196 3.04208 2.80701C3.00172 2.77296 3 2.748 3 2.7418V0.632707C3 0.626496 3.00172 0.601541 3.04208 0.567493C3.08351 0.532541 3.15544 0.5 3.25 0.5C3.34458 0.5 3.4165 0.532546 3.45792 0.567494C3.49828 0.601544 3.5 0.626505 3.5 0.632707V2.7418C3.5 2.74801 3.49828 2.77296 3.45792 2.80701C3.41649 2.84196 3.34456 2.8745 3.25 2.8745Z" fill="#EF3340" stroke="#EF3340"/>
<path d="M3 2.62483V2.34991C3.08078 2.36631 3.16438 2.37491 3.25 2.37491C3.33561 2.37491 3.41922 2.3663 3.5 2.34991V2.62483C3.5 2.76268 3.38812 2.87468 3.25 2.87468C3.11186 2.87468 3 2.76271 3 2.62483Z" fill="#EF3340" stroke="#EF3340"/>
<rect x="1.93555" y="6.57446" width="1.45163" height="1.45" rx="0.725" fill="#EF3340"/>
<rect x="4.35547" y="6.57471" width="1.45163" height="1.45" rx="0.725" fill="#EF3340"/>
<rect x="6.77441" y="6.57471" width="1.45163" height="1.45" rx="0.725" fill="#EF3340"/>
<rect x="9.19434" y="6.57471" width="1.45163" height="1.45" rx="0.725" fill="#EF3340"/>
<rect x="11.6133" y="6.57471" width="1.45163" height="1.45" rx="0.725" fill="#EF3340"/>
<rect x="1.93555" y="9.31494" width="1.45163" height="1.45" rx="0.725" fill="#EF3340"/>
<rect x="4.35547" y="9.31396" width="1.45163" height="1.45" rx="0.725" fill="#EF3340"/>
<rect x="6.77441" y="9.31396" width="1.45163" height="1.45" rx="0.725" fill="#EF3340"/>
<rect x="9.19434" y="9.31396" width="1.45163" height="1.45" rx="0.725" fill="#EF3340"/>
<rect x="11.6133" y="9.31396" width="1.45163" height="1.45" rx="0.725" fill="#EF3340"/>
<rect x="1.93555" y="12.0529" width="1.45163" height="1.45" rx="0.725" fill="#EF3340"/>
<rect x="4.35498" y="12.0527" width="1.45163" height="1.45" rx="0.725" fill="#EF3340"/>
<rect x="6.77441" y="12.0527" width="1.45163" height="1.45" rx="0.725" fill="#EF3340"/>
<rect x="9.19385" y="12.0527" width="1.45163" height="1.45" rx="0.725" fill="#EF3340"/>
</svg>
