<svg width="360" height="508" viewBox="0 0 360 508" fill="none" xmlns="http://www.w3.org/2000/svg">
<path d="M174.502 243.287C174.502 243.287 140.923 238.035 136.467 238.353C132.011 238.671 105.594 247.265 104.48 257.45C103.366 267.794 108.458 302.964 108.458 302.964C108.458 302.964 123.417 301.214 123.895 299.145C124.531 297.076 125.645 265.248 125.327 262.543C125.009 259.837 182.936 266.999 182.936 266.999L174.502 243.287Z" fill="#494F66"/>
<path d="M249.934 91.625C248.661 103.72 239.431 114.7 228.132 124.09C212.218 137.458 190.575 147.483 172.274 152.099C171.478 152.258 170.682 152.417 170.045 152.576C169.886 152.576 169.727 152.576 169.568 152.735C169.409 152.735 169.25 152.735 169.091 152.894C168.772 152.894 168.454 153.053 168.136 153.053C164.794 155.122 148.084 160.533 138.058 163.716C125.168 158.782 113.55 151.939 103.047 142.709C113.55 165.307 132.647 167.376 139.172 173.901C89.202 169.922 72.333 116.61 72.333 88.1239L85.0643 71.0958L162.566 33.3794L172.274 59.0011C177.525 70.141 219.22 75.3926 231.633 47.8612C231.474 47.7021 231.315 47.5429 231.315 47.3838C231.315 47.3838 231.474 47.5429 231.633 47.8612C231.792 48.0204 231.792 48.1795 231.951 48.1795C231.951 48.1795 231.792 48.0204 231.633 47.8612C234.338 55.5 233.384 63.6162 229.564 71.8915C237.999 68.5495 239.59 62.9796 240.863 59.0011C246.751 66.799 251.367 76.3475 249.934 91.625Z" fill="#2B2B31"/>
<path d="M249.934 91.6255C247.706 103.561 239.43 114.701 228.131 124.09C212.217 137.458 190.574 147.484 172.273 152.099C171.477 152.258 170.682 152.417 170.045 152.576C169.886 152.576 169.727 152.576 169.568 152.736C169.408 152.736 169.249 152.736 169.09 152.895C168.772 152.895 168.454 153.054 168.135 153.054C163.679 155.918 159.223 157.828 154.768 159.26C101.614 135.708 93.8165 115.656 90.3154 95.9223L165.907 62.0253C177.366 69.3458 187.71 118.998 249.934 91.6255Z" fill="#191A1C"/>
<path d="M119.598 186.154C117.37 187.428 113.073 182.494 110.049 177.402C107.026 172.309 106.548 167.217 108.776 165.944C111.004 164.67 115.142 167.694 118.006 172.627C121.03 177.72 121.826 184.881 119.598 186.154Z" fill="#383064"/>
<path d="M110.209 184.404C117.052 177.879 143.151 165.944 143.151 165.944L139.968 159.897L128.033 156.077C128.033 156.077 104.161 168.968 98.5914 175.97C90.4752 186.314 79.3353 225.303 79.3353 225.303L78.0622 229.282C72.4923 232.624 72.3332 239.944 72.3332 239.944C67.7181 246.31 69.6278 247.424 69.9461 247.583C70.5826 248.061 71.5374 247.265 72.174 245.833C72.4923 245.037 75.0386 240.74 75.0386 240.74C73.6063 245.514 73.4472 251.243 75.0386 251.084C76.4709 250.925 76.6299 247.424 76.9482 246.151C77.1074 244.878 78.6988 241.536 78.6988 241.536C78.6988 241.536 78.5397 252.039 80.7676 251.721C82.9956 251.243 81.4042 247.424 81.4042 247.424C80.7677 245.514 82.5181 241.854 82.5181 241.854C83.9504 248.697 85.2236 251.243 86.3376 250.925C87.2924 250.607 87.4516 248.061 85.8602 244.4C84.2688 240.74 86.6559 236.602 86.6559 237.08C86.4967 237.557 87.7698 242.013 90.3161 242.491C92.8623 242.968 92.7032 240.263 92.0666 239.944C91.43 239.626 89.9978 238.671 89.5204 236.284C89.043 233.897 86.6559 231.828 86.6559 231.828L84.9053 230.396C84.7461 230.237 101.297 192.839 110.209 184.404Z" fill="#E5BCA5"/>
<path opacity="0.4" d="M128.193 156.077C128.193 156.077 104.322 168.967 98.7516 175.97C90.6354 186.314 79.4956 225.303 79.4956 225.303L78.2225 229.282C72.6525 232.624 72.4933 239.944 72.4933 239.944C67.8782 246.31 69.7879 247.424 70.1062 247.583C70.1062 247.583 70.5837 242.49 73.9256 240.262C73.9256 240.262 73.7665 231.828 79.6547 229.441C79.6547 229.441 81.4052 229.123 82.5192 229.6C82.5192 229.6 81.5644 228.009 79.8139 228.009C79.8139 228.009 92.7043 183.927 100.184 177.243C100.184 177.243 121.35 159.896 128.829 157.668L128.193 156.077Z" fill="#E5BCA5"/>
<path d="M223.04 133.161C225.108 139.686 224.79 145.415 222.403 146.211C220.016 147.006 216.197 142.391 214.128 136.026C212.059 129.501 212.377 123.772 214.764 122.976C217.151 122.18 220.971 126.795 223.04 133.161Z" fill="#383064"/>
<path d="M232.428 118.838C223.994 122.976 195.349 126.477 195.349 126.477L196.622 133.32L206.807 140.481C206.807 140.481 233.542 135.389 240.863 130.455C251.844 123.135 274.123 89.2379 274.123 89.2379L276.511 85.8959C282.717 84.3045 285.104 77.4615 285.104 77.4615C291.311 72.8464 289.878 71.255 289.719 70.9367C289.242 70.4593 288.128 70.7775 287.173 71.8915C286.536 72.5281 282.876 75.8701 282.876 75.8701C285.582 71.8915 287.491 66.3216 286.059 66.0033C284.627 65.685 283.354 69.027 282.717 70.141C282.08 71.4141 279.534 73.9604 279.534 73.9604C279.534 73.9604 282.876 63.9345 280.648 63.7754C278.42 63.4571 278.739 67.5947 278.739 67.5947C278.739 69.5044 276.033 72.6872 276.033 72.6872C276.67 65.685 276.192 62.8205 275.237 62.9797C274.123 62.9797 273.328 65.3668 273.646 69.3453C273.964 73.3238 270.463 76.5066 270.781 76.1883C271.1 75.87 271.1 71.255 268.872 69.9818C266.644 68.7087 266.007 71.4141 266.485 71.8915C266.962 72.369 268.076 73.8012 267.758 76.1883C267.599 78.5754 269.19 81.2809 269.19 81.2809L270.304 83.1905C270.463 82.8723 243.409 113.586 232.428 118.838Z" fill="#E5BCA5"/>
<path opacity="0.4" d="M206.807 140.481C206.807 140.481 233.542 135.389 240.863 130.455C251.843 123.135 274.123 89.2379 274.123 89.2379L276.51 85.8959C282.717 84.3045 285.104 77.4614 285.104 77.4614C291.31 72.8463 289.878 71.2549 289.719 70.9366C289.719 70.9366 287.65 75.7109 283.831 76.8249C283.831 76.8249 281.444 84.941 275.078 85.4185C275.078 85.4185 273.328 85.1002 272.373 84.3045C272.373 84.3045 272.85 86.055 274.441 86.5324C274.441 86.5324 248.82 124.567 239.59 128.864C239.59 128.864 214.286 139.049 206.488 138.89L206.807 140.481Z" fill="#E5BCA5"/>
<path d="M151.425 32.106C151.425 32.106 170.841 66.9579 172.909 72.3687C185.641 104.356 160.019 125.203 153.017 128.864C146.492 132.206 117.051 146.847 89.6787 113.427C83.4722 105.947 78.698 83.8268 71.855 66.3213C71.855 66.3213 63.5796 45.9513 102.569 27.9683C126.44 17.1468 143.309 19.0564 151.425 32.106Z" fill="#E5BCA5"/>
<path d="M165.271 107.062C173.069 90.5109 168.135 72.528 164.157 55.4999C158.109 44.36 151.425 32.2653 151.425 32.2653C143.309 19.2158 126.44 17.1469 102.569 28.1277C63.5796 45.9514 71.855 66.4806 71.855 66.4806C78.698 84.1453 83.4722 106.107 89.6787 113.586C91.4292 115.814 93.1799 117.724 94.9304 119.475C121.507 131.092 149.834 137.139 165.271 107.062Z" fill="#E5BCA5"/>
<path opacity="0.4" d="M172.91 72.3687C172.114 70.1407 168.295 63.1385 164.157 55.4998C168.135 72.5278 173.069 90.6699 165.271 107.061C149.834 137.139 121.507 131.092 94.9307 119.315C120.711 144.937 146.811 132.047 153.017 128.864C160.019 125.204 185.641 104.356 172.91 72.3687Z" fill="#E5BCA5"/>
<path d="M85.3821 84.3049C85.2229 85.2598 85.2229 86.0555 85.3821 87.0103C85.5412 86.2146 85.7003 85.2598 85.3821 84.3049Z" fill="#E5BCA5"/>
<path d="M105.434 77.3026C105.593 76.8251 105.593 76.5068 105.752 76.0294C105.275 76.3477 105.275 76.8251 105.434 77.3026Z" fill="#E5BCA5"/>
<mask id="mask0" mask-type="alpha" maskUnits="userSpaceOnUse" x="132" y="101" width="21" height="23">
<ellipse cx="142.374" cy="112.108" rx="6.97859" ry="8.83955" transform="rotate(-28.7991 142.374 112.108)" fill="#C4C4C4"/>
</mask>
<g mask="url(#mask0)">
<path d="M121 108.5C121 108.5 144.186 105.833 151.056 92C151.056 92 164.281 116.667 142.297 122H142.125C137.66 121.833 129.587 121.833 121 108.5Z" fill="#71465A"/>
<path d="M139 121.901C141.605 113.981 149.256 113.671 153 114.137C151.372 118.795 147.465 122.677 139 121.901Z" fill="#D69487"/>
<path d="M148.906 89C148.906 89 150.797 92.6391 152 97.2707C149.938 100.744 136.704 109.677 123.298 111C121.751 109.18 120.376 106.865 119.001 105.211C118.829 105.376 142.032 102.729 148.906 89Z" fill="white"/>
<path d="M142.074 122.18C145.118 121.334 147.992 120.15 150.36 117.952C152.727 115.923 154.08 112.879 154.418 109.836C154.925 106.792 154.418 103.579 153.742 100.705C153.065 97.661 151.882 94.7864 150.529 92.0809H151.036C149.683 94.7864 147.823 97.1537 145.625 99.1828C143.427 101.212 140.891 102.734 138.185 104.087C135.48 105.439 132.774 106.454 129.899 107.299C127.025 108.145 124.15 108.652 121.276 109.159L121.445 108.821C122.459 110.681 123.812 112.541 125.165 114.063C126.518 115.754 128.208 117.276 129.899 118.629C131.59 119.981 133.62 120.996 135.649 121.672C137.678 122.01 139.876 122.349 142.074 122.18ZM142.074 122.18C139.876 122.349 137.678 122.18 135.649 121.503C133.62 120.827 131.59 119.812 129.899 118.459C128.208 117.107 126.518 115.585 124.996 114.063C123.474 112.372 122.29 110.681 121.107 108.821L120.938 108.652H121.276C124.15 108.145 127.025 107.468 129.73 106.623C132.436 105.777 135.31 104.763 137.847 103.41C140.383 102.057 142.92 100.536 145.118 98.6756C147.316 96.8156 149.176 94.4483 150.529 91.9119L150.867 91.4045L151.205 91.9119C152.558 94.7864 153.573 97.661 154.249 100.874C154.925 103.917 155.263 107.13 154.756 110.174C154.249 113.218 152.896 116.261 150.529 118.29C148.162 120.15 145.118 121.334 142.074 122.18Z" fill="#A56F68"/>
</g>
<g opacity="0.5">
<path opacity="0.5" d="M146.969 81.9177C147.924 83.9866 152.221 84.1457 156.359 82.0769C160.496 80.008 163.043 76.6661 162.088 74.5972C161.133 72.5284 156.836 72.3693 152.699 74.4381C148.402 76.5069 145.855 79.8489 146.969 81.9177Z" fill="#CC7A87"/>
<path opacity="0.5" d="M100.182 103.72C100.659 105.789 104.32 106.585 108.139 105.63C112.118 104.675 114.823 102.288 114.345 100.219C113.868 98.1501 110.208 97.3544 106.388 98.3092C102.569 99.2641 99.7045 101.651 100.182 103.72Z" fill="#CC7A87"/>
</g>
<path d="M142.513 70.9365C143.627 72.6871 146.014 73.1645 147.765 71.8914C149.516 70.7774 149.993 68.3903 148.72 66.6397C147.606 64.8892 145.219 64.4117 143.468 65.6849C141.877 66.7989 141.399 69.186 142.513 70.9365Z" fill="#151617"/>
<path d="M143.15 68.7089C143.627 69.3455 144.423 69.5046 145.059 69.0272C145.696 68.5497 145.855 67.754 145.378 67.1175C144.9 66.4809 144.105 66.3218 143.468 66.7992C142.831 67.4358 142.672 68.2315 143.15 68.7089Z" fill="white"/>
<path d="M101.932 91.9428C103.046 93.6934 105.433 94.1708 107.184 92.8977C108.934 91.7837 109.412 89.3966 108.139 87.6461C107.025 85.8955 104.638 85.4181 102.887 86.6912C101.137 87.8052 100.659 90.1923 101.932 91.9428Z" fill="#151617"/>
<path d="M102.41 89.7153C102.887 90.3519 103.683 90.5111 104.319 90.0336C104.956 89.5562 105.115 88.7605 104.638 88.1239C104.16 87.4874 103.365 87.3283 102.728 87.8057C102.251 88.2831 102.091 89.0788 102.41 89.7153Z" fill="white"/>
<path opacity="0.56" d="M118.006 77.7795C118.006 77.7795 127.873 83.3494 126.759 96.8764C126.759 96.8764 134.875 97.1946 137.898 90.3516C137.898 90.3516 129.782 82.0763 126.918 70.459C126.918 70.6181 123.417 75.7106 118.006 77.7795Z" fill="url(#paint0_linear)"/>
<path d="M126.759 96.8767C126.759 96.8767 138.535 103.242 137.899 90.3519C137.899 90.5111 133.124 95.2853 126.759 96.8767Z" fill="#B88984"/>
<path d="M90.1562 89.5562C90.1562 89.5562 92.0658 79.2121 101.137 76.6658C101.933 76.5067 101.933 75.2335 100.978 75.2335C95.8852 74.597 87.9282 75.8701 90.1562 89.5562Z" fill="#2B2B31"/>
<path d="M155.403 55.3408C155.403 55.3408 146.173 50.5665 138.694 56.2956C137.898 56.773 137.102 55.9773 137.42 55.1816C140.285 50.7257 145.855 45.474 155.403 55.3408Z" fill="#2B2B31"/>
<path d="M135.511 55.1819C135.511 55.1819 121.348 76.6659 110.367 76.9842C104.161 77.1433 107.184 68.7089 107.184 68.7089C107.184 68.7089 95.4078 88.1241 90.4744 87.1692C84.4271 86.0552 85.2228 75.3928 89.3605 73.0057C89.3605 73.0057 79.9711 92.1026 73.7646 87.8058C67.2398 83.3499 63.2614 62.9798 67.8765 57.7282C67.8765 57.7282 82.04 32.4247 83.4723 29.2419C86.496 22.2397 113.232 11.0999 127.554 12.8504C136.148 13.8053 159.383 20.9666 135.511 55.1819Z" fill="#2B2B31"/>
<path d="M84.5864 104.197C84.5864 104.197 74.8788 95.126 70.2637 99.2637C65.6486 103.401 79.653 122.021 86.3369 121.543C93.0208 121.066 91.1112 113.905 91.1112 113.905L84.5864 104.197Z" fill="#C78D75"/>
<path d="M86.1776 118.361C85.541 117.883 84.9044 117.406 84.2679 116.769C84.1087 116.61 83.9496 116.451 83.7905 116.292C83.6313 116.133 83.4722 115.974 83.4722 115.814C83.313 115.655 83.313 115.496 83.1539 115.178C83.1539 115.019 82.9948 114.7 82.9948 114.541C82.9948 114.382 82.8356 114.064 82.9948 113.905C82.9948 113.746 82.9947 113.427 83.1539 113.268C83.313 113.109 83.313 112.791 83.4722 112.632L83.7905 112.154C83.9496 111.995 84.1087 111.836 84.2679 111.836C84.427 111.677 84.5861 111.677 84.7453 111.518L85.7001 111.04V111.677C84.427 110.404 83.1539 108.971 81.8808 107.698C80.6076 106.425 79.1754 105.152 77.9022 103.879C77.2657 103.242 76.47 102.765 75.8334 102.287C75.5151 102.128 75.0377 101.81 74.7194 101.651C74.4011 101.492 73.9237 101.492 73.7645 101.651C73.6054 101.651 73.4463 101.969 73.4463 101.969C73.2872 102.128 73.2872 102.287 73.128 102.447C72.9689 102.765 72.9688 103.242 72.9688 103.72C73.128 104.515 73.6054 105.47 74.0828 106.266C73.4463 105.629 72.8097 104.834 72.6506 103.72C72.4915 103.242 72.4915 102.765 72.6506 102.287C72.6506 102.128 72.8097 101.81 72.9688 101.651C73.128 101.492 73.128 101.333 73.4463 101.173C73.9237 100.855 74.4011 100.855 74.8785 101.014C75.3559 101.173 75.6742 101.333 76.1516 101.492C76.9473 101.969 77.7431 102.447 78.3796 103.083C79.8119 104.197 81.2441 105.47 82.5173 106.903C83.7904 108.176 85.0636 109.608 86.3367 111.04L86.655 111.518L86.1776 111.677L85.2227 111.995C85.0635 112.154 84.9044 112.154 84.7453 112.313C84.5861 112.472 84.427 112.472 84.427 112.632L84.1087 112.95C83.9495 113.109 83.9496 113.268 83.7905 113.427C83.6313 113.586 83.6313 113.746 83.6313 113.905C83.6313 114.064 83.6313 114.223 83.6313 114.382C83.6313 114.541 83.7905 114.7 83.7905 114.86C83.7905 115.019 83.9496 115.178 83.9496 115.337C83.9496 115.496 84.1087 115.655 84.2679 115.814C84.427 115.974 84.427 116.133 84.5862 116.292C85.0636 117.247 85.7002 117.883 86.1776 118.361Z" fill="#AD8372"/>
<path d="M167.976 62.6613C167.976 62.6613 166.544 49.4527 172.591 48.1795C178.639 46.9064 185.004 69.3453 180.548 74.4378C176.092 79.5303 171.636 73.6421 171.636 73.6421L167.976 62.6613Z" fill="#E5BCA5"/>
<path d="M84.5864 104.197C84.5864 104.197 74.8788 95.1262 70.2637 99.2639C65.6486 103.402 79.653 122.021 86.3369 121.544C93.0208 121.066 91.1112 113.905 91.1112 113.905L84.5864 104.197Z" fill="#C78D75"/>
<path d="M167.976 62.6613C167.976 62.6613 166.544 49.4527 172.591 48.1795C178.639 46.9064 185.004 69.3453 180.548 74.4378C176.092 79.5303 171.636 73.6421 171.636 73.6421L167.976 62.6613Z" fill="#C78D75"/>
<path d="M178.321 72.5279C178.321 71.7322 178.321 70.9365 178.161 70.1408C178.161 69.9816 178.161 69.6633 178.002 69.5042C178.002 69.3451 177.843 69.0268 177.843 68.8676C177.684 68.7085 177.684 68.3902 177.525 68.2311C177.366 68.0719 177.366 67.9128 177.047 67.7537C176.888 67.5945 176.729 67.4354 176.57 67.2762C176.411 67.1171 176.252 66.958 175.933 66.958C175.774 66.958 175.456 66.7988 175.297 66.7988H174.66C174.501 66.7988 174.342 66.958 174.183 66.958C174.024 66.958 173.865 67.1171 173.705 67.1171L172.751 67.5945L173.387 67.9128C173.069 66.1622 172.751 64.2526 172.591 62.502C172.273 60.5923 172.114 58.8418 171.955 57.0912C171.955 56.1364 171.955 55.3407 171.955 54.3858C171.955 53.9084 171.955 53.5901 172.114 53.1127C172.273 52.7944 172.432 52.4761 172.751 52.317C172.91 52.317 173.069 52.317 173.228 52.317C173.387 52.317 173.546 52.317 173.705 52.317C174.024 52.4761 174.501 52.6353 174.819 52.9536C175.456 53.5901 175.933 54.545 176.093 55.3407C175.933 54.3858 175.615 53.431 174.979 52.6353C174.66 52.317 174.183 51.9987 173.865 51.8396C173.705 51.6804 173.387 51.6804 173.228 51.6804C173.069 51.6804 172.91 51.6804 172.591 51.6804C172.114 51.8396 171.796 52.317 171.637 52.6353C171.477 53.1127 171.318 53.5901 171.318 53.9084C171.159 54.8632 171.159 55.8181 171.159 56.6138C171.159 58.5235 171.477 60.274 171.637 62.1837C171.955 64.0934 172.273 65.844 172.591 67.7537L172.751 68.3902L173.228 68.0719L174.024 67.5945C174.183 67.5945 174.342 67.4354 174.501 67.4354C174.66 67.4354 174.819 67.2762 174.979 67.2762H175.456C175.615 67.2762 175.774 67.2762 175.933 67.2762C176.093 67.2762 176.252 67.4354 176.411 67.4354C176.57 67.4354 176.729 67.5945 176.888 67.7537C177.047 67.9128 177.207 68.0719 177.207 68.2311C177.366 68.3902 177.366 68.5494 177.525 68.7085C177.684 68.8676 177.684 69.0268 177.843 69.1859C177.843 69.3451 178.002 69.5042 178.002 69.8225C178.161 70.9365 178.161 71.7322 178.321 72.5279Z" fill="#AD8372"/>
<path d="M252.798 239.308C251.366 237.08 249.297 234.852 247.228 232.624C243.25 228.645 238.635 225.144 236.566 223.394C231.633 219.574 225.426 214.959 218.583 210.663C227.017 210.344 234.179 209.549 238.953 208.435C243.091 207.48 244.523 206.207 244.682 204.456C248.502 210.503 251.048 216.232 252.48 221.802C253.912 228.168 253.912 234.056 252.798 239.308Z" fill="#494F66"/>
<path d="M252.799 239.308C250.412 249.334 243.887 258.405 233.702 262.542C221.926 267.317 219.379 267.635 213.65 269.385C200.442 273.523 182.618 265.725 176.889 263.656L175.615 248.379L175.138 241.377L172.751 210.981C188.665 211.14 205.216 211.14 218.424 210.503C225.268 214.8 231.633 219.415 236.407 223.234C239.749 226.099 248.502 232.783 252.799 239.308Z" fill="#494F66"/>
<path d="M170.364 204.615C170.204 204.774 170.204 204.774 170.364 204.615C170.204 204.615 170.204 204.615 170.364 204.615C170.523 204.615 170.523 204.615 170.523 204.615C170.205 204.615 170.205 204.615 170.523 204.615C171 204.615 170.205 204.456 170.682 204.615C170.841 204.615 170.841 204.615 170.682 204.615C170.841 204.615 170.841 204.774 171 204.774C171.955 205.411 173.387 204.933 173.865 203.978C174.342 202.864 174.024 201.75 173.069 201.114C171.319 199.841 169.091 200.318 167.499 201.591C166.703 202.228 166.703 203.819 167.499 204.456C168.454 205.411 169.409 205.251 170.364 204.615Z" fill="#090909"/>
<path d="M248.343 210.981C244.365 199.204 216.356 162.92 204.739 153.531L210.627 151.462L219.379 147.006C214.128 143.186 209.99 130.296 211.741 123.612C188.665 127.75 171.796 128.546 162.884 132.524C162.884 132.524 163.203 132.842 163.68 133.161C162.566 133.32 161.77 133.479 160.975 133.638C159.702 133.956 153.018 136.821 148.88 138.571C148.403 137.935 148.243 137.617 148.243 137.617C118.802 158.623 147.766 137.935 109.095 165.625C114.824 169.126 121.985 182.813 120.235 185.518L142.037 173.423C144.742 173.901 147.448 174.856 149.835 176.765C157.314 182.813 185.96 241.376 185.96 241.376C190.097 242.968 211.741 236.125 243.41 216.71C244.842 215.755 246.433 214.8 247.866 213.845C248.98 213.368 248.661 212.095 248.343 210.981Z" fill="#82C162"/>
<path d="M226.063 214.323C237.999 194.112 214.128 163.079 190.257 153.531C197.418 151.144 209.354 153.531 209.354 147.643C210.467 140.163 206.807 131.888 208.558 124.249C187.233 127.909 171.478 128.705 163.044 132.683C163.044 132.683 163.362 133.002 163.839 133.32C162.725 133.479 161.93 133.638 161.134 133.797C159.861 134.116 153.177 136.98 149.039 138.731C148.562 138.094 148.403 137.776 148.403 137.776C118.961 158.783 147.925 138.094 109.254 165.785C114.983 169.286 122.144 182.972 120.394 185.677L142.037 173.424C144.742 173.901 147.448 174.856 149.835 176.766C153.654 179.789 162.884 196.34 171.001 211.777C192.325 221.643 213.491 235.807 226.063 214.323Z" fill="#92D66F"/>
<path d="M157.473 126L164.316 133.638C164.316 133.638 170.045 145.256 166.226 148.279C162.566 151.462 160.656 155.918 153.972 153.531C147.447 150.985 143.31 145.892 143.31 142.868C143.469 139.686 143.946 136.662 143.946 136.662C143.946 136.662 153.176 134.116 155.404 131.092C157.791 127.909 157.473 126 157.473 126Z" fill="#C08D75"/>
<path opacity="0.4" d="M155.723 141.595C159.86 141.118 162.884 138.731 165.112 135.548C164.634 134.275 164.157 133.479 164.157 133.479L157.314 125.84C157.314 125.84 157.791 127.75 155.404 130.774C153.017 133.797 143.946 136.344 143.946 136.344C143.946 136.344 143.469 139.526 143.31 142.55C143.31 142.709 143.31 142.868 143.31 143.028C147.288 143.823 151.744 142.868 155.723 141.595Z" fill="#C08D75"/>
<path d="M155.723 141.595C151.744 142.868 147.288 143.823 143.469 143.187C143.787 146.369 147.766 151.144 153.972 153.531C160.497 156.077 162.566 151.462 166.226 148.279C168.931 145.892 166.544 139.049 165.112 135.707C162.884 138.731 159.86 141.118 155.723 141.595Z" fill="#C08D75"/>
<path d="M155.962 21.9755L168.792 45.8453C167.002 43.1599 162.526 42.414 156.559 43.3091C153.277 43.7567 149.547 44.6518 145.519 45.9945C116.726 55.244 72.7162 83.5894 74.0589 99.9999L69.1356 90.8996L60.7812 75.235C48.3988 52.2603 61.5272 20.3344 84.9494 7.20601C87.6348 5.71415 90.4694 4.37148 93.4531 3.32718C100.316 0.940195 107.775 -0.253314 115.085 0.0450583C132.092 0.492618 148.354 7.80277 155.962 21.9755Z" fill="#2B2B31"/>
<path d="M62.8694 29.8823C55.1117 44.2042 53.3214 61.2115 60.6316 75.235L68.986 90.8996L73.9091 99.9999C73.7599 98.6573 74.0583 97.1654 74.5059 95.5243C59.2889 77.3236 55.2609 52.2603 62.8694 29.8823Z" fill="#2B2B31"/>
<path d="M113.145 8.25021C102.851 5.71404 92.5575 6.45999 82.2636 8.84697C74.2076 14.0685 67.4942 21.5278 62.8694 29.8822C55.1117 52.111 59.2889 77.1743 74.6551 95.5243C80.175 78.8154 119.262 54.498 145.519 45.9944C148.652 44.9501 151.635 44.2042 154.321 43.6074C145.817 26.7493 134.18 12.2782 113.145 8.25021Z" fill="#2B2B31"/>
<path d="M163.043 41.813L162.566 41.0182C162.884 41.1772 163.043 41.4951 163.043 41.813Z" fill="#344E94"/>
<path d="M123.258 184.086L120.394 185.677C121.189 182.494 115.62 170.4 109.254 165.785L112.118 163.716C118.961 168.649 124.054 179.63 123.258 184.086Z" fill="white"/>
<path d="M222.88 146.211L219.06 147.643C217.787 147.165 216.355 145.415 214.923 142.869C212.217 137.776 209.989 129.978 211.421 123.772L214.923 122.976C213.649 128.228 215.559 135.866 218.424 141.118C219.856 143.346 221.288 145.256 222.88 146.211Z" fill="white"/>
<path d="M169.568 139.049C168.136 133.639 161.293 130.456 163.362 132.366C164.476 133.48 165.431 137.617 165.908 140.163C166.704 144.619 164.476 149.394 159.383 150.985C154.45 152.576 148.721 150.348 146.652 146.211C145.22 143.346 143.469 140.641 143.31 141.118C142.992 141.755 143.151 144.938 143.947 147.325C145.697 152.258 150.471 155.441 155.882 155.441C157.314 155.441 158.906 155.282 160.338 154.645C167.659 152.417 171.16 145.574 169.568 139.049Z" fill="white"/>
<path d="M240.864 226.577C240.864 226.577 234.975 229.441 231.156 228.805C214.924 226.258 187.711 201.591 173.388 202.705C163.521 203.501 153.336 217.665 155.882 231.828C158.429 245.992 172.911 281.321 172.911 281.321C172.911 281.321 186.915 278.775 188.984 277.979C191.053 277.183 176.093 222.757 178.321 225.781C181.345 234.215 210.15 252.676 228.292 252.994C246.434 253.312 240.864 226.577 240.864 226.577Z" fill="#494F66"/>
<path d="M240.864 226.577C240.864 226.577 234.975 229.441 231.156 228.805C214.924 226.258 187.711 201.591 173.388 202.705C163.521 203.501 153.336 217.665 155.882 231.828C158.588 245.992 172.911 281.321 172.911 281.321C172.911 281.321 182.777 279.571 187.074 278.616C182.618 260.633 172.751 243.446 175.775 225.144C176.412 227.213 177.526 228.805 178.64 230.237C178.003 227.054 177.685 225.144 178.162 225.781C178.48 226.577 178.958 227.372 179.594 228.327C179.117 226.417 178.958 224.349 178.162 222.757C194.395 236.284 216.993 250.607 238.317 248.379C243.887 240.581 240.864 226.577 240.864 226.577Z" fill="#494F66"/>
<path d="M103.843 340.999C107.662 339.567 111.481 337.975 115.46 336.702C117.21 336.066 118.961 335.429 120.712 334.952C122.144 334.474 125.486 332.724 126.759 334.156C128.51 336.066 131.374 333.042 129.464 331.132C126.441 327.95 121.666 330.337 118.165 331.451C112.914 333.201 107.503 335.111 102.41 337.18C100.023 338.135 101.456 341.954 103.843 340.999Z" fill="#090909"/>
<path d="M102.093 297.076C111.164 293.416 124.532 295.644 128.828 297.235L130.897 304.874L104.002 307.739L102.093 297.076Z" fill="#AAB3C6"/>
<path d="M114.428 322.039C117.444 321.435 119.063 316.823 118.044 311.739C117.025 306.654 113.754 303.022 110.738 303.627C107.721 304.231 106.102 308.843 107.121 313.928C108.14 319.012 111.411 322.644 114.428 322.039Z" fill="#7A2250"/>
<path d="M109.095 325.563C108.14 325.244 98.5914 323.175 89.8387 321.584C86.6559 321.107 85.3827 320.629 85.0645 320.47C85.5419 320.47 86.0192 320.311 86.4967 320.311C92.544 319.993 103.843 321.743 104.798 321.584C110.05 320.947 93.8172 300.259 102.57 297.872C103.047 297.713 111.323 296.917 112.278 301.214C114.028 310.922 126.6 330.019 109.095 325.563Z" fill="#EF3340"/>
<path d="M139.968 345.774C139.809 346.888 139.49 348.002 139.013 348.797C138.376 350.07 137.422 351.025 136.308 351.503C132.011 353.253 96.204 349.434 83.3136 345.296C81.2447 344.66 79.6534 344.023 79.0168 343.227C78.2211 342.432 77.4254 341.477 76.7888 340.363C76.6297 340.204 76.6297 340.045 76.4705 339.885C76.3114 339.567 76.1523 339.09 75.834 338.612C75.834 338.453 75.6748 338.294 75.6748 337.976C76.6297 338.612 77.9028 339.249 79.335 339.885C82.3587 335.111 86.9738 327.95 88.4061 326.518C101.456 330.655 122.303 332.883 126.6 331.133C127.873 330.655 128.669 329.7 129.305 328.427C129.783 327.631 130.101 326.518 130.26 325.404C131.533 319.197 129.624 309.012 127.237 299.941C128.828 300.259 130.101 300.737 130.419 301.214C132.011 303.283 142.514 332.724 139.968 345.774Z" fill="#E5ACCE"/>
<path d="M139.968 345.614C139.809 346.728 139.49 347.842 139.013 348.638C138.376 349.911 137.422 350.866 136.308 351.343C132.011 353.094 96.2041 349.274 83.3137 345.137C82.9954 344.659 82.6771 344.341 82.518 343.863C82.3588 343.704 82.3589 343.545 82.1998 343.386C82.0406 343.068 81.8814 342.59 81.5632 342.113C81.404 341.635 81.5632 340.999 81.0858 340.681C80.4492 340.362 79.8126 340.203 79.3351 339.885C77.9029 339.248 76.7889 338.612 75.6749 337.975C75.5158 337.657 75.5158 337.498 75.3566 337.18C73.2878 330.655 75.5158 322.379 84.746 320.47C84.9051 320.47 85.0642 320.47 85.2234 320.47C85.5417 320.788 86.8148 321.106 89.9976 321.584C98.7504 323.016 108.299 325.244 109.254 325.562C116.256 327.313 114.187 314.422 112.277 304.396C111.8 301.85 113.71 299.463 116.256 299.304C120.394 299.145 124.531 299.463 127.237 299.941C128.828 300.259 130.101 300.736 130.419 301.214C132.011 303.282 142.514 332.724 139.968 345.614Z" fill="#7A2250"/>
<path d="M130.101 325.562C129.942 326.676 129.624 327.79 129.146 328.586C128.51 329.859 127.555 330.814 126.441 331.291C122.144 333.042 102.251 331.769 89.2018 327.631C87.7696 329.063 82.1996 335.27 79.176 340.044C77.7437 339.408 76.6297 338.771 75.5157 338.134C75.3566 337.816 75.3566 337.657 75.1974 337.339C73.1286 330.814 75.3566 322.539 84.5868 320.629C84.7459 320.629 84.9051 320.629 85.0642 320.629C85.3825 320.947 86.6556 321.266 89.8384 321.743C98.5912 323.175 108.14 325.403 109.094 325.721C116.574 327.631 113.71 312.194 111.8 302.169C111.641 301.055 112.436 299.781 113.55 299.781C113.869 299.781 114.028 299.781 114.346 299.781C114.505 299.781 114.505 299.781 114.664 299.781C114.824 299.781 115.142 299.781 115.301 299.781C115.938 299.781 116.733 299.781 117.37 299.622C117.529 299.622 117.847 299.622 118.006 299.622C120.075 299.622 121.985 299.781 123.735 299.941C123.895 299.941 123.895 299.941 124.054 299.941C125.168 300.1 126.282 300.259 127.077 300.418C129.624 309.171 131.374 319.197 130.101 325.562Z" fill="#EF3340"/>
<path d="M139.172 343.068C139.172 343.068 135.671 336.543 120.711 334.633C111.004 334.156 101.137 330.337 90.1564 327.313C82.1993 324.767 73.924 332.246 75.9928 339.567L76.4702 339.885C78.3799 346.251 85.223 351.502 94.294 353.253C106.707 355.799 120.075 353.253 130.26 353.094C138.376 352.298 141.718 349.115 139.172 343.068Z" fill="#303036"/>
<path d="M138.058 351.661C137.74 352.139 137.421 352.457 136.944 352.775C136.626 352.934 136.307 353.253 135.83 353.412C135.034 353.73 134.239 354.048 133.284 354.367C132.966 354.526 132.647 354.526 132.329 354.526C132.011 354.526 131.692 354.685 131.374 354.685C130.738 354.844 129.942 354.844 129.146 355.003H128.987C128.669 355.003 128.35 355.003 128.032 355.003C127.714 355.003 127.396 355.003 127.077 355.003C126.282 355.003 125.486 355.162 124.69 355.162C124.372 355.162 124.054 355.162 123.735 355.162C123.417 355.162 123.099 355.162 122.781 355.162C121.985 355.162 121.189 355.321 120.393 355.321C120.075 355.321 119.757 355.321 119.439 355.321C119.12 355.321 118.802 355.321 118.484 355.321C117.688 355.321 116.892 355.481 116.097 355.481C115.778 355.481 115.46 355.481 115.142 355.481C114.823 355.481 114.505 355.481 114.187 355.481C113.391 355.481 112.595 355.64 111.8 355.64C111.481 355.64 111.163 355.64 110.845 355.64C110.527 355.64 110.208 355.64 109.89 355.64C109.094 355.64 108.299 355.64 107.503 355.64C107.185 355.64 106.866 355.64 106.548 355.64C106.23 355.64 105.912 355.64 105.593 355.64C104.798 355.64 104.002 355.64 103.206 355.481C102.888 355.481 102.57 355.481 102.251 355.481C101.933 355.481 101.615 355.481 101.297 355.481C100.501 355.481 99.7051 355.321 98.9094 355.162C98.5911 355.162 98.2728 355.162 97.9545 355.003C97.6362 355.003 97.318 354.844 96.9997 354.844C96.204 354.685 95.4082 354.526 94.7717 354.367H94.6126C94.4534 354.367 94.2943 354.367 94.1352 354.207C93.976 354.207 93.976 354.207 93.8169 354.207C93.4986 354.207 93.1802 354.048 92.862 354.048C92.0663 353.889 91.4298 353.571 90.634 353.412C90.3158 353.253 89.9975 353.253 89.8383 353.093C89.5201 352.934 89.2018 352.934 89.0426 352.775C88.2469 352.457 87.6103 352.139 86.8146 351.82C86.4963 351.661 86.1781 351.502 86.0189 351.343C85.7006 351.184 85.3824 351.025 85.2232 350.866C84.4275 350.388 83.791 350.07 83.1544 349.592C82.8361 349.433 82.5178 349.274 82.3587 349.115C82.0404 348.956 81.8813 348.797 81.563 348.478C80.7673 348.001 80.1307 347.364 79.4942 346.728C79.1759 346.41 79.0168 346.25 78.6985 345.932C78.3802 345.614 78.221 345.455 77.9028 345.136C77.1071 344.341 76.4705 343.386 75.9931 342.59C75.6748 342.113 75.5156 341.635 75.3565 341.317C75.1973 340.999 75.0382 340.521 74.879 340.203C74.879 340.044 74.7199 339.726 74.7199 339.567C74.4017 337.816 74.7199 335.906 75.6748 334.156C75.993 333.519 76.4704 332.883 76.9479 332.405C77.2661 331.928 77.7436 331.609 78.0619 331.291C78.8576 330.655 79.8124 330.018 80.7673 329.541C81.0856 329.382 81.4038 329.222 81.7221 329.063C82.0404 328.904 82.3587 328.904 82.677 328.745C83.4727 328.586 84.2684 328.427 85.0641 328.427H86.0189L86.9738 328.586C87.4512 328.586 88.0878 328.745 88.5652 328.904C88.7244 328.904 89.0426 329.063 89.2017 329.063C89.52 329.222 89.8384 329.222 90.1566 329.381C90.4749 329.541 90.7932 329.541 90.9523 329.7C91.7481 329.859 92.3846 330.177 93.1803 330.336C93.4985 330.495 93.8169 330.495 94.1352 330.655C94.4534 330.814 94.7717 330.814 95.09 330.973C95.8857 331.132 96.5223 331.45 97.318 331.609C97.6363 331.769 97.9545 331.769 98.2728 331.928L99.2276 332.246C100.023 332.405 100.66 332.723 101.456 332.883C101.774 333.042 102.092 333.042 102.41 333.201C102.729 333.36 103.047 333.36 103.365 333.519C104.161 333.678 104.798 333.997 105.593 334.156C105.912 334.156 106.23 334.315 106.548 334.315C106.866 334.315 107.185 334.474 107.503 334.474C108.299 334.633 108.935 334.792 109.731 334.951C110.049 334.951 110.367 335.111 110.686 335.111C111.004 335.111 111.322 335.27 111.641 335.27C112.436 335.429 113.232 335.588 113.869 335.747C114.187 335.747 114.505 335.906 114.823 335.906C115.142 335.906 115.46 336.065 115.778 336.065C116.574 336.225 117.37 336.225 118.006 336.384C118.325 336.384 118.643 336.384 118.961 336.384C119.279 336.384 119.439 336.384 119.757 336.384H119.916C120.712 336.543 121.507 336.543 122.144 336.702C122.462 336.702 122.78 336.861 123.099 336.861C123.417 336.861 123.735 337.02 124.054 337.02C124.849 337.179 125.645 337.339 126.282 337.498L127.236 337.657C127.555 337.657 127.873 337.816 128.191 337.816C128.987 337.975 129.783 338.293 130.419 338.453C130.738 338.612 131.056 338.612 131.215 338.771C131.533 338.93 131.852 338.93 132.011 339.089C132.806 339.407 133.443 339.885 134.08 340.362C134.398 340.521 134.557 340.84 134.875 340.999C135.194 341.158 135.353 341.476 135.671 341.635C136.307 342.272 136.944 343.068 137.581 343.863C137.74 344.182 138.058 344.5 138.217 344.818C138.217 344.977 138.217 344.977 138.376 345.136C138.695 345.773 138.854 346.41 139.013 347.046C139.172 348.956 138.854 350.547 138.058 351.661Z" fill="#303036"/>
<path d="M76.4704 343.227C76.1521 342.75 75.993 342.272 75.8339 341.954C75.6747 341.636 75.5155 341.158 75.3564 340.84C75.3564 340.681 75.1973 340.363 75.1973 340.203L76.1521 334.793C76.4704 334.156 76.9479 333.519 77.4253 333.042C77.7436 332.565 78.2209 332.246 78.5392 331.928L76.4704 343.227Z" fill="#3D3D44"/>
<path d="M79.9713 347.364C79.653 347.046 79.4939 346.887 79.1756 346.569C78.8573 346.25 78.6982 346.091 78.3799 345.773L81.2444 329.859C81.5627 329.7 81.881 329.541 82.1993 329.382C82.5176 329.222 82.8358 329.222 83.1541 329.063L79.9713 347.364Z" fill="#3D3D44"/>
<path d="M83.6314 350.229C83.3132 350.07 82.9949 349.911 82.8357 349.752C82.5175 349.592 82.3583 349.433 82.04 349.115L85.7003 328.904H86.6552L87.61 329.063L83.6314 350.229Z" fill="#3D3D44"/>
<path d="M87.4508 352.298C87.1325 352.139 86.8142 351.98 86.6551 351.821C86.3368 351.662 86.0185 351.503 85.8594 351.343L89.8379 329.382C90.1562 329.541 90.4744 329.541 90.7927 329.7C91.111 329.859 91.4293 329.859 91.5884 330.019L87.4508 352.298Z" fill="#3D3D44"/>
<path d="M91.4293 353.889C91.111 353.73 90.7927 353.73 90.6336 353.571C90.3153 353.411 89.997 353.411 89.8379 353.252L93.9755 330.654C94.2938 330.813 94.6121 330.813 94.9304 330.973C95.2487 331.132 95.5669 331.132 95.8852 331.291L91.4293 353.889Z" fill="#3D3D44"/>
<path d="M99.5454 332.406L95.4078 355.004H95.2486L94.4529 354.844L93.498 354.685L97.6357 331.928C97.954 332.087 98.2723 332.087 98.5906 332.246L99.5454 332.406Z" fill="#3D3D44"/>
<path d="M99.5455 355.64C99.2272 355.64 98.9089 355.64 98.5906 355.481C98.2724 355.481 97.954 355.321 97.6357 355.321L101.773 333.042C102.092 333.201 102.41 333.201 102.728 333.36C103.047 333.519 103.365 333.519 103.683 333.678L99.5455 355.64Z" fill="#3D3D44"/>
<path d="M103.683 355.959H102.728H101.773L105.752 334.316C106.07 334.316 106.388 334.475 106.707 334.475C107.025 334.475 107.343 334.634 107.662 334.634L103.683 355.959Z" fill="#3D3D44"/>
<path d="M107.821 356.117H106.866H105.911L109.731 335.111C110.049 335.111 110.367 335.27 110.685 335.27C111.004 335.27 111.322 335.429 111.64 335.429L107.821 356.117Z" fill="#3D3D44"/>
<path d="M111.958 355.958C111.64 355.958 111.322 355.958 111.004 355.958C110.685 355.958 110.367 355.958 110.049 355.958L113.709 335.747C114.027 335.747 114.346 335.906 114.664 335.906C114.982 335.906 115.3 336.065 115.619 336.065L111.958 355.958Z" fill="#3D3D44"/>
<path d="M116.255 355.799C115.937 355.799 115.619 355.799 115.301 355.799C114.982 355.799 114.664 355.799 114.346 355.799L117.847 336.384C118.165 336.384 118.483 336.384 118.802 336.384C119.12 336.384 119.279 336.384 119.597 336.384H119.757L116.255 355.799Z" fill="#3D3D44"/>
<path d="M120.552 355.481C120.234 355.481 119.916 355.481 119.597 355.481C119.279 355.481 118.961 355.481 118.643 355.481L121.985 336.702C122.303 336.702 122.621 336.861 122.939 336.861C123.258 336.861 123.576 337.02 123.894 337.02L120.552 355.481Z" fill="#3D3D44"/>
<path d="M127.077 337.657C127.395 337.657 127.714 337.816 128.032 337.816L124.849 355.003C124.531 355.003 124.213 355.003 123.894 355.003C123.576 355.003 123.258 355.003 122.939 355.003L126.122 337.179L127.077 337.657Z" fill="#3D3D44"/>
<path d="M128.987 355.003C128.669 355.003 128.35 355.003 128.032 355.003C127.714 355.003 127.395 355.003 127.077 355.003L130.101 338.453C130.419 338.612 130.737 338.612 130.897 338.771C131.215 338.93 131.533 338.93 131.692 339.089L128.987 355.003Z" fill="#3D3D44"/>
<path d="M133.284 354.367C132.965 354.526 132.647 354.526 132.329 354.526C132.011 354.526 131.692 354.685 131.374 354.685L133.92 340.521C134.239 340.681 134.398 340.999 134.716 341.158C135.034 341.317 135.193 341.635 135.512 341.795L133.284 354.367Z" fill="#3D3D44"/>
<path d="M138.058 351.661C137.74 352.139 137.422 352.457 136.944 352.775C136.626 352.934 136.308 353.253 135.83 353.412L137.581 344.182C137.74 344.5 138.058 344.818 138.217 345.137C138.217 345.296 138.217 345.296 138.376 345.455C138.695 346.091 138.854 346.728 139.013 347.365L138.058 351.661Z" fill="#3D3D44"/>
<path d="M102.57 309.012C102.411 309.012 102.093 308.853 101.933 308.693C101.297 308.216 101.138 307.261 101.774 306.625C104.639 303.124 109.254 301.691 115.301 302.646C116.097 302.805 116.734 303.601 116.574 304.397C116.415 305.192 115.62 305.829 114.824 305.67C109.891 304.874 106.389 305.988 104.162 308.534C103.684 309.012 103.048 309.171 102.57 309.012Z" fill="white"/>
<path d="M115.938 310.284C111.482 309.33 107.503 309.966 104.161 312.672L115.938 310.284Z" fill="#7A2250"/>
<path d="M103.843 314.104C103.525 314.104 103.207 313.786 102.888 313.627C102.411 312.99 102.411 312.035 103.207 311.558C106.708 308.693 111.005 307.898 116.097 308.852C116.256 308.852 116.256 308.852 116.415 308.852C117.211 309.011 117.688 309.807 117.529 310.603C117.37 311.399 116.574 311.876 115.779 311.717C111.641 310.762 108.14 311.399 105.275 313.786C104.798 314.104 104.321 314.104 103.843 314.104Z" fill="white"/>
<path d="M116.575 316.332C112.437 315.059 108.777 315.537 105.594 317.606L116.575 316.332Z" fill="#7A2250"/>
<path d="M105.275 319.197C104.957 319.197 104.479 318.879 104.32 318.561C103.843 317.924 104.002 316.969 104.798 316.492C108.458 314.105 112.596 313.627 117.052 315.06C117.847 315.378 118.325 316.174 118.006 316.969C117.688 317.765 116.892 318.242 116.097 317.924C112.437 316.81 109.254 317.128 106.389 319.038C106.071 319.197 105.594 319.197 105.275 319.197Z" fill="white"/>
<path d="M167.499 267.954C174.501 265.089 193.916 264.93 196.144 267.954L198.213 275.592L171.318 278.457L167.499 267.954Z" fill="#AAB3C6"/>
<path d="M174.501 284.345C173.546 279.253 175.138 274.638 178.161 274.16C181.185 273.524 184.368 277.184 185.482 282.277C186.437 287.369 184.845 291.984 181.821 292.462C178.798 293.098 175.456 289.438 174.501 284.345Z" fill="#7A2250"/>
<path d="M176.252 296.758C175.297 296.44 166.226 294.848 157.473 293.257C154.291 292.779 153.017 291.188 152.062 290.87C152.54 290.87 153.336 290.711 153.813 290.711C159.86 290.392 171.159 292.143 172.114 291.984C177.366 291.347 158.11 270.818 169.886 268.272C170.364 268.113 178.639 268.113 179.594 272.25C181.344 281.958 193.598 301.214 176.252 296.758Z" fill="#EF3340"/>
<path d="M207.125 316.174C206.966 317.288 206.648 318.402 206.17 319.197C205.534 320.47 204.579 321.425 203.465 321.903C199.168 323.653 163.361 319.834 150.471 315.696C148.402 315.06 146.811 314.423 146.174 313.627C145.378 312.832 144.583 311.877 143.946 310.763C143.787 310.604 143.787 310.444 143.628 310.285C143.469 309.967 143.309 309.49 142.991 309.012C142.991 308.853 142.832 308.694 142.832 308.376C143.787 309.012 145.06 309.649 146.492 310.285C149.516 305.511 154.131 298.35 155.563 296.918C168.613 301.055 189.46 303.283 193.757 301.533C195.03 301.055 195.826 300.1 196.463 298.827C196.94 298.031 197.258 296.917 197.417 295.803C198.69 289.597 196.781 279.412 194.394 270.341C195.985 270.659 197.258 271.137 197.577 271.614C199.327 273.683 209.671 303.124 207.125 316.174Z" fill="#9E2966"/>
<path d="M185.005 323.176C192.007 324.926 189.938 312.036 188.028 302.01C187.551 299.464 189.461 297.077 192.007 296.917C196.145 296.758 200.282 297.077 202.988 297.554C204.579 297.872 205.852 298.35 206.17 298.827C207.762 300.896 218.265 330.337 215.719 343.228C215.56 344.342 215.241 345.455 214.764 346.251C214.127 347.524 213.173 348.479 212.059 348.957C207.762 350.707 171.955 346.888 159.065 342.75C158.746 342.273 158.428 341.954 158.269 341.477C158.11 341.318 158.11 341.159 157.951 341C157.792 340.681 157.632 340.204 157.314 339.726C157.155 339.249 157.314 338.612 156.837 338.294C156.2 337.976 155.564 337.817 155.086 337.498C153.654 336.862 152.54 336.225 151.426 335.589C151.267 335.27 151.267 335.111 151.108 334.793C149.039 328.268 151.267 319.993 160.497 318.083C160.656 318.083 162.247 317.924 162.407 317.924" fill="#7A2250"/>
<path d="M197.417 295.963C197.258 297.077 196.94 298.191 196.463 298.986C195.826 300.259 194.871 301.214 193.757 301.692C189.779 303.283 171.637 301.692 158.746 298.031C156.837 297.554 154.609 298.191 153.495 299.941C151.426 302.806 148.72 307.262 146.652 310.444C145.219 309.808 144.105 309.171 142.991 308.535C142.832 308.216 142.832 308.057 142.673 307.739C140.604 301.214 142.832 292.939 152.062 291.029C152.221 291.029 175.456 295.803 176.411 295.963C183.89 297.872 181.026 282.436 179.116 272.41C178.957 271.296 179.753 270.182 180.867 270.023C181.185 270.023 181.344 270.023 181.663 270.023C181.822 270.023 181.822 270.023 181.981 270.023C182.14 270.023 182.458 270.023 182.617 270.023C183.254 270.023 184.05 270.023 184.686 269.863C184.845 269.863 185.164 269.863 185.323 269.863C187.392 269.863 189.301 270.023 191.052 270.182C191.211 270.182 191.211 270.182 191.37 270.182C192.484 270.341 193.598 270.5 194.394 270.659C196.781 279.571 198.691 289.597 197.417 295.963Z" fill="#EF3340"/>
<path d="M184.527 274.956C184.209 276.07 183.095 276.866 181.981 276.706C180.867 276.547 180.071 275.274 180.23 274.16C180.389 273.046 181.662 272.251 182.776 272.41C184.05 272.569 184.845 273.683 184.527 274.956Z" fill="#3D3D44"/>
<path d="M185.641 281.163C185.323 282.277 184.209 283.072 183.095 282.913C181.981 282.595 181.185 281.481 181.344 280.367C181.663 279.253 182.777 278.457 183.891 278.616C185.164 278.775 185.96 279.889 185.641 281.163Z" fill="#3D3D44"/>
<path d="M186.436 287.369C186.118 288.483 185.004 289.279 183.89 289.119C182.776 288.801 181.98 287.687 182.139 286.573C182.299 285.459 183.572 284.664 184.686 284.823C185.959 284.982 186.595 286.255 186.436 287.369Z" fill="#3D3D44"/>
<path d="M206.488 313.468C206.488 313.468 202.987 306.943 188.028 305.033C178.32 304.556 168.454 300.736 157.473 297.713C149.516 295.167 141.24 302.646 143.309 309.967L143.787 310.285C145.696 316.651 152.539 321.902 161.61 323.653C174.023 326.199 187.391 323.653 197.576 323.494C205.533 322.698 209.034 319.515 206.488 313.468Z" fill="#303036"/>
<path d="M205.215 322.061C204.897 322.539 204.579 322.857 204.101 323.175C203.783 323.335 203.465 323.653 202.987 323.812C202.192 324.13 201.396 324.449 200.441 324.767C200.123 324.767 199.804 324.926 199.486 324.926C199.168 324.926 198.85 325.085 198.531 325.085C197.895 325.244 197.099 325.244 196.303 325.403H196.144C195.826 325.403 195.508 325.403 195.189 325.403C194.871 325.403 194.553 325.403 194.234 325.403C193.439 325.403 192.643 325.563 191.847 325.563C191.529 325.563 191.211 325.563 190.893 325.563C190.574 325.563 190.256 325.563 189.938 325.563C189.142 325.563 188.346 325.722 187.551 325.722C187.232 325.722 186.914 325.722 186.596 325.722C186.277 325.722 185.959 325.722 185.641 325.722C184.845 325.722 184.05 325.881 183.254 325.881C182.936 325.881 182.617 325.881 182.299 325.881C181.981 325.881 181.662 325.881 181.344 325.881C180.548 325.881 179.753 326.04 178.957 326.04C178.639 326.04 178.32 326.04 178.002 326.04C177.684 326.04 177.366 326.04 177.047 326.04C176.252 326.04 175.456 326.04 174.66 326.04C174.342 326.04 174.024 326.04 173.705 326.04C173.387 326.04 173.069 326.04 172.75 326.04C171.955 326.04 171.159 326.04 170.363 325.881C170.045 325.881 169.727 325.881 169.409 325.881C169.09 325.881 168.772 325.881 168.454 325.881C167.658 325.881 166.862 325.722 166.067 325.563C165.748 325.563 165.43 325.563 165.112 325.403C164.793 325.403 164.475 325.244 164.157 325.244C163.361 325.085 162.565 324.926 161.929 324.767H161.77C161.611 324.767 161.451 324.767 161.292 324.608C161.133 324.608 161.133 324.608 160.974 324.608C160.656 324.608 160.337 324.449 160.019 324.449C159.223 324.289 158.587 323.971 157.791 323.812C157.473 323.653 157.155 323.653 156.996 323.494C156.677 323.335 156.359 323.335 156.2 323.175C155.404 322.857 154.768 322.539 153.972 322.221C153.654 322.061 153.335 321.902 153.176 321.743C152.858 321.584 152.54 321.425 152.38 321.266C151.585 320.788 150.948 320.47 150.312 319.993C149.993 319.833 149.675 319.674 149.516 319.515C149.198 319.356 149.038 319.197 148.72 318.879C147.925 318.401 147.288 317.765 146.651 317.128C146.333 316.81 146.174 316.651 145.856 316.332C145.537 316.014 145.378 315.855 145.06 315.537C144.264 314.741 143.628 313.786 143.15 312.99C142.832 312.513 142.673 312.036 142.514 311.717C142.355 311.399 142.195 310.922 142.036 310.603C142.036 310.444 141.877 310.126 141.877 309.967C141.559 308.216 141.877 306.306 142.832 304.556C143.15 303.919 143.628 303.283 144.105 302.805C144.423 302.328 144.901 302.01 145.219 301.691C146.015 301.055 146.97 300.418 147.925 299.941C148.243 299.782 148.561 299.623 148.879 299.463C149.198 299.304 149.516 299.304 149.834 299.145C150.63 298.986 151.426 298.827 152.221 298.827H153.176L154.131 298.986C154.608 298.986 155.245 299.145 155.722 299.304C155.882 299.304 156.2 299.463 156.359 299.463C156.677 299.623 156.995 299.623 157.314 299.782C157.632 299.941 157.95 299.941 158.109 300.1C158.905 300.259 159.542 300.577 160.337 300.737C160.656 300.896 160.974 300.896 161.292 301.055C161.611 301.214 161.929 301.214 162.247 301.373C163.043 301.532 163.679 301.851 164.475 302.01C164.793 302.169 165.112 302.169 165.43 302.328L166.385 302.646C167.181 302.805 167.817 303.124 168.613 303.283C168.931 303.442 169.249 303.442 169.568 303.601C169.886 303.76 170.204 303.76 170.523 303.919C171.318 304.079 171.955 304.397 172.75 304.556C173.069 304.556 173.387 304.715 173.705 304.715C174.024 304.715 174.342 304.874 174.66 304.874C175.456 305.033 176.092 305.192 176.888 305.352C177.206 305.352 177.525 305.511 177.843 305.511C178.161 305.511 178.48 305.67 178.798 305.67C179.594 305.829 180.389 305.988 181.026 306.147C181.344 306.147 181.662 306.306 181.981 306.306C182.299 306.306 182.617 306.466 182.936 306.466C183.731 306.625 184.527 306.625 185.163 306.784C185.482 306.784 185.8 306.784 186.118 306.784C186.437 306.784 186.596 306.784 186.914 306.784H187.073C187.869 306.943 188.665 306.943 189.301 307.102C189.619 307.102 189.938 307.261 190.256 307.261C190.574 307.261 190.893 307.42 191.211 307.42C192.007 307.58 192.802 307.739 193.439 307.898L194.394 308.057C194.712 308.057 195.03 308.216 195.349 308.216C196.144 308.375 196.94 308.694 197.577 308.853C197.895 309.012 198.213 309.012 198.372 309.171C198.691 309.33 199.009 309.33 199.168 309.489C199.964 309.808 200.6 310.285 201.237 310.762C201.555 310.922 201.714 311.24 202.032 311.399C202.351 311.558 202.51 311.876 202.828 312.036C203.465 312.672 204.101 313.468 204.738 314.264C204.897 314.582 205.215 314.9 205.374 315.218C205.374 315.378 205.374 315.378 205.534 315.537C205.852 316.173 206.011 316.81 206.17 317.446C206.329 319.356 206.17 320.947 205.215 322.061Z" fill="#303036"/>
<path d="M143.787 313.468C143.468 312.991 143.309 312.513 143.15 312.195C142.991 311.877 142.832 311.399 142.673 311.081C142.673 310.922 142.514 310.603 142.514 310.444L143.469 305.034C143.787 304.397 144.264 303.76 144.742 303.283C145.06 302.806 145.537 302.487 145.856 302.169L143.787 313.468Z" fill="#3D3D44"/>
<path d="M147.288 317.605C146.969 317.287 146.81 317.128 146.492 316.809C146.174 316.491 146.015 316.332 145.696 316.014L148.561 300.1C148.879 299.94 149.197 299.781 149.516 299.622C149.834 299.463 150.152 299.463 150.471 299.304L147.288 317.605Z" fill="#3D3D44"/>
<path d="M150.948 320.47C150.63 320.311 150.311 320.152 150.152 319.993C149.834 319.834 149.675 319.674 149.356 319.356L153.017 299.145H153.972L154.926 299.304L150.948 320.47Z" fill="#3D3D44"/>
<path d="M154.767 322.539C154.449 322.38 154.131 322.221 153.971 322.061C153.653 321.902 153.335 321.743 153.176 321.584L157.154 299.622C157.473 299.782 157.791 299.782 158.109 299.941C158.427 300.1 158.746 300.1 158.905 300.259L154.767 322.539Z" fill="#3D3D44"/>
<path d="M158.587 324.13C158.268 323.971 157.95 323.971 157.791 323.812C157.473 323.653 157.154 323.653 156.995 323.494L161.133 300.896C161.451 301.055 161.769 301.055 162.088 301.214C162.406 301.373 162.724 301.373 163.042 301.532L158.587 324.13Z" fill="#3D3D44"/>
<path d="M166.703 302.646L162.565 325.244H162.406L161.61 325.085L160.655 324.926L164.793 302.169C165.111 302.328 165.43 302.328 165.748 302.487L166.703 302.646Z" fill="#3D3D44"/>
<path d="M166.703 325.881C166.384 325.881 166.066 325.881 165.748 325.722C165.43 325.722 165.111 325.563 164.793 325.563L168.931 303.283C169.249 303.442 169.567 303.442 169.885 303.601C170.204 303.761 170.522 303.761 170.84 303.92L166.703 325.881Z" fill="#3D3D44"/>
<path d="M170.841 326.358H169.886H168.932L172.91 304.715C173.228 304.715 173.547 304.874 173.865 304.874C174.183 304.874 174.501 305.034 174.82 305.034L170.841 326.358Z" fill="#3D3D44"/>
<path d="M174.978 326.517H174.023H173.068L177.047 305.511C177.365 305.511 177.683 305.67 178.002 305.67C178.32 305.67 178.638 305.829 178.957 305.829L174.978 326.517Z" fill="#3D3D44"/>
<path d="M179.275 326.359C178.957 326.359 178.638 326.359 178.32 326.359C178.002 326.359 177.684 326.359 177.365 326.359L181.025 306.148C181.344 306.148 181.662 306.307 181.98 306.307C182.299 306.307 182.617 306.466 182.935 306.466L179.275 326.359Z" fill="#3D3D44"/>
<path d="M183.413 326.199C183.094 326.199 182.776 326.199 182.458 326.199C182.14 326.199 181.821 326.199 181.503 326.199L185.004 306.784C185.322 306.784 185.641 306.784 185.959 306.784C186.277 306.784 186.436 306.784 186.755 306.784H186.914L183.413 326.199Z" fill="#3D3D44"/>
<path d="M187.71 325.881C187.391 325.881 187.073 325.881 186.755 325.881C186.436 325.881 186.118 325.881 185.8 325.881L189.142 307.102C189.46 307.102 189.778 307.261 190.097 307.261C190.415 307.261 190.733 307.421 191.051 307.421L187.71 325.881Z" fill="#3D3D44"/>
<path d="M194.234 308.216C194.553 308.216 194.871 308.375 195.189 308.375L192.006 325.563C191.688 325.563 191.37 325.563 191.051 325.563C190.733 325.563 190.415 325.563 190.097 325.563L193.279 307.739L194.234 308.216Z" fill="#3D3D44"/>
<path d="M196.303 325.403C195.985 325.403 195.667 325.403 195.348 325.403C195.03 325.403 194.712 325.403 194.394 325.403L197.417 308.852C197.735 309.012 198.054 309.012 198.213 309.171C198.531 309.33 198.849 309.33 199.009 309.489L196.303 325.403Z" fill="#3D3D44"/>
<path d="M200.6 324.767C200.282 324.767 199.964 324.926 199.645 324.926C199.327 324.926 199.009 325.085 198.69 325.085L201.237 310.922C201.555 311.081 201.714 311.399 202.032 311.558C202.351 311.717 202.51 312.036 202.828 312.195L200.6 324.767Z" fill="#3D3D44"/>
<path d="M205.215 322.062C204.897 322.539 204.579 322.857 204.101 323.176C203.783 323.335 203.465 323.653 202.987 323.812L204.738 314.582C204.897 314.9 205.215 315.219 205.374 315.537C205.374 315.696 205.374 315.696 205.534 315.855C205.852 316.492 206.011 317.128 206.17 317.765L205.215 322.062Z" fill="#3D3D44"/>
<path d="M168.136 281.321C167.976 281.321 167.658 281.162 167.499 281.003C166.862 280.526 166.703 279.571 167.34 278.934C170.204 275.433 176.57 272.091 182.458 273.046C183.254 273.205 183.89 274.001 183.731 274.797C183.572 275.592 182.776 276.229 181.981 276.07C177.366 275.433 172.114 277.979 169.727 281.003C169.25 281.321 168.613 281.481 168.136 281.321Z" fill="white"/>
<path d="M183.254 280.685C178.798 279.73 174.024 281.958 170.682 284.664L183.254 280.685Z" fill="#7A2250"/>
<path d="M170.364 286.096C170.045 286.096 169.727 285.778 169.409 285.619C168.931 284.982 168.931 284.027 169.727 283.55C171.955 281.799 177.525 277.98 183.413 279.253H183.572C184.368 279.412 184.845 280.208 184.686 281.003C184.527 281.799 183.732 282.277 182.936 282.117C182.936 282.117 182.936 282.117 182.777 282.117C178.162 281.163 173.387 284.345 171.637 285.778C171.318 286.096 170.841 286.255 170.364 286.096Z" fill="white"/>
<path d="M183.732 286.732C179.594 285.459 175.934 287.209 172.592 289.437L183.732 286.732Z" fill="#7A2250"/>
<path d="M172.432 290.87C172.114 290.87 171.637 290.551 171.478 290.233C171 289.597 171.159 288.642 171.955 288.164C175.138 286.095 179.435 283.867 184.368 285.3C185.164 285.618 185.641 286.414 185.323 287.209C185.005 288.005 184.209 288.483 183.413 288.164C179.753 287.05 176.411 288.801 173.546 290.551C173.228 290.87 172.751 290.87 172.432 290.87Z" fill="white"/>
<path d="M299.746 304.556C289.72 321.743 268.077 335.27 243.728 350.866C199.009 376.488 157.314 398.131 121.508 412.135C120.075 412.772 118.643 413.249 117.211 414.045C92.5441 426.776 45.9157 427.731 21.2488 415.159C-5.80512 403.064 0.401439 379.034 9.47247 373.782C17.7478 368.849 46.5523 369.008 58.1696 364.87C59.4427 364.393 60.875 363.916 62.1481 363.597C64.5352 362.961 68.0364 361.529 72.6515 359.46C79.4945 356.436 88.4064 351.98 98.9097 346.569C113.551 338.93 130.897 329.382 148.721 319.038C157.155 314.105 165.908 309.012 174.342 303.919C194.235 291.825 213.809 279.571 229.723 268.431C269.35 239.627 326.799 259.837 299.746 304.556Z" fill="#454A4D"/>
<path d="M175.298 321.106L145.856 338.294L148.721 319.037C157.155 314.104 165.908 309.012 174.343 303.919C174.661 311.717 175.298 321.106 175.298 321.106Z" fill="#101B23"/>
<path d="M99.3874 359.619L69.9463 376.806L72.4925 359.46C79.3356 356.436 88.2475 351.98 98.7508 346.57C99.069 353.253 99.3874 359.619 99.3874 359.619Z" fill="#101B23"/>
<path d="M306.907 287.687C310.249 257.291 265.848 248.697 231.951 273.046C184.846 305.511 108.458 348.319 75.0383 363.597C73.7651 364.234 72.4919 364.711 71.378 365.188C67.0811 367.098 63.7393 368.371 61.5113 368.849C60.3973 369.167 59.1242 369.485 58.0102 369.963C52.122 371.872 40.6638 372.191 29.8422 372.827C18.5432 373.464 7.72161 374.259 4.37965 377.442C-3.09998 384.922 -3.57742 405.928 23.954 418.182C37.4809 425.025 56.737 428.686 75.3565 428.686C88.0878 428.686 100.66 426.776 111.004 423.116C114.028 422.002 117.051 420.729 119.598 419.296C156.359 405.451 199.168 383.49 245.319 357.39C245.797 357.072 246.274 356.913 246.592 356.595C255.982 350.547 264.575 344.341 272.055 338.134C284.15 328.109 293.539 317.605 299.904 306.943C304.042 299.781 306.27 293.416 306.907 287.687Z" fill="#694F62"/>
<path d="M137.899 358.504C147.766 335.588 164.157 319.037 182.777 304.556C142.355 329.063 98.432 352.934 75.0383 363.597C73.7651 364.233 72.4919 364.711 71.378 365.188C67.0811 367.098 63.7393 368.371 61.5113 368.848C60.3973 369.167 59.1242 369.485 58.0102 369.962C52.122 371.872 40.6638 372.19 29.8422 372.827C18.5432 373.464 7.72161 374.259 4.37965 377.442C-3.09998 384.922 -3.57742 405.928 23.954 418.182C37.4809 425.025 56.737 428.686 75.3565 428.686C88.0878 428.686 100.66 426.776 111.004 423.116C114.028 422.002 117.051 420.728 119.598 419.296C125.009 417.227 130.738 414.999 136.467 412.453C126.759 397.812 131.215 374.737 137.899 358.504Z" fill="#A9B1D1"/>
<path d="M231.952 273.046C217.629 282.913 200.442 293.893 182.618 304.556C163.998 318.878 147.607 335.588 137.74 358.504C131.056 374.737 126.759 397.812 136.149 412.453C168.932 398.608 205.693 379.511 245.001 357.231C245.479 356.913 245.956 356.754 246.274 356.436C255.664 350.388 264.257 344.182 271.737 337.975C283.832 327.949 293.221 317.446 299.587 306.784C303.883 299.622 306.27 293.257 306.748 287.528C310.249 257.45 265.849 248.697 231.952 273.046Z" fill="#C1C6DB"/>
<g opacity="0.95">
<path opacity="0.95" d="M110.845 423.117C100.501 426.936 87.9291 428.686 75.1979 428.686C62.7849 420.093 45.4385 403.701 29.6836 372.828C40.5052 372.191 51.9632 371.873 57.8515 369.963C58.9655 369.645 60.2386 369.168 61.3526 368.849C63.5806 368.213 66.9225 366.94 71.2193 365.189C71.3785 365.348 71.5376 365.508 71.5376 365.508L110.845 423.117Z" fill="#AAB3C6"/>
</g>
<g opacity="0.53">
<path opacity="0.53" d="M271.895 338.134C264.097 344.659 255.026 351.025 245.16 357.39C240.863 349.274 234.338 338.293 224.79 325.244C203.942 296.439 208.398 295.962 212.695 288.164L271.1 335.111L271.895 338.134Z" fill="#AAB3C6"/>
</g>
<path d="M258.528 298.667L263.78 304.078C267.122 307.579 267.122 313.149 263.621 316.491L253.277 326.517C249.775 329.859 244.205 329.859 240.864 326.358L235.612 320.947C232.27 317.446 232.27 311.876 235.771 308.534L246.115 298.508C249.616 295.166 255.186 295.166 258.528 298.667Z" fill="#343743"/>
<path d="M261.233 301.054L266.644 306.624C270.145 310.125 269.986 315.854 266.485 319.355L255.982 329.7C252.481 333.201 246.751 333.042 243.25 329.54L237.84 323.971C234.339 320.469 234.498 314.74 237.999 311.239L248.502 300.895C252.162 297.394 257.891 297.553 261.233 301.054Z" fill="#6D7184"/>
<path d="M280.171 339.726C282.399 344.341 279.216 350.388 273.328 353.253C267.281 356.117 260.756 354.685 258.528 350.07C256.3 345.455 259.483 339.408 265.371 336.543C271.419 333.678 277.943 335.111 280.171 339.726Z" fill="#D7932A"/>
<path d="M264.098 356.595C260.438 355.799 257.892 353.89 256.46 351.025C253.754 345.296 257.255 337.976 264.417 334.634C271.419 331.292 279.535 333.201 282.24 338.931C284.946 344.66 281.445 351.98 274.283 355.322C270.941 356.754 267.44 357.232 264.098 356.595ZM273.647 337.498C271.419 337.021 268.873 337.339 266.326 338.612C261.552 340.84 258.847 345.614 260.597 349.116C261.393 350.707 262.984 351.821 265.053 352.298C267.44 352.776 269.987 352.457 272.374 351.344C277.148 349.116 279.853 344.341 278.103 340.84C277.307 338.931 275.716 337.976 273.647 337.498Z" fill="#D7932A"/>
<path d="M269.668 323.97L279.535 335.587L258.21 353.093L247.548 341.476L269.668 323.97Z" fill="#D7932A"/>
<path d="M258.21 353.412L247.07 341.476L269.668 323.493L280.013 335.429L258.21 353.412ZM248.025 341.635L258.369 352.775L279.217 335.588L269.668 324.448L248.025 341.635Z" fill="#D7932A"/>
<path d="M269.19 326.358C271.577 330.178 269.19 336.225 263.62 339.726C258.05 343.227 251.526 343.545 248.979 339.726C246.592 335.907 249.139 329.382 254.708 325.722C260.278 322.38 266.803 322.539 269.19 326.358Z" fill="#101B23"/>
<path d="M252.64 344.5C250.412 344.023 248.502 342.909 247.229 340.999C244.046 336.066 246.911 328.427 253.595 324.13C256.618 322.221 260.119 321.107 263.302 321.266C266.803 321.425 269.509 322.857 271.1 325.244C274.283 330.178 271.418 337.339 264.894 341.477C260.438 344.341 256.141 345.296 252.64 344.5ZM264.416 325.563C263.939 325.403 263.461 325.403 263.143 325.403C260.756 325.244 258.21 326.04 255.823 327.631C250.889 330.814 249.139 336.066 250.73 338.771C252.481 341.477 257.732 341.158 262.507 338.135C266.963 335.27 269.35 330.496 267.44 327.631C266.644 326.358 265.371 325.881 264.416 325.563Z" fill="#101B23"/>
<path d="M257.254 335.111C256.618 334.952 255.981 334.634 255.345 334.156L231.314 309.808C229.882 308.376 229.882 305.989 231.314 304.556C232.747 303.124 235.134 303.124 236.566 304.556L260.596 328.905C262.029 330.337 262.029 332.724 260.596 334.156C259.801 335.111 258.528 335.43 257.254 335.111Z" fill="#101B23"/>
<path d="M236.369 313.748C242.404 310.315 245.289 304.002 242.812 299.648C240.335 295.293 233.435 294.546 227.399 297.979C221.364 301.411 218.48 307.724 220.956 312.079C223.433 316.433 230.334 317.181 236.369 313.748Z" fill="#D7932A"/>
<path d="M225.745 317.923C222.721 317.287 220.334 315.696 218.902 313.308C215.878 307.898 219.061 300.259 226.223 296.121C233.384 292.143 241.659 293.257 244.683 298.667C246.274 301.373 246.274 304.715 244.683 308.057C243.251 311.08 240.704 313.945 237.362 315.855C234.02 317.764 230.36 318.56 227.018 318.242C226.7 318.083 226.222 317.923 225.745 317.923ZM237.044 298.19C234.498 297.713 231.315 298.19 228.45 299.941C223.517 302.646 220.971 307.738 222.881 310.921C223.676 312.354 225.427 313.308 227.496 313.627C229.883 313.945 232.747 313.308 235.134 311.876C237.681 310.444 239.59 308.375 240.704 306.147C241.659 304.078 241.659 302.328 240.863 300.736C240.227 299.463 238.795 298.667 237.044 298.19Z" fill="#D7932A"/>
<path d="M234.339 286.573L242.932 296.599L220.494 315.059L210.309 303.919L234.339 286.573Z" fill="#D7932A"/>
<path d="M233.065 287.846C235.452 292.143 232.588 298.349 226.699 301.85C220.652 305.351 213.809 305.351 211.263 301.055C208.876 296.758 211.74 289.915 217.787 286.414C223.676 282.913 230.519 283.549 233.065 287.846Z" fill="#2F3438"/>
<path d="M215.242 306.625C212.536 305.988 210.308 304.556 209.035 302.328C205.852 296.758 209.194 288.642 216.356 284.345C223.676 280.048 231.792 281.162 234.975 286.573C238.158 292.143 234.975 299.622 227.655 303.919C224.313 305.829 220.652 306.943 217.31 306.784C216.674 306.784 216.037 306.784 215.242 306.625ZM227.496 286.891C225.108 286.414 221.926 286.891 218.902 288.642C213.809 291.665 211.741 297.076 213.332 299.941C214.287 301.532 216.197 302.009 217.629 302.009C220.016 302.169 222.88 301.373 225.427 299.781C230.201 297.076 232.747 292.143 230.997 289.119C230.201 287.846 228.928 287.209 227.496 286.891Z" fill="#EDB930"/>
<path d="M246.433 324.448C245.478 324.289 244.524 323.812 243.887 323.016C242.136 321.106 242.136 317.924 244.205 316.173L250.412 310.444C252.321 308.693 255.504 308.693 257.255 310.762C259.005 312.672 259.005 315.855 256.937 317.605L250.73 323.334C249.457 324.289 247.865 324.767 246.433 324.448Z" fill="#101B23"/>
<path d="M96.2039 387.787L99.8641 394.471C102.251 398.927 100.66 404.337 96.2039 406.725L83.3134 413.727C78.8575 416.114 73.4467 414.522 71.0596 410.066L67.3993 403.383C65.0122 398.927 66.6037 393.516 71.0596 391.129L83.95 384.126C88.2468 381.739 93.8168 383.331 96.2039 387.787Z" fill="#343743"/>
<path d="M96.8401 390.333L100.978 396.698C103.683 400.836 102.569 406.406 98.4315 409.271L86.1777 417.387C82.04 420.092 76.47 418.978 73.6055 414.841L69.4679 408.475C66.7625 404.337 67.8764 398.767 72.0141 395.903L84.268 387.787C88.4056 385.081 94.1347 386.195 96.8401 390.333Z" fill="#6D7184"/>
<path d="M113.231 427.095C115.459 431.71 112.276 437.757 106.388 440.622C100.34 443.486 93.8157 442.054 91.5877 437.439C89.3597 432.824 92.5425 426.777 98.4308 423.912C104.478 421.048 111.003 422.48 113.231 427.095Z" fill="#D7932A"/>
<path d="M97.158 443.805C93.816 443.168 90.9515 441.099 89.5192 438.235C86.8138 432.506 90.3149 425.185 97.4763 421.843C100.818 420.252 104.478 419.775 107.661 420.411C111.162 421.207 113.868 423.117 115.141 425.981C117.846 431.71 114.345 439.031 107.184 442.373C103.842 444.123 100.341 444.601 97.158 443.805ZM106.706 424.867C104.478 424.39 101.773 424.708 99.386 425.981C94.6117 428.209 91.9063 432.983 93.6568 436.484C95.2482 439.985 100.659 440.94 105.433 438.553C110.208 436.325 112.913 431.551 111.162 428.05C110.367 426.459 108.934 425.345 106.706 424.867Z" fill="#D7932A"/>
<path d="M102.727 411.339L112.594 422.798L91.2688 440.303L80.6064 428.845L102.727 411.339Z" fill="#D7932A"/>
<path d="M91.2698 440.781L80.1299 428.845L102.728 410.862L113.072 422.798L91.2698 440.781ZM81.0848 428.845L91.429 439.985L112.276 422.798L102.728 411.658L81.0848 428.845Z" fill="#D7932A"/>
<path d="M102.251 413.727C104.638 417.546 102.251 423.593 96.6809 427.094C91.111 430.595 84.5862 430.914 82.04 427.094C79.6528 423.275 82.1992 416.75 87.7691 413.09C93.1799 409.589 99.7046 409.907 102.251 413.727Z" fill="#101B23"/>
<path d="M85.5411 431.869C83.154 431.392 81.4035 430.118 80.2895 428.368C77.1067 423.435 79.9712 415.796 86.6552 411.499C93.3391 407.202 100.978 407.68 104.001 412.613C107.184 417.546 104.32 424.708 97.795 428.845C94.7713 430.755 91.2702 431.869 88.2466 432.028C87.2917 432.028 86.3368 432.028 85.5411 431.869ZM97.3176 412.931C94.9305 412.454 91.5885 413.09 88.724 415C83.7906 418.183 82.04 423.434 83.6314 426.14C84.5863 427.731 86.8143 427.89 87.9283 427.89C90.1562 427.89 92.8616 426.936 95.2487 425.344C99.7047 422.48 102.092 417.705 100.182 414.841C99.8638 413.886 98.7499 413.249 97.3176 412.931Z" fill="#101B23"/>
<path d="M90.3149 422.479C89.6784 422.32 89.0418 422.002 88.4052 421.525L64.375 397.176C62.9427 395.744 62.9427 393.357 64.375 391.924C65.8073 390.492 68.1943 390.492 69.6266 391.924L93.6569 416.273C95.0891 417.705 95.0891 420.092 93.6569 421.525C92.702 422.32 91.4289 422.798 90.3149 422.479Z" fill="#101B23"/>
<path d="M75.8334 386.992C78.3797 391.288 75.3559 397.654 69.3086 401.155C63.2612 404.656 56.4181 403.86 53.8719 399.564C51.3256 395.267 54.3494 388.901 60.3967 385.4C66.4441 381.899 73.4463 382.536 75.8334 386.992Z" fill="#D7932A"/>
<path d="M58.8052 405.133C55.7815 404.497 53.3944 402.905 51.9621 400.518C50.3707 397.813 50.3707 394.471 51.9621 391.129C53.3944 388.105 55.9406 385.241 59.2826 383.331C62.6245 381.421 66.2848 380.626 69.6267 380.944C73.287 381.262 76.1515 383.013 77.7429 385.877C79.3343 388.583 79.3343 391.925 77.7429 395.267C76.3106 398.29 73.7644 401.155 70.4224 403.065C67.0805 404.974 63.4202 405.77 60.0783 405.452C59.6008 405.293 59.2826 405.293 58.8052 405.133ZM70.1041 385.559C69.7858 385.559 69.6267 385.4 69.3084 385.4C66.9213 385.082 64.0568 385.718 61.6697 387.15C59.2826 388.583 57.2137 390.652 56.0997 392.88C55.1449 394.948 55.1449 396.699 55.9406 398.29C56.7363 399.723 58.4868 400.677 60.5557 400.996C62.9428 401.314 65.8073 400.677 68.1944 399.245C70.7407 397.813 72.6504 395.744 73.7643 393.516C74.7192 391.447 74.7192 389.697 73.9235 388.105C73.1278 386.832 71.8547 385.877 70.1041 385.559Z" fill="#D7932A"/>
<path d="M67.3993 373.783L75.993 383.968L53.5541 402.269L43.21 391.288L67.3993 373.783Z" fill="#D7932A"/>
<path d="M65.3297 374.578C67.7168 378.874 64.8523 385.081 58.9641 388.582C52.9167 392.083 46.0736 392.083 43.5274 387.786C41.1402 383.49 44.0048 376.646 50.0522 373.145C56.0996 369.803 62.9426 370.44 65.3297 374.578Z" fill="#2F3438"/>
<path d="M47.6654 393.357C44.96 392.72 42.7321 391.288 41.2998 389.06C38.117 383.49 41.4589 375.374 48.6202 371.077C51.9622 369.167 55.6225 368.212 59.1236 368.531C62.7838 368.849 65.8074 370.599 67.3989 373.305C68.9903 376.01 68.9903 379.511 67.3989 382.853C65.9666 385.877 63.4204 388.741 60.0784 390.651C55.7816 393.357 51.3257 394.152 47.6654 393.357ZM59.7601 373.623C59.4418 373.623 59.1236 373.464 58.8053 373.464C56.4182 373.305 53.7128 373.941 51.1666 375.374C46.074 378.397 44.0052 383.808 45.5966 386.673C47.188 389.537 52.7579 389.378 57.6913 386.673C60.0784 385.24 62.1473 383.172 63.1021 381.103C63.5795 379.989 64.3752 377.92 63.2612 376.01C62.4655 374.419 60.8741 373.941 59.7601 373.623Z" fill="#EDB930"/>
<path d="M79.3345 411.657C78.3797 411.498 77.4249 411.021 76.7883 410.225C75.0378 408.315 75.0378 405.133 77.1066 403.382L83.313 397.653C85.2227 395.902 88.4056 395.902 90.1562 397.971C91.9067 399.881 91.9067 403.064 89.8379 404.814L83.6313 410.543C82.5174 411.657 80.9259 411.976 79.3345 411.657Z" fill="#101B23"/>
<path opacity="0.3" d="M325.645 499.447C325.645 502.858 314.009 507.372 300.067 507.372C286.125 507.372 274.79 504.563 274.79 501.153C274.79 497.742 286.125 494.934 300.067 494.934C314.009 495.034 325.645 496.037 325.645 499.447Z" fill="#8C7263"/>
<path d="M329.757 442.474C329.757 444.38 319.125 445.885 306.085 445.885C292.945 445.885 282.413 444.38 282.413 442.474C282.413 440.569 293.045 439.064 306.085 439.064C319.125 438.964 329.757 440.569 329.757 442.474Z" fill="#C6C4A2"/>
<path d="M295.854 440.368C295.854 440.368 311.301 438.261 327.048 442.173C327.048 442.173 325.945 443.176 324.741 443.277C323.538 443.377 313.507 439.565 295.854 440.368Z" fill="#FBF9DC"/>
<path d="M311.602 381.088C309.796 385.501 308.392 390.416 307.489 395.933C309.897 392.322 312.705 389.313 315.815 386.805C315.313 386.203 314.711 385.2 314.109 384.297C312.906 382.793 311.802 381.088 311.602 381.088Z" fill="#89A262"/>
<path d="M339.989 349.792C339.989 349.792 335.676 351.698 330.059 356.112C329.056 356.914 330.961 363.534 329.858 364.537H329.758C329.457 364.537 328.554 363.434 327.651 362.331C326.749 361.227 325.846 360.224 325.545 360.124H325.445C321.533 363.936 317.42 369.051 314.11 375.471C313.508 376.574 316.016 383.094 316.618 386.103C318.022 385.1 319.426 384.197 320.931 383.495L332.165 385.1C333.971 380.987 335.575 376.775 336.879 372.662C336.879 372.562 336.879 372.562 336.679 372.562C335.977 372.461 333.569 373.063 331.162 373.765C328.755 374.367 326.247 375.069 325.645 374.969C325.545 374.969 325.445 374.869 325.445 374.869C325.846 373.565 338.484 367.246 338.785 365.841C340.089 360.124 340.591 354.707 339.989 349.792Z" fill="#89A262"/>
<path d="M320.93 383.696C319.426 384.398 317.921 385.3 316.617 386.303C316.718 386.905 316.718 387.407 316.617 387.607C316.517 387.607 316.216 387.307 315.915 386.805C312.806 389.212 309.997 392.322 307.59 395.933C306.186 404.659 306.186 414.89 308.392 426.727C308.392 426.727 322.836 406.966 332.265 385.2L320.93 383.696Z" fill="#788F50"/>
<path d="M271.78 355.108C271.78 355.108 274.489 371.157 275.893 376.273C275.893 376.273 277.598 388.309 282.914 402.352C287.729 415.191 294.85 430.237 299.665 445.684C300.468 445.684 301.27 445.784 302.072 445.784C299.264 422.614 291.741 379.884 271.78 355.108Z" fill="#89A262"/>
<path d="M293.948 406.264C285.422 378.78 278.2 372.561 278.2 372.561C278.2 372.561 284.219 388.109 289.535 402.151C294.349 414.99 296.556 430.237 299.966 445.784C300.568 445.784 301.07 445.784 301.672 445.884C300.167 434.951 297.76 420.106 293.948 406.264Z" fill="#788F50"/>
<path d="M307.088 445.884C310.198 411.48 312.906 347.786 295.453 311.776C295.453 311.776 293.346 396.635 299.766 445.684C301.772 445.784 303.878 445.784 306.085 445.784C306.386 445.885 306.787 445.884 307.088 445.884Z" fill="#ABC784"/>
<path d="M352.426 398.039C348.715 397.538 333.267 392.422 333.267 392.422C328.954 395.531 318.824 421.711 310.197 445.885C310.899 445.885 311.702 445.885 312.404 445.784C323.036 423.517 334.872 402.653 334.772 406.064C334.571 411.982 359.848 450.098 359.848 450.098C361.253 438.462 352.426 398.039 352.426 398.039Z" fill="#ABC784"/>
<path d="M300.869 340.163C300.869 340.163 304.78 378.981 304.279 380.084C303.777 381.188 299.966 372.662 299.966 372.662C299.966 372.662 307.087 395.732 306.385 401.349C305.884 405.462 304.68 432.243 304.078 445.885C304.279 445.885 304.48 445.885 304.68 445.885C306.787 425.723 311.1 371.859 300.869 340.163Z" fill="#788F50"/>
<path d="M334.271 404.358C334.271 404.358 333.268 398.841 333.268 395.632C333.268 395.632 319.526 417.598 311.602 445.885C311.502 445.885 329.356 406.966 334.271 404.358Z" fill="#788F50"/>
<path d="M351.323 399.443C351.323 399.443 355.937 418.802 354.332 418.401C352.727 417.9 347.411 397.738 346.809 403.757C346.207 409.775 335.073 395.732 335.073 395.732C335.073 395.732 339.487 394.228 351.323 399.443Z" fill="#788F50"/>
<path d="M282.413 442.474L287.027 499.648C287.027 499.648 291.641 505.065 304.881 505.065C317.52 505.065 325.043 499.046 325.043 499.046L329.557 443.076C327.651 444.681 317.921 445.985 306.185 445.985C292.945 445.885 282.413 444.38 282.413 442.474Z" fill="#FBF9DC"/>
<path d="M282.413 442.474L287.027 499.648C287.027 499.648 291.641 505.065 304.881 505.065C317.52 505.065 325.043 499.046 325.043 499.046L325.143 497.843C322.435 499.448 318.724 500.651 313.407 500.551C298.763 500.25 295.152 459.927 294.349 445.483C287.127 444.882 282.413 443.778 282.413 442.474Z" fill="#EFE9B2"/>
<path d="M324.642 449.295C324.642 449.295 309.997 453.407 294.65 451.502C294.751 452.805 294.851 454.109 295.052 455.514C301.471 455.514 317.821 454.812 324.642 449.295Z" fill="#E7E6B8"/>
<path d="M291.942 496.037C291.942 496.037 296.455 504.663 318.422 502.256C318.422 502.256 298.161 503.259 296.455 494.332C294.75 485.405 292.343 455.514 292.343 455.514C292.343 455.514 293.346 455.514 295.051 455.514C294.951 454.11 294.75 452.705 294.65 451.502C291.841 451.1 288.933 450.499 286.124 449.696L291.942 496.037Z" fill="#DBD697"/>
<defs>
<linearGradient id="paint0_linear" x1="127.361" y1="82.6409" x2="133.196" y2="97.0306" gradientUnits="userSpaceOnUse">
<stop stop-color="#E5BCA5"/>
<stop offset="1" stop-color="#CA9487"/>
</linearGradient>
</defs>
</svg>
