<svg width="100" height="18" viewBox="0 0 100 18" fill="none" xmlns="http://www.w3.org/2000/svg">
<path d="M56.4984 0C55.5899 0 54.9085 0.283912 54.1703 1.36278L44.9716 13.8549L41.4511 1.64669C41.0536 0.397476 40.2587 0 39.5205 0C38.3849 0 37.817 0.454259 37.2492 1.53312L29.1293 17.7729H33.6719L39.1798 6.58675L42.5867 17.7729H46.3912L54.6814 6.64353L54.6246 17.7729H58.4858L58.429 2.15773C58.429 0.624606 57.4637 0.0567823 56.4984 0Z" fill="white"/>
<path d="M23.6782 2.8959L20.0442 17.7729H24.1893L27.7666 2.8959H23.6782Z" fill="white"/>
<path d="M8.97161 9.653H6.07571L7.15457 5.16719H10.2208C11.8675 5.16719 12.7192 5.90536 12.5489 7.32492C12.3785 8.80126 10.959 9.653 8.97161 9.653ZM16.6372 7.15457C16.8644 5.16719 15.7287 2.8959 11.5836 2.8959H3.57729L0 17.7729H4.08833L5.4511 12.2082H7.55205L11.1861 17.7729H15.6719L11.5836 11.8675C15.2177 10.959 16.4101 9.08517 16.6372 7.15457Z" fill="white"/>
<path d="M69.1609 12.265L72.7949 6.81388L74.1577 12.265H69.1609ZM75.5205 17.7729H79.4385L75.6908 4.08833C75.1798 2.49842 74.2145 2.10095 73.1924 2.21451C72.5678 2.27129 71.8864 2.55521 71.205 3.46372L61.3817 17.8297H65.4132L67.4006 14.8202H74.7255L75.5205 17.7729Z" fill="white"/>
<path d="M91.9306 15.0473C88.5804 14.9905 86.7066 13.1167 86.9905 10.7319C87.3312 7.49527 90.2839 5.56467 94.429 5.56467C95.6214 5.56467 97.2113 5.67823 98.6309 6.01893L99.3691 3.00946C98.2334 2.72555 96.246 2.49842 94.9401 2.49842C87.899 2.49842 83.4132 5.73502 82.8454 10.6183C82.3344 14.9338 85.4006 18 91.9306 18C93.2366 18 94.3722 17.8864 96.0189 17.6025L96.8139 14.3659C95.1672 14.8202 93.918 15.0473 91.9306 15.0473Z" fill="white"/>
</svg>
